<svg xmlns="http://www.w3.org/2000/svg" width="1920" height="1080"><path d="M990,561L1057,489L933,454Z" fill="rgb(147,151,151)" stroke="rgb(147,151,151)" stroke-width="1.51"/><path d="M1057,489L928,384L933,454Z" fill="rgb(149,153,153)" stroke="rgb(149,153,153)" stroke-width="1.51"/><path d="M933,454L847,574L990,561Z" fill="rgb(148,149,149)" stroke="rgb(148,149,149)" stroke-width="1.51"/><path d="M816,437L847,574L933,454Z" fill="rgb(148,153,153)" stroke="rgb(148,153,153)" stroke-width="1.51"/><path d="M990,561L1082,628L1057,489Z" fill="rgb(147,154,153)" stroke="rgb(147,154,153)" stroke-width="1.51"/><path d="M995,710L1082,628L990,561Z" fill="rgb(145,158,158)" stroke="rgb(145,158,158)" stroke-width="1.51"/><path d="M928,384L816,437L933,454Z" fill="rgb(149,156,156)" stroke="rgb(149,156,156)" stroke-width="1.51"/><path d="M928,384L855,351L816,437Z" fill="rgb(149,158,158)" stroke="rgb(149,158,158)" stroke-width="1.51"/><path d="M1057,489L1101,316L928,384Z" fill="rgb(148,158,158)" stroke="rgb(148,158,158)" stroke-width="1.51"/><path d="M928,384L969,258L855,351Z" fill="rgb(149,159,159)" stroke="rgb(149,159,159)" stroke-width="1.51"/><path d="M1165,367L1101,316L1057,489Z" fill="rgb(146,162,162)" stroke="rgb(146,162,162)" stroke-width="1.51"/><path d="M1218,473L1165,367L1057,489Z" fill="rgb(146,162,161)" stroke="rgb(146,162,161)" stroke-width="1.51"/><path d="M861,703L995,710L990,561Z" fill="rgb(145,158,158)" stroke="rgb(145,158,158)" stroke-width="1.51"/><path d="M1082,628L1218,473L1057,489Z" fill="rgb(146,156,155)" stroke="rgb(146,156,155)" stroke-width="1.51"/><path d="M1101,316L969,258L928,384Z" fill="rgb(148,161,160)" stroke="rgb(148,161,160)" stroke-width="1.51"/><path d="M847,574L861,703L990,561Z" fill="rgb(146,156,155)" stroke="rgb(146,156,155)" stroke-width="1.51"/><path d="M707,606L861,703L847,574Z" fill="rgb(146,160,159)" stroke="rgb(146,160,159)" stroke-width="1.51"/><path d="M1101,316L1058,250L969,258Z" fill="rgb(148,165,165)" stroke="rgb(148,165,165)" stroke-width="1.51"/><path d="M1207,251L1058,250L1101,316Z" fill="rgb(146,169,168)" stroke="rgb(146,169,168)" stroke-width="1.51"/><path d="M816,437L727,475L847,574Z" fill="rgb(149,155,155)" stroke="rgb(149,155,155)" stroke-width="1.51"/><path d="M734,328L727,475L816,437Z" fill="rgb(149,160,160)" stroke="rgb(149,160,160)" stroke-width="1.51"/><path d="M1082,628L1227,619L1218,473Z" fill="rgb(144,161,160)" stroke="rgb(144,161,160)" stroke-width="1.51"/><path d="M995,710L1114,726L1082,628Z" fill="rgb(142,165,164)" stroke="rgb(142,165,164)" stroke-width="1.51"/><path d="M1040,826L1114,726L995,710Z" fill="rgb(139,169,169)" stroke="rgb(139,169,169)" stroke-width="1.51"/><path d="M1207,683L1227,619L1082,628Z" fill="rgb(142,166,165)" stroke="rgb(142,166,165)" stroke-width="1.51"/><path d="M1114,726L1207,683L1082,628Z" fill="rgb(141,167,166)" stroke="rgb(141,167,166)" stroke-width="1.51"/><path d="M855,351L734,328L816,437Z" fill="rgb(149,161,161)" stroke="rgb(149,161,161)" stroke-width="1.51"/><path d="M835,214L734,328L855,351Z" fill="rgb(149,165,165)" stroke="rgb(149,165,165)" stroke-width="1.51"/><path d="M727,475L707,606L847,574Z" fill="rgb(148,154,154)" stroke="rgb(148,154,154)" stroke-width="1.51"/><path d="M610,585L707,606L727,475Z" fill="rgb(148,157,157)" stroke="rgb(148,157,157)" stroke-width="1.51"/><path d="M969,258L835,214L855,351Z" fill="rgb(149,163,163)" stroke="rgb(149,163,163)" stroke-width="1.51"/><path d="M956,107L835,214L969,258Z" fill="rgb(149,167,167)" stroke="rgb(149,167,167)" stroke-width="1.51"/><path d="M1358,742L1304,570L1227,619Z" fill="rgb(139,172,171)" stroke="rgb(139,172,171)" stroke-width="1.51"/><path d="M1227,619L1304,570L1218,473Z" fill="rgb(143,162,162)" stroke="rgb(143,162,162)" stroke-width="1.51"/><path d="M1300,354L1207,251L1165,367Z" fill="rgb(144,171,170)" stroke="rgb(144,171,170)" stroke-width="1.51"/><path d="M1165,367L1207,251L1101,316Z" fill="rgb(145,168,168)" stroke="rgb(145,168,168)" stroke-width="1.51"/><path d="M1058,250L956,107L969,258Z" fill="rgb(148,167,166)" stroke="rgb(148,167,166)" stroke-width="1.51"/><path d="M1300,354L1165,367L1218,473Z" fill="rgb(144,168,167)" stroke="rgb(144,168,167)" stroke-width="1.51"/><path d="M931,841L1040,826L995,710Z" fill="rgb(139,170,169)" stroke="rgb(139,170,169)" stroke-width="1.51"/><path d="M1114,726L1237,808L1207,683Z" fill="rgb(137,174,174)" stroke="rgb(137,174,174)" stroke-width="1.51"/><path d="M931,841L995,710L861,703Z" fill="rgb(141,166,166)" stroke="rgb(141,166,166)" stroke-width="1.51"/><path d="M1339,452L1300,354L1218,473Z" fill="rgb(143,169,168)" stroke="rgb(143,169,168)" stroke-width="1.51"/><path d="M1304,570L1339,452L1218,473Z" fill="rgb(142,165,164)" stroke="rgb(142,165,164)" stroke-width="1.51"/><path d="M805,820L931,841L861,703Z" fill="rgb(140,171,170)" stroke="rgb(140,171,170)" stroke-width="1.51"/><path d="M707,606L730,748L861,703Z" fill="rgb(144,166,165)" stroke="rgb(144,166,165)" stroke-width="1.51"/><path d="M730,748L805,820L861,703Z" fill="rgb(142,170,169)" stroke="rgb(142,170,169)" stroke-width="1.51"/><path d="M1300,354L1296,270L1207,251Z" fill="rgb(143,175,174)" stroke="rgb(143,175,174)" stroke-width="1.51"/><path d="M1448,249L1296,270L1300,354Z" fill="rgb(141,179,178)" stroke="rgb(141,179,178)" stroke-width="1.51"/><path d="M1044,87L956,107L1058,250Z" fill="rgb(148,170,170)" stroke="rgb(148,170,170)" stroke-width="1.51"/><path d="M1044,87L1058,250L1239,140Z" fill="rgb(146,174,174)" stroke="rgb(146,174,174)" stroke-width="1.51"/><path d="M598,456L610,585L727,475Z" fill="rgb(149,159,158)" stroke="rgb(149,159,158)" stroke-width="1.51"/><path d="M707,606L623,723L730,748Z" fill="rgb(144,169,168)" stroke="rgb(144,169,168)" stroke-width="1.51"/><path d="M734,328L598,456L727,475Z" fill="rgb(149,162,162)" stroke="rgb(149,162,162)" stroke-width="1.51"/><path d="M575,396L598,456L734,328Z" fill="rgb(149,165,165)" stroke="rgb(149,165,165)" stroke-width="1.51"/><path d="M1040,826L1237,808L1114,726Z" fill="rgb(136,176,175)" stroke="rgb(136,176,175)" stroke-width="1.51"/><path d="M1207,683L1358,742L1227,619Z" fill="rgb(138,174,172)" stroke="rgb(138,174,172)" stroke-width="1.51"/><path d="M1492,462L1469,397L1339,452Z" fill="rgb(139,175,174)" stroke="rgb(139,175,174)" stroke-width="1.51"/><path d="M1190,930L1237,808L1040,826Z" fill="rgb(132,182,181)" stroke="rgb(132,182,181)" stroke-width="1.51"/><path d="M835,214L717,196L734,328Z" fill="rgb(149,168,168)" stroke="rgb(149,168,168)" stroke-width="1.51"/><path d="M956,107L819,129L835,214Z" fill="rgb(149,170,170)" stroke="rgb(149,170,170)" stroke-width="1.51"/><path d="M819,129L717,196L835,214Z" fill="rgb(149,171,171)" stroke="rgb(149,171,171)" stroke-width="1.51"/><path d="M1239,140L1058,250L1207,251Z" fill="rgb(145,174,173)" stroke="rgb(145,174,173)" stroke-width="1.51"/><path d="M956,107L813,15L819,129Z" fill="rgb(149,174,174)" stroke="rgb(149,174,174)" stroke-width="1.51"/><path d="M598,456L470,561L610,585Z" fill="rgb(149,160,160)" stroke="rgb(149,160,160)" stroke-width="1.51"/><path d="M570,260L575,396L734,328Z" fill="rgb(149,168,168)" stroke="rgb(149,168,168)" stroke-width="1.51"/><path d="M730,748L693,839L805,820Z" fill="rgb(140,176,175)" stroke="rgb(140,176,175)" stroke-width="1.51"/><path d="M610,585L623,723L707,606Z" fill="rgb(146,165,164)" stroke="rgb(146,165,164)" stroke-width="1.51"/><path d="M472,737L623,723L610,585Z" fill="rgb(144,171,170)" stroke="rgb(144,171,170)" stroke-width="1.51"/><path d="M1296,270L1239,140L1207,251Z" fill="rgb(143,177,177)" stroke="rgb(143,177,177)" stroke-width="1.51"/><path d="M1237,808L1358,742L1207,683Z" fill="rgb(135,178,177)" stroke="rgb(135,178,177)" stroke-width="1.51"/><path d="M833,966L991,949L931,841Z" fill="rgb(135,180,179)" stroke="rgb(135,180,179)" stroke-width="1.51"/><path d="M623,723L693,839L730,748Z" fill="rgb(140,175,174)" stroke="rgb(140,175,174)" stroke-width="1.51"/><path d="M931,841L991,949L1040,826Z" fill="rgb(136,176,175)" stroke="rgb(136,176,175)" stroke-width="1.51"/><path d="M1237,808L1299,829L1358,742Z" fill="rgb(132,184,183)" stroke="rgb(132,184,183)" stroke-width="1.51"/><path d="M833,966L931,841L805,820Z" fill="rgb(137,179,178)" stroke="rgb(137,179,178)" stroke-width="1.51"/><path d="M1190,930L1299,829L1237,808Z" fill="rgb(129,186,186)" stroke="rgb(129,186,186)" stroke-width="1.51"/><path d="M1044,87L972,21L956,107Z" fill="rgb(149,173,173)" stroke="rgb(149,173,173)" stroke-width="1.51"/><path d="M577,106L570,260L717,196Z" fill="rgb(149,176,175)" stroke="rgb(149,176,175)" stroke-width="1.51"/><path d="M1124,-5L972,21L1044,87Z" fill="rgb(147,178,178)" stroke="rgb(147,178,178)" stroke-width="1.51"/><path d="M717,196L570,260L734,328Z" fill="rgb(149,171,170)" stroke="rgb(149,171,170)" stroke-width="1.51"/><path d="M728,81L717,196L819,129Z" fill="rgb(149,175,175)" stroke="rgb(149,175,175)" stroke-width="1.51"/><path d="M1061,1010L1190,930L1040,826Z" fill="rgb(131,185,184)" stroke="rgb(131,185,184)" stroke-width="1.51"/><path d="M813,15L728,81L819,129Z" fill="rgb(149,177,177)" stroke="rgb(149,177,177)" stroke-width="1.51"/><path d="M1339,452L1469,397L1300,354Z" fill="rgb(141,174,173)" stroke="rgb(141,174,173)" stroke-width="1.51"/><path d="M1296,270L1359,134L1239,140Z" fill="rgb(142,182,181)" stroke="rgb(142,182,181)" stroke-width="1.51"/><path d="M1477,572L1339,452L1304,570Z" fill="rgb(141,168,167)" stroke="rgb(141,168,167)" stroke-width="1.51"/><path d="M1478,682L1477,572L1304,570Z" fill="rgb(137,174,174)" stroke="rgb(137,174,174)" stroke-width="1.51"/><path d="M1478,682L1304,570L1358,742Z" fill="rgb(135,177,177)" stroke="rgb(135,177,177)" stroke-width="1.51"/><path d="M754,997L833,966L805,820Z" fill="rgb(134,184,183)" stroke="rgb(134,184,183)" stroke-width="1.51"/><path d="M991,949L1061,1010L1040,826Z" fill="rgb(132,182,182)" stroke="rgb(132,182,182)" stroke-width="1.51"/><path d="M1477,572L1492,462L1339,452Z" fill="rgb(139,172,172)" stroke="rgb(139,172,172)" stroke-width="1.51"/><path d="M570,260L511,333L575,396Z" fill="rgb(149,171,170)" stroke="rgb(149,171,170)" stroke-width="1.51"/><path d="M435,518L470,561L598,456Z" fill="rgb(149,163,162)" stroke="rgb(149,163,162)" stroke-width="1.51"/><path d="M972,21L813,15L956,107Z" fill="rgb(149,175,175)" stroke="rgb(149,175,175)" stroke-width="1.51"/><path d="M1448,249L1359,134L1296,270Z" fill="rgb(140,183,182)" stroke="rgb(140,183,182)" stroke-width="1.51"/><path d="M1239,140L1124,-5L1044,87Z" fill="rgb(145,180,180)" stroke="rgb(145,180,180)" stroke-width="1.51"/><path d="M1240,-37L1124,-5L1239,140Z" fill="rgb(143,185,185)" stroke="rgb(143,185,185)" stroke-width="1.51"/><path d="M972,21L982,-92L813,15Z" fill="rgb(149,177,177)" stroke="rgb(149,177,177)" stroke-width="1.51"/><path d="M1603,313L1448,249L1469,397Z" fill="rgb(137,185,183)" stroke="rgb(137,185,183)" stroke-width="1.51"/><path d="M1469,397L1448,249L1300,354Z" fill="rgb(140,179,178)" stroke="rgb(140,179,178)" stroke-width="1.51"/><path d="M918,1047L1061,1010L991,949Z" fill="rgb(129,187,186)" stroke="rgb(129,187,186)" stroke-width="1.51"/><path d="M435,518L598,456L575,396Z" fill="rgb(149,165,164)" stroke="rgb(149,165,164)" stroke-width="1.51"/><path d="M623,723L595,892L693,839Z" fill="rgb(139,180,179)" stroke="rgb(139,180,179)" stroke-width="1.51"/><path d="M1467,844L1478,682L1358,742Z" fill="rgb(129,187,186)" stroke="rgb(129,187,186)" stroke-width="1.51"/><path d="M1477,572L1594,507L1492,462Z" fill="rgb(137,175,174)" stroke="rgb(137,175,174)" stroke-width="1.51"/><path d="M1467,844L1358,742L1299,829Z" fill="rgb(128,188,187)" stroke="rgb(128,188,187)" stroke-width="1.51"/><path d="M813,15L722,32L728,81Z" fill="rgb(149,180,179)" stroke="rgb(149,180,179)" stroke-width="1.51"/><path d="M728,81L577,106L717,196Z" fill="rgb(149,177,177)" stroke="rgb(149,177,177)" stroke-width="1.51"/><path d="M570,260L432,244L511,333Z" fill="rgb(149,174,174)" stroke="rgb(149,174,174)" stroke-width="1.51"/><path d="M595,892L754,997L693,839Z" fill="rgb(134,186,185)" stroke="rgb(134,186,185)" stroke-width="1.51"/><path d="M511,333L435,518L575,396Z" fill="rgb(149,167,167)" stroke="rgb(149,167,167)" stroke-width="1.51"/><path d="M693,839L754,997L805,820Z" fill="rgb(136,182,181)" stroke="rgb(136,182,181)" stroke-width="1.51"/><path d="M833,966L918,1047L991,949Z" fill="rgb(131,186,185)" stroke="rgb(131,186,185)" stroke-width="1.51"/><path d="M595,892L623,723L486,856Z" fill="rgb(138,183,181)" stroke="rgb(138,183,181)" stroke-width="1.51"/><path d="M854,1068L918,1047L833,966Z" fill="rgb(128,190,189)" stroke="rgb(128,190,189)" stroke-width="1.51"/><path d="M472,737L610,585L470,561Z" fill="rgb(146,168,167)" stroke="rgb(146,168,167)" stroke-width="1.51"/><path d="M511,333L367,439L435,518Z" fill="rgb(149,168,168)" stroke="rgb(149,168,168)" stroke-width="1.51"/><path d="M722,32L577,106L728,81Z" fill="rgb(149,180,180)" stroke="rgb(149,180,180)" stroke-width="1.51"/><path d="M338,712L472,737L470,561Z" fill="rgb(144,174,173)" stroke="rgb(144,174,173)" stroke-width="1.51"/><path d="M1448,249L1420,115L1359,134Z" fill="rgb(139,188,187)" stroke="rgb(139,188,187)" stroke-width="1.51"/><path d="M1361,-4L1240,-37L1239,140Z" fill="rgb(142,189,188)" stroke="rgb(142,189,188)" stroke-width="1.51"/><path d="M1190,930L1332,957L1299,829Z" fill="rgb(126,192,191)" stroke="rgb(126,192,191)" stroke-width="1.51"/><path d="M1217,1067L1332,957L1190,930Z" fill="rgb(121,197,196)" stroke="rgb(121,197,196)" stroke-width="1.51"/><path d="M1105,1070L1190,930L1061,1010Z" fill="rgb(125,192,192)" stroke="rgb(125,192,192)" stroke-width="1.51"/><path d="M1124,-5L982,-92L972,21Z" fill="rgb(148,179,179)" stroke="rgb(148,179,179)" stroke-width="1.51"/><path d="M679,-132L613,-32L722,32Z" fill="rgb(149,184,184)" stroke="rgb(149,184,184)" stroke-width="1.51"/><path d="M1096,-157L982,-92L1124,-5Z" fill="rgb(147,181,180)" stroke="rgb(147,181,180)" stroke-width="1.51"/><path d="M1361,-4L1239,140L1359,134Z" fill="rgb(140,188,187)" stroke="rgb(140,188,187)" stroke-width="1.51"/><path d="M957,1174L1105,1070L1061,1010Z" fill="rgb(123,195,195)" stroke="rgb(123,195,195)" stroke-width="1.51"/><path d="M918,1047L957,1174L1061,1010Z" fill="rgb(125,193,192)" stroke="rgb(125,193,192)" stroke-width="1.51"/><path d="M754,997L854,1068L833,966Z" fill="rgb(129,190,189)" stroke="rgb(129,190,189)" stroke-width="1.51"/><path d="M722,1074L854,1068L754,997Z" fill="rgb(127,194,193)" stroke="rgb(127,194,193)" stroke-width="1.51"/><path d="M1332,957L1467,844L1299,829Z" fill="rgb(124,194,193)" stroke="rgb(124,194,193)" stroke-width="1.51"/><path d="M1542,715L1573,598L1478,682Z" fill="rgb(131,184,183)" stroke="rgb(131,184,183)" stroke-width="1.51"/><path d="M1478,682L1573,598L1477,572Z" fill="rgb(134,179,178)" stroke="rgb(134,179,178)" stroke-width="1.51"/><path d="M1492,462L1603,313L1469,397Z" fill="rgb(137,181,181)" stroke="rgb(137,181,181)" stroke-width="1.51"/><path d="M1448,249L1604,150L1420,115Z" fill="rgb(136,191,191)" stroke="rgb(136,191,191)" stroke-width="1.51"/><path d="M595,892L579,924L754,997Z" fill="rgb(132,190,189)" stroke="rgb(132,190,189)" stroke-width="1.51"/><path d="M486,856L579,924L595,892Z" fill="rgb(135,188,187)" stroke="rgb(135,188,187)" stroke-width="1.51"/><path d="M1467,844L1542,715L1478,682Z" fill="rgb(127,189,188)" stroke="rgb(127,189,188)" stroke-width="1.51"/><path d="M1573,598L1594,507L1477,572Z" fill="rgb(136,176,176)" stroke="rgb(136,176,176)" stroke-width="1.51"/><path d="M577,106L432,244L570,260Z" fill="rgb(149,178,178)" stroke="rgb(149,178,178)" stroke-width="1.51"/><path d="M1332,957L1496,971L1467,844Z" fill="rgb(118,200,200)" stroke="rgb(118,200,200)" stroke-width="1.51"/><path d="M1105,1070L1217,1067L1190,930Z" fill="rgb(122,197,196)" stroke="rgb(122,197,196)" stroke-width="1.51"/><path d="M472,737L486,856L623,723Z" fill="rgb(140,180,179)" stroke="rgb(140,180,179)" stroke-width="1.51"/><path d="M384,879L486,856L472,737Z" fill="rgb(138,186,185)" stroke="rgb(138,186,185)" stroke-width="1.51"/><path d="M1420,115L1361,-4L1359,134Z" fill="rgb(139,190,190)" stroke="rgb(139,190,190)" stroke-width="1.51"/><path d="M333,312L367,439L511,333Z" fill="rgb(149,173,173)" stroke="rgb(149,173,173)" stroke-width="1.51"/><path d="M435,518L322,577L470,561Z" fill="rgb(148,165,165)" stroke="rgb(148,165,165)" stroke-width="1.51"/><path d="M634,1085L722,1074L754,997Z" fill="rgb(126,197,196)" stroke="rgb(126,197,196)" stroke-width="1.51"/><path d="M854,1068L957,1174L918,1047Z" fill="rgb(125,193,193)" stroke="rgb(125,193,193)" stroke-width="1.51"/><path d="M634,1085L754,997L579,924Z" fill="rgb(128,195,194)" stroke="rgb(128,195,194)" stroke-width="1.51"/><path d="M1594,507L1603,313L1492,462Z" fill="rgb(136,182,180)" stroke="rgb(136,182,180)" stroke-width="1.51"/><path d="M1420,115L1448,-27L1361,-4Z" fill="rgb(138,195,194)" stroke="rgb(138,195,194)" stroke-width="1.51"/><path d="M1321,-152L1223,-104L1240,-37Z" fill="rgb(142,190,189)" stroke="rgb(142,190,189)" stroke-width="1.51"/><path d="M1240,-37L1223,-104L1124,-5Z" fill="rgb(144,187,186)" stroke="rgb(144,187,186)" stroke-width="1.51"/><path d="M722,32L613,-32L577,106Z" fill="rgb(149,183,183)" stroke="rgb(149,183,183)" stroke-width="1.51"/><path d="M305,150L343,244L432,244Z" fill="rgb(149,182,182)" stroke="rgb(149,182,182)" stroke-width="1.51"/><path d="M806,-138L722,32L813,15Z" fill="rgb(149,181,181)" stroke="rgb(149,181,181)" stroke-width="1.51"/><path d="M982,-92L806,-138L813,15Z" fill="rgb(149,178,178)" stroke="rgb(149,178,178)" stroke-width="1.51"/><path d="M1096,-157L806,-138L982,-92Z" fill="rgb(149,176,176)" stroke="rgb(149,176,176)" stroke-width="1.51"/><path d="M1223,-104L1096,-157L1124,-5Z" fill="rgb(145,184,184)" stroke="rgb(145,184,184)" stroke-width="1.51"/><path d="M1603,313L1602,246L1448,249Z" fill="rgb(135,189,188)" stroke="rgb(135,189,188)" stroke-width="1.51"/><path d="M367,439L322,577L435,518Z" fill="rgb(149,166,166)" stroke="rgb(149,166,166)" stroke-width="1.51"/><path d="M367,439L201,459L322,577Z" fill="rgb(149,169,169)" stroke="rgb(149,169,169)" stroke-width="1.51"/><path d="M432,244L333,312L511,333Z" fill="rgb(149,176,176)" stroke="rgb(149,176,176)" stroke-width="1.51"/><path d="M343,244L333,312L432,244Z" fill="rgb(149,179,179)" stroke="rgb(149,179,179)" stroke-width="1.51"/><path d="M811,1202L957,1174L854,1068Z" fill="rgb(125,194,194)" stroke="rgb(125,194,194)" stroke-width="1.51"/><path d="M1105,1070L1123,1186L1217,1067Z" fill="rgb(118,200,200)" stroke="rgb(118,200,200)" stroke-width="1.51"/><path d="M322,577L338,712L470,561Z" fill="rgb(147,171,171)" stroke="rgb(147,171,171)" stroke-width="1.51"/><path d="M722,1074L811,1202L854,1068Z" fill="rgb(125,196,196)" stroke="rgb(125,196,196)" stroke-width="1.51"/><path d="M474,1048L634,1085L579,924Z" fill="rgb(127,199,198)" stroke="rgb(127,199,198)" stroke-width="1.51"/><path d="M454,968L579,924L486,856Z" fill="rgb(133,192,191)" stroke="rgb(133,192,191)" stroke-width="1.51"/><path d="M433,69L432,244L577,106Z" fill="rgb(149,182,182)" stroke="rgb(149,182,182)" stroke-width="1.51"/><path d="M1223,-104L1321,-152L1096,-157Z" fill="rgb(143,187,187)" stroke="rgb(143,187,187)" stroke-width="1.51"/><path d="M1361,-4L1321,-152L1240,-37Z" fill="rgb(140,192,191)" stroke="rgb(140,192,191)" stroke-width="1.51"/><path d="M1533,15L1448,-27L1420,115Z" fill="rgb(136,197,197)" stroke="rgb(136,197,197)" stroke-width="1.51"/><path d="M1467,844L1589,865L1542,715Z" fill="rgb(122,196,195)" stroke="rgb(122,196,195)" stroke-width="1.51"/><path d="M1707,575L1594,507L1573,598Z" fill="rgb(134,180,179)" stroke="rgb(134,180,179)" stroke-width="1.51"/><path d="M1707,575L1688,462L1594,507Z" fill="rgb(133,181,181)" stroke="rgb(133,181,181)" stroke-width="1.51"/><path d="M1372,1080L1496,971L1332,957Z" fill="rgb(113,205,205)" stroke="rgb(113,205,205)" stroke-width="1.51"/><path d="M1372,1080L1332,957L1217,1067Z" fill="rgb(115,204,203)" stroke="rgb(115,204,203)" stroke-width="1.51"/><path d="M478,-17L433,69L577,106Z" fill="rgb(149,186,186)" stroke="rgb(149,186,186)" stroke-width="1.51"/><path d="M806,-138L679,-132L722,32Z" fill="rgb(149,182,182)" stroke="rgb(149,182,182)" stroke-width="1.51"/><path d="M566,-147L679,-132L806,-138Z" fill="rgb(149,184,184)" stroke="rgb(149,184,184)" stroke-width="1.51"/><path d="M478,-17L577,106L613,-32Z" fill="rgb(149,186,186)" stroke="rgb(149,186,186)" stroke-width="1.51"/><path d="M1603,313L1731,247L1602,246Z" fill="rgb(132,194,193)" stroke="rgb(132,194,193)" stroke-width="1.51"/><path d="M1594,507L1688,462L1603,313Z" fill="rgb(134,185,183)" stroke="rgb(134,185,183)" stroke-width="1.51"/><path d="M1707,575L1573,598L1725,711Z" fill="rgb(129,187,187)" stroke="rgb(129,187,187)" stroke-width="1.51"/><path d="M1295,1208L1372,1080L1217,1067Z" fill="rgb(111,207,207)" stroke="rgb(111,207,207)" stroke-width="1.51"/><path d="M1602,246L1604,150L1448,249Z" fill="rgb(135,192,191)" stroke="rgb(135,192,191)" stroke-width="1.51"/><path d="M1731,247L1604,150L1602,246Z" fill="rgb(131,197,195)" stroke="rgb(131,197,195)" stroke-width="1.51"/><path d="M957,1174L1123,1186L1105,1070Z" fill="rgb(122,196,196)" stroke="rgb(122,196,196)" stroke-width="1.51"/><path d="M1575,927L1589,865L1467,844Z" fill="rgb(117,202,201)" stroke="rgb(117,202,201)" stroke-width="1.51"/><path d="M384,879L454,968L486,856Z" fill="rgb(133,193,192)" stroke="rgb(133,193,192)" stroke-width="1.51"/><path d="M338,712L384,879L472,737Z" fill="rgb(140,184,183)" stroke="rgb(140,184,183)" stroke-width="1.51"/><path d="M566,-147L478,-17L613,-32Z" fill="rgb(149,188,187)" stroke="rgb(149,188,187)" stroke-width="1.51"/><path d="M1725,711L1573,598L1542,715Z" fill="rgb(128,189,188)" stroke="rgb(128,189,188)" stroke-width="1.51"/><path d="M1688,462L1698,348L1603,313Z" fill="rgb(132,189,188)" stroke="rgb(132,189,188)" stroke-width="1.51"/><path d="M1784,392L1698,348L1688,462Z" fill="rgb(131,190,189)" stroke="rgb(131,190,189)" stroke-width="1.51"/><path d="M1604,150L1533,15L1420,115Z" fill="rgb(134,197,196)" stroke="rgb(134,197,196)" stroke-width="1.51"/><path d="M1448,-27L1321,-152L1361,-4Z" fill="rgb(138,195,194)" stroke="rgb(138,195,194)" stroke-width="1.51"/><path d="M1487,-139L1321,-152L1448,-27Z" fill="rgb(137,197,196)" stroke="rgb(137,197,196)" stroke-width="1.51"/><path d="M1589,865L1725,711L1542,715Z" fill="rgb(122,196,196)" stroke="rgb(122,196,196)" stroke-width="1.51"/><path d="M1496,971L1575,927L1467,844Z" fill="rgb(115,203,203)" stroke="rgb(115,203,203)" stroke-width="1.51"/><path d="M1580,1064L1575,927L1496,971Z" fill="rgb(106,211,210)" stroke="rgb(106,211,210)" stroke-width="1.51"/><path d="M957,1174L1198,1255L1123,1186Z" fill="rgb(121,198,197)" stroke="rgb(121,198,197)" stroke-width="1.51"/><path d="M719,1224L811,1202L722,1074Z" fill="rgb(124,198,197)" stroke="rgb(124,198,197)" stroke-width="1.51"/><path d="M719,1224L722,1074L634,1085Z" fill="rgb(124,199,199)" stroke="rgb(124,199,199)" stroke-width="1.51"/><path d="M454,968L474,1048L579,924Z" fill="rgb(129,197,196)" stroke="rgb(129,197,196)" stroke-width="1.51"/><path d="M374,1087L474,1048L454,968Z" fill="rgb(125,203,203)" stroke="rgb(125,203,203)" stroke-width="1.51"/><path d="M333,312L224,338L367,439Z" fill="rgb(149,176,176)" stroke="rgb(149,176,176)" stroke-width="1.51"/><path d="M322,577L207,618L338,712Z" fill="rgb(146,175,175)" stroke="rgb(146,175,175)" stroke-width="1.51"/><path d="M343,244L255,277L333,312Z" fill="rgb(149,180,180)" stroke="rgb(149,180,180)" stroke-width="1.51"/><path d="M305,150L255,277L343,244Z" fill="rgb(149,183,183)" stroke="rgb(149,183,183)" stroke-width="1.51"/><path d="M305,150L432,244L433,69Z" fill="rgb(149,184,184)" stroke="rgb(149,184,184)" stroke-width="1.51"/><path d="M345,-51L305,150L433,69Z" fill="rgb(149,190,190)" stroke="rgb(149,190,190)" stroke-width="1.51"/><path d="M679,-132L566,-147L613,-32Z" fill="rgb(149,186,185)" stroke="rgb(149,186,185)" stroke-width="1.51"/><path d="M478,-17L345,-51L433,69Z" fill="rgb(148,191,191)" stroke="rgb(148,191,191)" stroke-width="1.51"/><path d="M358,-178L566,-147L806,-138Z" fill="rgb(149,187,187)" stroke="rgb(149,187,187)" stroke-width="1.51"/><path d="M1784,392L1731,247L1698,348Z" fill="rgb(130,195,194)" stroke="rgb(130,195,194)" stroke-width="1.51"/><path d="M1707,877L1725,711L1589,865Z" fill="rgb(116,203,202)" stroke="rgb(116,203,202)" stroke-width="1.51"/><path d="M1372,1080L1459,1103L1496,971Z" fill="rgb(106,211,211)" stroke="rgb(106,211,211)" stroke-width="1.51"/><path d="M1575,927L1707,877L1589,865Z" fill="rgb(112,207,206)" stroke="rgb(112,207,206)" stroke-width="1.51"/><path d="M1439,1242L1459,1103L1372,1080Z" fill="rgb(104,213,213)" stroke="rgb(104,213,213)" stroke-width="1.51"/><path d="M1198,1255L1295,1208L1123,1186Z" fill="rgb(115,203,202)" stroke="rgb(115,203,202)" stroke-width="1.51"/><path d="M1123,1186L1295,1208L1217,1067Z" fill="rgb(115,203,202)" stroke="rgb(115,203,202)" stroke-width="1.51"/><path d="M586,1204L719,1224L634,1085Z" fill="rgb(123,201,200)" stroke="rgb(123,201,200)" stroke-width="1.51"/><path d="M811,1202L1198,1255L957,1174Z" fill="rgb(124,193,193)" stroke="rgb(124,193,193)" stroke-width="1.51"/><path d="M255,277L224,338L333,312Z" fill="rgb(149,180,180)" stroke="rgb(149,180,180)" stroke-width="1.51"/><path d="M338,712L183,828L384,879Z" fill="rgb(138,189,188)" stroke="rgb(138,189,188)" stroke-width="1.51"/><path d="M142,451L224,338L70,356Z" fill="rgb(149,179,179)" stroke="rgb(149,179,179)" stroke-width="1.51"/><path d="M1698,348L1731,247L1603,313Z" fill="rgb(132,193,192)" stroke="rgb(132,193,192)" stroke-width="1.51"/><path d="M1604,150L1721,80L1533,15Z" fill="rgb(131,202,201)" stroke="rgb(131,202,201)" stroke-width="1.51"/><path d="M1784,392L1688,462L1829,473Z" fill="rgb(130,190,189)" stroke="rgb(130,190,189)" stroke-width="1.51"/><path d="M224,338L201,459L367,439Z" fill="rgb(149,174,174)" stroke="rgb(149,174,174)" stroke-width="1.51"/><path d="M719,1224L1198,1255L811,1202Z" fill="rgb(125,193,193)" stroke="rgb(125,193,193)" stroke-width="1.51"/><path d="M201,459L207,618L322,577Z" fill="rgb(149,170,169)" stroke="rgb(149,170,169)" stroke-width="1.51"/><path d="M384,879L325,989L454,968Z" fill="rgb(130,198,197)" stroke="rgb(130,198,197)" stroke-width="1.51"/><path d="M1829,473L1688,462L1707,575Z" fill="rgb(131,185,185)" stroke="rgb(131,185,185)" stroke-width="1.51"/><path d="M1725,711L1784,599L1707,575Z" fill="rgb(127,190,190)" stroke="rgb(127,190,190)" stroke-width="1.51"/><path d="M1566,-175L1487,-139L1533,15Z" fill="rgb(133,202,201)" stroke="rgb(133,202,201)" stroke-width="1.51"/><path d="M1533,15L1487,-139L1448,-27Z" fill="rgb(135,200,200)" stroke="rgb(135,200,200)" stroke-width="1.51"/><path d="M566,-147L471,-124L478,-17Z" fill="rgb(149,189,189)" stroke="rgb(149,189,189)" stroke-width="1.51"/><path d="M207,618L202,700L338,712Z" fill="rgb(144,179,179)" stroke="rgb(144,179,179)" stroke-width="1.51"/><path d="M111,729L202,700L207,618Z" fill="rgb(144,182,182)" stroke="rgb(144,182,182)" stroke-width="1.51"/><path d="M1676,989L1707,877L1575,927Z" fill="rgb(106,211,211)" stroke="rgb(106,211,211)" stroke-width="1.51"/><path d="M1725,711L1898,682L1784,599Z" fill="rgb(122,196,196)" stroke="rgb(122,196,196)" stroke-width="1.51"/><path d="M501,1208L586,1204L474,1048Z" fill="rgb(122,205,204)" stroke="rgb(122,205,204)" stroke-width="1.51"/><path d="M474,1048L586,1204L634,1085Z" fill="rgb(122,203,203)" stroke="rgb(122,203,203)" stroke-width="1.51"/><path d="M1533,1190L1580,1064L1459,1103Z" fill="rgb(98,218,217)" stroke="rgb(98,218,217)" stroke-width="1.51"/><path d="M1459,1103L1580,1064L1496,971Z" fill="rgb(103,214,214)" stroke="rgb(103,214,214)" stroke-width="1.51"/><path d="M183,828L325,989L384,879Z" fill="rgb(133,196,196)" stroke="rgb(133,196,196)" stroke-width="1.51"/><path d="M1707,877L1775,768L1725,711Z" fill="rgb(116,203,203)" stroke="rgb(116,203,203)" stroke-width="1.51"/><path d="M1937,465L1829,473L1946,583Z" fill="rgb(126,193,192)" stroke="rgb(126,193,192)" stroke-width="1.51"/><path d="M1784,599L1829,473L1707,575Z" fill="rgb(130,185,185)" stroke="rgb(130,185,185)" stroke-width="1.51"/><path d="M1839,217L1721,80L1731,247Z" fill="rgb(127,204,203)" stroke="rgb(127,204,203)" stroke-width="1.51"/><path d="M1839,217L1731,247L1784,392Z" fill="rgb(127,199,198)" stroke="rgb(127,199,198)" stroke-width="1.51"/><path d="M1731,247L1721,80L1604,150Z" fill="rgb(130,201,200)" stroke="rgb(130,201,200)" stroke-width="1.51"/><path d="M70,356L224,338L64,194Z" fill="rgb(149,185,185)" stroke="rgb(149,185,185)" stroke-width="1.51"/><path d="M471,-124L345,-51L478,-17Z" fill="rgb(148,191,191)" stroke="rgb(148,191,191)" stroke-width="1.51"/><path d="M1580,1064L1676,989L1575,927Z" fill="rgb(102,214,214)" stroke="rgb(102,214,214)" stroke-width="1.51"/><path d="M1707,877L1826,877L1775,768Z" fill="rgb(108,209,209)" stroke="rgb(108,209,209)" stroke-width="1.51"/><path d="M201,459L75,569L207,618Z" fill="rgb(149,171,171)" stroke="rgb(149,171,171)" stroke-width="1.51"/><path d="M224,338L142,451L201,459Z" fill="rgb(149,177,177)" stroke="rgb(149,177,177)" stroke-width="1.51"/><path d="M177,103L255,277L305,150Z" fill="rgb(149,187,187)" stroke="rgb(149,187,187)" stroke-width="1.51"/><path d="M325,989L374,1087L454,968Z" fill="rgb(126,203,203)" stroke="rgb(126,203,203)" stroke-width="1.51"/><path d="M586,1204L501,1208L719,1224Z" fill="rgb(123,202,201)" stroke="rgb(123,202,201)" stroke-width="1.51"/><path d="M374,1087L501,1208L474,1048Z" fill="rgb(121,207,206)" stroke="rgb(121,207,206)" stroke-width="1.51"/><path d="M111,729L183,828L202,700Z" fill="rgb(140,188,188)" stroke="rgb(140,188,188)" stroke-width="1.51"/><path d="M202,700L183,828L338,712Z" fill="rgb(141,186,185)" stroke="rgb(141,186,185)" stroke-width="1.51"/><path d="M325,989L237,1116L374,1087Z" fill="rgb(121,210,209)" stroke="rgb(121,210,209)" stroke-width="1.51"/><path d="M1295,1208L1439,1242L1372,1080Z" fill="rgb(107,210,210)" stroke="rgb(107,210,210)" stroke-width="1.51"/><path d="M1580,1064L1736,1083L1676,989Z" fill="rgb(92,221,221)" stroke="rgb(92,221,221)" stroke-width="1.51"/><path d="M1198,1255L1439,1242L1295,1208Z" fill="rgb(111,208,207)" stroke="rgb(111,208,207)" stroke-width="1.51"/><path d="M1721,80L1708,-4L1533,15Z" fill="rgb(129,206,206)" stroke="rgb(129,206,206)" stroke-width="1.51"/><path d="M1802,-1L1708,-4L1721,80Z" fill="rgb(125,211,210)" stroke="rgb(125,211,210)" stroke-width="1.51"/><path d="M1487,-139L1566,-175L1321,-152Z" fill="rgb(136,198,198)" stroke="rgb(136,198,198)" stroke-width="1.51"/><path d="M1321,-152L1566,-175L1096,-157Z" fill="rgb(140,193,192)" stroke="rgb(140,193,192)" stroke-width="1.51"/><path d="M1096,-157L358,-178L806,-138Z" fill="rgb(149,182,182)" stroke="rgb(149,182,182)" stroke-width="1.51"/><path d="M1708,-4L1566,-175L1533,15Z" fill="rgb(131,206,205)" stroke="rgb(131,206,205)" stroke-width="1.51"/><path d="M1439,1242L1533,1190L1459,1103Z" fill="rgb(101,215,215)" stroke="rgb(101,215,215)" stroke-width="1.51"/><path d="M1941,321L1839,217L1784,392Z" fill="rgb(125,201,200)" stroke="rgb(125,201,200)" stroke-width="1.51"/><path d="M187,-34L177,103L305,150Z" fill="rgb(149,193,193)" stroke="rgb(149,193,193)" stroke-width="1.51"/><path d="M75,569L111,729L207,618Z" fill="rgb(145,180,179)" stroke="rgb(145,180,179)" stroke-width="1.51"/><path d="M75,569L201,459L142,451Z" fill="rgb(149,174,174)" stroke="rgb(149,174,174)" stroke-width="1.51"/><path d="M-35,447L75,569L142,451Z" fill="rgb(149,176,176)" stroke="rgb(149,176,176)" stroke-width="1.51"/><path d="M1837,1001L1707,877L1676,989Z" fill="rgb(98,217,217)" stroke="rgb(98,217,217)" stroke-width="1.51"/><path d="M1837,1001L1826,877L1707,877Z" fill="rgb(100,216,216)" stroke="rgb(100,216,216)" stroke-width="1.51"/><path d="M1775,768L1898,682L1725,711Z" fill="rgb(118,201,201)" stroke="rgb(118,201,201)" stroke-width="1.51"/><path d="M1829,473L1937,465L1784,392Z" fill="rgb(127,194,193)" stroke="rgb(127,194,193)" stroke-width="1.51"/><path d="M471,-124L358,-178L345,-51Z" fill="rgb(148,192,192)" stroke="rgb(148,192,192)" stroke-width="1.51"/><path d="M125,15L139,98L177,103Z" fill="rgb(148,195,195)" stroke="rgb(148,195,195)" stroke-width="1.51"/><path d="M566,-147L358,-178L471,-124Z" fill="rgb(148,190,190)" stroke="rgb(148,190,190)" stroke-width="1.51"/><path d="M1566,-175L358,-178L1096,-157Z" fill="rgb(148,178,178)" stroke="rgb(148,178,178)" stroke-width="1.51"/><path d="M1933,825L1898,682L1775,768Z" fill="rgb(111,207,207)" stroke="rgb(111,207,207)" stroke-width="1.51"/><path d="M64,194L224,338L255,277Z" fill="rgb(149,184,184)" stroke="rgb(149,184,184)" stroke-width="1.51"/><path d="M177,103L64,194L255,277Z" fill="rgb(149,189,189)" stroke="rgb(149,189,189)" stroke-width="1.51"/><path d="M187,-34L305,150L345,-51Z" fill="rgb(148,195,194)" stroke="rgb(148,195,194)" stroke-width="1.51"/><path d="M1708,-4L1661,-175L1566,-175Z" fill="rgb(129,208,207)" stroke="rgb(129,208,207)" stroke-width="1.51"/><path d="M1839,217L1846,106L1721,80Z" fill="rgb(125,208,207)" stroke="rgb(125,208,207)" stroke-width="1.51"/><path d="M1912,68L1846,106L1839,217Z" fill="rgb(122,211,210)" stroke="rgb(122,211,210)" stroke-width="1.51"/><path d="M183,828L194,1005L325,989Z" fill="rgb(130,202,201)" stroke="rgb(130,202,201)" stroke-width="1.51"/><path d="M374,1087L320,1214L501,1208Z" fill="rgb(121,209,208)" stroke="rgb(121,209,208)" stroke-width="1.51"/><path d="M144,950L194,1005L183,828Z" fill="rgb(130,203,202)" stroke="rgb(130,203,202)" stroke-width="1.51"/><path d="M1849,-121L1661,-175L1708,-4Z" fill="rgb(125,212,211)" stroke="rgb(125,212,211)" stroke-width="1.51"/><path d="M1566,-175L1661,-175L358,-178Z" fill="rgb(144,186,186)" stroke="rgb(144,186,186)" stroke-width="1.51"/><path d="M1946,583L1829,473L1784,599Z" fill="rgb(127,190,189)" stroke="rgb(127,190,189)" stroke-width="1.51"/><path d="M1846,106L1802,-1L1721,80Z" fill="rgb(124,211,210)" stroke="rgb(124,211,210)" stroke-width="1.51"/><path d="M1676,1233L1580,1064L1533,1190Z" fill="rgb(93,221,220)" stroke="rgb(93,221,220)" stroke-width="1.51"/><path d="M1676,1233L1736,1083L1580,1064Z" fill="rgb(87,224,224)" stroke="rgb(87,224,224)" stroke-width="1.51"/><path d="M-60,708L90,819L111,729Z" fill="rgb(139,191,191)" stroke="rgb(139,191,191)" stroke-width="1.51"/><path d="M111,729L90,819L183,828Z" fill="rgb(138,193,192)" stroke="rgb(138,193,192)" stroke-width="1.51"/><path d="M183,-164L187,-34L345,-51Z" fill="rgb(148,197,197)" stroke="rgb(148,197,197)" stroke-width="1.51"/><path d="M90,819L144,950L183,828Z" fill="rgb(134,199,198)" stroke="rgb(134,199,198)" stroke-width="1.51"/><path d="M1898,682L1946,583L1784,599Z" fill="rgb(122,196,196)" stroke="rgb(122,196,196)" stroke-width="1.51"/><path d="M2056,726L1946,583L1898,682Z" fill="rgb(117,202,201)" stroke="rgb(117,202,201)" stroke-width="1.51"/><path d="M1937,465L1941,321L1784,392Z" fill="rgb(125,198,197)" stroke="rgb(125,198,197)" stroke-width="1.51"/><path d="M1846,106L1912,68L1802,-1Z" fill="rgb(121,214,214)" stroke="rgb(121,214,214)" stroke-width="1.51"/><path d="M2030,344L1941,321L1937,465Z" fill="rgb(123,200,200)" stroke="rgb(123,200,200)" stroke-width="1.51"/><path d="M70,356L-10,383L142,451Z" fill="rgb(149,181,181)" stroke="rgb(149,181,181)" stroke-width="1.51"/><path d="M139,98L64,194L177,103Z" fill="rgb(149,193,193)" stroke="rgb(149,193,193)" stroke-width="1.51"/><path d="M-10,138L64,194L139,98Z" fill="rgb(149,194,194)" stroke="rgb(149,194,194)" stroke-width="1.51"/><path d="M211,1244L237,1116L89,1122Z" fill="rgb(118,215,214)" stroke="rgb(118,215,214)" stroke-width="1.51"/><path d="M194,1005L237,1116L325,989Z" fill="rgb(123,209,209)" stroke="rgb(123,209,209)" stroke-width="1.51"/><path d="M1941,321L1943,271L1839,217Z" fill="rgb(122,206,205)" stroke="rgb(122,206,205)" stroke-width="1.51"/><path d="M2030,344L1943,271L1941,321Z" fill="rgb(122,203,203)" stroke="rgb(122,203,203)" stroke-width="1.51"/><path d="M501,1208L211,1244L719,1224Z" fill="rgb(121,206,206)" stroke="rgb(121,206,206)" stroke-width="1.51"/><path d="M719,1224L211,1244L1198,1255Z" fill="rgb(124,199,198)" stroke="rgb(124,199,198)" stroke-width="1.51"/><path d="M237,1116L320,1214L374,1087Z" fill="rgb(120,211,211)" stroke="rgb(120,211,211)" stroke-width="1.51"/><path d="M187,-34L125,15L177,103Z" fill="rgb(148,197,197)" stroke="rgb(148,197,197)" stroke-width="1.51"/><path d="M82,-144L125,15L187,-34Z" fill="rgb(148,200,200)" stroke="rgb(148,200,200)" stroke-width="1.51"/><path d="M1826,877L1933,825L1775,768Z" fill="rgb(106,211,211)" stroke="rgb(106,211,211)" stroke-width="1.51"/><path d="M1736,1083L1837,1001L1676,989Z" fill="rgb(88,223,223)" stroke="rgb(88,223,223)" stroke-width="1.51"/><path d="M64,194L18,266L70,356Z" fill="rgb(148,188,188)" stroke="rgb(148,188,188)" stroke-width="1.51"/><path d="M75,569L-65,634L111,729Z" fill="rgb(145,183,183)" stroke="rgb(145,183,183)" stroke-width="1.51"/><path d="M-10,138L18,266L64,194Z" fill="rgb(148,193,193)" stroke="rgb(148,193,193)" stroke-width="1.51"/><path d="M1933,996L1933,825L1826,877Z" fill="rgb(94,220,220)" stroke="rgb(94,220,220)" stroke-width="1.51"/><path d="M18,266L-10,383L70,356Z" fill="rgb(149,185,185)" stroke="rgb(149,185,185)" stroke-width="1.51"/><path d="M1439,1242L1676,1233L1533,1190Z" fill="rgb(96,219,218)" stroke="rgb(96,219,218)" stroke-width="1.51"/><path d="M1736,1083L1777,1131L1837,1001Z" fill="rgb(78,229,229)" stroke="rgb(78,229,229)" stroke-width="1.51"/><path d="M1973,1257L1676,1233L1439,1242Z" fill="rgb(85,225,225)" stroke="rgb(85,225,225)" stroke-width="1.51"/><path d="M1837,1001L1933,996L1826,877Z" fill="rgb(89,223,223)" stroke="rgb(89,223,223)" stroke-width="1.51"/><path d="M1676,1233L1777,1131L1736,1083Z" fill="rgb(82,227,227)" stroke="rgb(82,227,227)" stroke-width="1.51"/><path d="M1943,271L1912,68L1839,217Z" fill="rgb(121,210,209)" stroke="rgb(121,210,209)" stroke-width="1.51"/><path d="M1802,-1L1849,-121L1708,-4Z" fill="rgb(123,214,213)" stroke="rgb(123,214,213)" stroke-width="1.51"/><path d="M-111,440L-35,447L-10,383Z" fill="rgb(149,182,182)" stroke="rgb(149,182,182)" stroke-width="1.51"/><path d="M-10,383L-35,447L142,451Z" fill="rgb(149,181,180)" stroke="rgb(149,181,180)" stroke-width="1.51"/><path d="M19,2L-10,138L139,98Z" fill="rgb(148,198,198)" stroke="rgb(148,198,198)" stroke-width="1.51"/><path d="M358,-178L183,-164L345,-51Z" fill="rgb(148,195,195)" stroke="rgb(148,195,195)" stroke-width="1.51"/><path d="M2071,87L1978,17L1912,68Z" fill="rgb(118,217,217)" stroke="rgb(118,217,217)" stroke-width="1.51"/><path d="M2047,491L2030,344L1937,465Z" fill="rgb(124,197,197)" stroke="rgb(124,197,197)" stroke-width="1.51"/><path d="M2047,491L1937,465L1946,583Z" fill="rgb(125,193,193)" stroke="rgb(125,193,193)" stroke-width="1.51"/><path d="M1978,17L1849,-121L1802,-1Z" fill="rgb(118,218,218)" stroke="rgb(118,218,218)" stroke-width="1.51"/><path d="M1978,17L1802,-1L1912,68Z" fill="rgb(118,218,217)" stroke="rgb(118,218,217)" stroke-width="1.51"/><path d="M2083,638L2047,491L1946,583Z" fill="rgb(123,194,194)" stroke="rgb(123,194,194)" stroke-width="1.51"/><path d="M19,2L139,98L125,15Z" fill="rgb(148,199,199)" stroke="rgb(148,199,199)" stroke-width="1.51"/><path d="M-120,348L-111,440L-10,383Z" fill="rgb(149,183,183)" stroke="rgb(149,183,183)" stroke-width="1.51"/><path d="M-132,575L-65,634L-35,447Z" fill="rgb(149,177,177)" stroke="rgb(149,177,177)" stroke-width="1.51"/><path d="M-35,447L-65,634L75,569Z" fill="rgb(149,177,177)" stroke="rgb(149,177,177)" stroke-width="1.51"/><path d="M90,819L-41,832L144,950Z" fill="rgb(134,201,200)" stroke="rgb(134,201,200)" stroke-width="1.51"/><path d="M89,1122L237,1116L194,1005Z" fill="rgb(118,215,215)" stroke="rgb(118,215,215)" stroke-width="1.51"/><path d="M1933,825L2056,726L1898,682Z" fill="rgb(110,208,208)" stroke="rgb(110,208,208)" stroke-width="1.51"/><path d="M1960,1082L1933,996L1837,1001Z" fill="rgb(73,231,231)" stroke="rgb(73,231,231)" stroke-width="1.51"/><path d="M1960,1082L1837,1001L1777,1131Z" fill="rgb(70,232,232)" stroke="rgb(70,232,232)" stroke-width="1.51"/><path d="M-65,634L-60,708L111,729Z" fill="rgb(143,188,188)" stroke="rgb(143,188,188)" stroke-width="1.51"/><path d="M237,1116L211,1244L320,1214Z" fill="rgb(120,213,212)" stroke="rgb(120,213,212)" stroke-width="1.51"/><path d="M320,1214L211,1244L501,1208Z" fill="rgb(120,210,210)" stroke="rgb(120,210,210)" stroke-width="1.51"/><path d="M89,1122L194,1005L144,950Z" fill="rgb(123,212,211)" stroke="rgb(123,212,211)" stroke-width="1.51"/><path d="M-60,708L-41,832L90,819Z" fill="rgb(138,196,195)" stroke="rgb(138,196,195)" stroke-width="1.51"/><path d="M82,-144L19,2L125,15Z" fill="rgb(148,202,201)" stroke="rgb(148,202,201)" stroke-width="1.51"/><path d="M2033,830L2056,726L1933,825Z" fill="rgb(105,212,212)" stroke="rgb(105,212,212)" stroke-width="1.51"/><path d="M1933,996L2033,830L1933,825Z" fill="rgb(95,220,219)" stroke="rgb(95,220,219)" stroke-width="1.51"/><path d="M2071,87L1912,68L1943,271Z" fill="rgb(120,213,212)" stroke="rgb(120,213,212)" stroke-width="1.51"/><path d="M-63,988L89,1122L144,950Z" fill="rgb(122,214,213)" stroke="rgb(122,214,213)" stroke-width="1.51"/><path d="M-120,348L18,266L-134,271Z" fill="rgb(149,188,188)" stroke="rgb(149,188,188)" stroke-width="1.51"/><path d="M-120,348L-10,383L18,266Z" fill="rgb(149,186,186)" stroke="rgb(149,186,186)" stroke-width="1.51"/><path d="M-65,634L-122,687L-60,708Z" fill="rgb(143,187,186)" stroke="rgb(143,187,186)" stroke-width="1.51"/><path d="M-60,708L-122,687L-41,832Z" fill="rgb(140,192,192)" stroke="rgb(140,192,192)" stroke-width="1.51"/><path d="M2075,1135L2083,638L2056,726Z" fill="rgb(101,216,215)" stroke="rgb(101,216,215)" stroke-width="1.51"/><path d="M2056,726L2083,638L1946,583Z" fill="rgb(118,201,200)" stroke="rgb(118,201,200)" stroke-width="1.51"/><path d="M2047,491L2084,262L2030,344Z" fill="rgb(123,201,200)" stroke="rgb(123,201,200)" stroke-width="1.51"/><path d="M2030,344L2084,262L1943,271Z" fill="rgb(122,205,204)" stroke="rgb(122,205,204)" stroke-width="1.51"/><path d="M183,-164L82,-144L187,-34Z" fill="rgb(148,199,199)" stroke="rgb(148,199,199)" stroke-width="1.51"/><path d="M1933,996L2022,999L2033,830Z" fill="rgb(87,224,224)" stroke="rgb(87,224,224)" stroke-width="1.51"/><path d="M1676,1233L1846,1209L1777,1131Z" fill="rgb(79,229,228)" stroke="rgb(79,229,228)" stroke-width="1.51"/><path d="M-134,271L18,266L-10,138Z" fill="rgb(148,192,192)" stroke="rgb(148,192,192)" stroke-width="1.51"/><path d="M2083,638L2084,262L2047,491Z" fill="rgb(125,196,195)" stroke="rgb(125,196,195)" stroke-width="1.51"/><path d="M-120,348L-132,575L-111,440Z" fill="rgb(149,180,180)" stroke="rgb(149,180,180)" stroke-width="1.51"/><path d="M-111,440L-132,575L-35,447Z" fill="rgb(149,178,178)" stroke="rgb(149,178,178)" stroke-width="1.51"/><path d="M-132,575L-122,687L-65,634Z" fill="rgb(146,183,183)" stroke="rgb(146,183,183)" stroke-width="1.51"/><path d="M-41,832L-63,988L144,950Z" fill="rgb(129,207,206)" stroke="rgb(129,207,206)" stroke-width="1.51"/><path d="M1846,1209L1960,1082L1777,1131Z" fill="rgb(68,233,233)" stroke="rgb(68,233,233)" stroke-width="1.51"/><path d="M1978,17L1949,-130L1849,-121Z" fill="rgb(116,220,220)" stroke="rgb(116,220,220)" stroke-width="1.51"/><path d="M1849,-121L1949,-130L1661,-175Z" fill="rgb(121,216,215)" stroke="rgb(121,216,215)" stroke-width="1.51"/><path d="M2055,-7L1949,-130L1978,17Z" fill="rgb(116,220,220)" stroke="rgb(116,220,220)" stroke-width="1.51"/><path d="M-120,348L-134,271L-132,575Z" fill="rgb(149,183,183)" stroke="rgb(149,183,183)" stroke-width="1.51"/><path d="M-135,74L-134,271L-10,138Z" fill="rgb(148,195,195)" stroke="rgb(148,195,195)" stroke-width="1.51"/><path d="M-135,74L-10,138L-122,20Z" fill="rgb(148,200,200)" stroke="rgb(148,200,200)" stroke-width="1.51"/><path d="M1960,1082L2022,999L1933,996Z" fill="rgb(72,231,231)" stroke="rgb(72,231,231)" stroke-width="1.51"/><path d="M2033,830L2075,1135L2056,726Z" fill="rgb(93,221,220)" stroke="rgb(93,221,220)" stroke-width="1.51"/><path d="M2084,262L2071,87L1943,271Z" fill="rgb(121,209,209)" stroke="rgb(121,209,209)" stroke-width="1.51"/><path d="M89,1122L79,1232L211,1244Z" fill="rgb(118,217,216)" stroke="rgb(118,217,216)" stroke-width="1.51"/><path d="M-113,954L-63,988L-41,832Z" fill="rgb(129,208,207)" stroke="rgb(129,208,207)" stroke-width="1.51"/><path d="M-63,988L6,1127L89,1122Z" fill="rgb(117,220,219)" stroke="rgb(117,220,219)" stroke-width="1.51"/><path d="M6,1127L79,1232L89,1122Z" fill="rgb(117,219,218)" stroke="rgb(117,219,218)" stroke-width="1.51"/><path d="M2071,87L2055,-7L1978,17Z" fill="rgb(117,219,218)" stroke="rgb(117,219,218)" stroke-width="1.51"/><path d="M82,-144L-19,-118L19,2Z" fill="rgb(147,203,203)" stroke="rgb(147,203,203)" stroke-width="1.51"/><path d="M-163,892L-41,832L-122,687Z" fill="rgb(137,197,197)" stroke="rgb(137,197,197)" stroke-width="1.51"/><path d="M-163,892L-113,954L-41,832Z" fill="rgb(131,205,204)" stroke="rgb(131,205,204)" stroke-width="1.51"/><path d="M-139,1065L-33,1181L6,1127Z" fill="rgb(116,220,220)" stroke="rgb(116,220,220)" stroke-width="1.51"/><path d="M-122,20L-10,138L19,2Z" fill="rgb(148,201,201)" stroke="rgb(148,201,201)" stroke-width="1.51"/><path d="M-19,-118L-122,20L19,2Z" fill="rgb(147,204,204)" stroke="rgb(147,204,204)" stroke-width="1.51"/><path d="M-139,1065L6,1127L-63,988Z" fill="rgb(118,219,218)" stroke="rgb(118,219,218)" stroke-width="1.51"/><path d="M6,1127L-33,1181L79,1232Z" fill="rgb(116,220,219)" stroke="rgb(116,220,219)" stroke-width="1.51"/><path d="M-132,575L-163,892L-122,687Z" fill="rgb(142,190,190)" stroke="rgb(142,190,190)" stroke-width="1.51"/><path d="M-134,271L-163,892L-132,575Z" fill="rgb(148,179,179)" stroke="rgb(148,179,179)" stroke-width="1.51"/><path d="M-155,-149L-163,892L-134,271Z" fill="rgb(149,186,186)" stroke="rgb(149,186,186)" stroke-width="1.51"/><path d="M-139,1065L-63,988L-113,954Z" fill="rgb(123,214,213)" stroke="rgb(123,214,213)" stroke-width="1.51"/><path d="M1960,1082L2075,1135L2022,999Z" fill="rgb(62,236,235)" stroke="rgb(62,236,235)" stroke-width="1.51"/><path d="M1846,1209L1973,1257L1960,1082Z" fill="rgb(60,236,236)" stroke="rgb(60,236,236)" stroke-width="1.51"/><path d="M1676,1233L1973,1257L1846,1209Z" fill="rgb(71,232,232)" stroke="rgb(71,232,232)" stroke-width="1.51"/><path d="M1198,1255L1973,1257L1439,1242Z" fill="rgb(97,218,218)" stroke="rgb(97,218,218)" stroke-width="1.51"/><path d="M1973,1257L2021,1214L1960,1082Z" fill="rgb(60,236,236)" stroke="rgb(60,236,236)" stroke-width="1.51"/><path d="M2022,999L2075,1135L2033,830Z" fill="rgb(79,228,228)" stroke="rgb(79,228,228)" stroke-width="1.51"/><path d="M2021,1214L2075,1135L1960,1082Z" fill="rgb(60,236,236)" stroke="rgb(60,236,236)" stroke-width="1.51"/><path d="M-163,892L-139,1065L-113,954Z" fill="rgb(125,211,211)" stroke="rgb(125,211,211)" stroke-width="1.51"/><path d="M2071,87L2102,-138L2055,-7Z" fill="rgb(116,220,220)" stroke="rgb(116,220,220)" stroke-width="1.51"/><path d="M2055,-7L2102,-138L1949,-130Z" fill="rgb(116,220,220)" stroke="rgb(116,220,220)" stroke-width="1.51"/><path d="M1949,-130L2102,-138L1661,-175Z" fill="rgb(117,220,219)" stroke="rgb(117,220,219)" stroke-width="1.51"/><path d="M2084,262L2102,-138L2071,87Z" fill="rgb(118,217,216)" stroke="rgb(118,217,216)" stroke-width="1.51"/><path d="M2083,638L2102,-138L2084,262Z" fill="rgb(121,207,206)" stroke="rgb(121,207,206)" stroke-width="1.51"/><path d="M2075,1135L2102,-138L2083,638Z" fill="rgb(125,192,192)" stroke="rgb(125,192,192)" stroke-width="1.51"/><path d="M-135,74L-155,-149L-134,271Z" fill="rgb(148,200,200)" stroke="rgb(148,200,200)" stroke-width="1.51"/><path d="M-122,20L-155,-149L-135,74Z" fill="rgb(147,204,204)" stroke="rgb(147,204,204)" stroke-width="1.51"/><path d="M-19,-118L-155,-149L-122,20Z" fill="rgb(147,204,204)" stroke="rgb(147,204,204)" stroke-width="1.51"/><path d="M82,-144L-155,-149L-19,-118Z" fill="rgb(147,204,204)" stroke="rgb(147,204,204)" stroke-width="1.51"/><path d="M183,-164L-155,-149L82,-144Z" fill="rgb(147,203,203)" stroke="rgb(147,203,203)" stroke-width="1.51"/><path d="M358,-178L-155,-149L183,-164Z" fill="rgb(148,200,200)" stroke="rgb(148,200,200)" stroke-width="1.51"/><path d="M-163,892L-189,1215L-139,1065Z" fill="rgb(118,218,218)" stroke="rgb(118,218,218)" stroke-width="1.51"/><path d="M-139,1065L-189,1215L-33,1181Z" fill="rgb(116,220,220)" stroke="rgb(116,220,220)" stroke-width="1.51"/><path d="M-33,1181L-189,1215L79,1232Z" fill="rgb(116,220,220)" stroke="rgb(116,220,220)" stroke-width="1.51"/><path d="M79,1232L-189,1215L211,1244Z" fill="rgb(116,219,219)" stroke="rgb(116,219,219)" stroke-width="1.51"/><path d="M-155,-149L-189,1215L-163,892Z" fill="rgb(144,185,185)" stroke="rgb(144,185,185)" stroke-width="1.51"/></svg>