<svg xmlns="http://www.w3.org/2000/svg" width="1920" height="1080"><path d="M882,504L882,596L905,619Z" fill="rgb(186,194,213)" stroke="rgb(186,194,213)" stroke-width="1.51"/><path d="M905,619L1047,490L882,504Z" fill="rgb(186,195,213)" stroke="rgb(186,195,213)" stroke-width="1.51"/><path d="M905,619L1046,621L1047,490Z" fill="rgb(184,190,205)" stroke="rgb(184,190,205)" stroke-width="1.51"/><path d="M905,619L926,666L1046,621Z" fill="rgb(182,188,201)" stroke="rgb(182,188,201)" stroke-width="1.51"/><path d="M850,739L926,666L905,619Z" fill="rgb(182,188,201)" stroke="rgb(182,188,201)" stroke-width="1.51"/><path d="M1047,490L941,423L882,504Z" fill="rgb(189,198,220)" stroke="rgb(189,198,220)" stroke-width="1.51"/><path d="M941,423L880,396L882,504Z" fill="rgb(191,203,228)" stroke="rgb(191,203,228)" stroke-width="1.51"/><path d="M882,504L752,610L882,596Z" fill="rgb(187,196,216)" stroke="rgb(187,196,216)" stroke-width="1.51"/><path d="M926,666L1096,696L1046,621Z" fill="rgb(180,184,194)" stroke="rgb(180,184,194)" stroke-width="1.51"/><path d="M1278,593L1252,442L1047,490Z" fill="rgb(182,187,201)" stroke="rgb(182,187,201)" stroke-width="1.51"/><path d="M667,467L752,610L882,504Z" fill="rgb(191,202,226)" stroke="rgb(191,202,226)" stroke-width="1.51"/><path d="M882,596L850,739L905,619Z" fill="rgb(183,190,205)" stroke="rgb(183,190,205)" stroke-width="1.51"/><path d="M752,610L850,739L882,596Z" fill="rgb(184,192,208)" stroke="rgb(184,192,208)" stroke-width="1.51"/><path d="M926,666L977,867L1096,696Z" fill="rgb(179,183,191)" stroke="rgb(179,183,191)" stroke-width="1.51"/><path d="M1047,490L977,337L941,423Z" fill="rgb(190,201,225)" stroke="rgb(190,201,225)" stroke-width="1.51"/><path d="M941,423L977,337L880,396Z" fill="rgb(192,205,232)" stroke="rgb(192,205,232)" stroke-width="1.51"/><path d="M1047,490L1043,321L977,337Z" fill="rgb(190,202,227)" stroke="rgb(190,202,227)" stroke-width="1.51"/><path d="M1217,334L1043,321L1047,490Z" fill="rgb(188,199,222)" stroke="rgb(188,199,222)" stroke-width="1.51"/><path d="M1096,696L1149,699L1046,621Z" fill="rgb(178,180,188)" stroke="rgb(178,180,188)" stroke-width="1.51"/><path d="M1023,874L1149,699L1096,696Z" fill="rgb(177,182,187)" stroke="rgb(177,182,187)" stroke-width="1.51"/><path d="M752,610L731,714L850,739Z" fill="rgb(184,191,207)" stroke="rgb(184,191,207)" stroke-width="1.51"/><path d="M880,396L667,467L882,504Z" fill="rgb(192,205,232)" stroke="rgb(192,205,232)" stroke-width="1.51"/><path d="M752,610L576,638L731,714Z" fill="rgb(187,197,217)" stroke="rgb(187,197,217)" stroke-width="1.51"/><path d="M719,292L667,467L880,396Z" fill="rgb(196,212,244)" stroke="rgb(196,212,244)" stroke-width="1.51"/><path d="M850,739L977,867L926,666Z" fill="rgb(181,188,198)" stroke="rgb(181,188,198)" stroke-width="1.51"/><path d="M862,889L977,867L850,739Z" fill="rgb(185,196,208)" stroke="rgb(185,196,208)" stroke-width="1.51"/><path d="M1278,593L1047,490L1046,621Z" fill="rgb(181,186,198)" stroke="rgb(181,186,198)" stroke-width="1.51"/><path d="M1043,321L929,191L977,337Z" fill="rgb(187,203,232)" stroke="rgb(187,203,232)" stroke-width="1.51"/><path d="M856,191L719,292L880,396Z" fill="rgb(191,209,243)" stroke="rgb(191,209,243)" stroke-width="1.51"/><path d="M1217,334L1095,261L1043,321Z" fill="rgb(186,198,223)" stroke="rgb(186,198,223)" stroke-width="1.51"/><path d="M1149,699L1278,593L1046,621Z" fill="rgb(178,181,188)" stroke="rgb(178,181,188)" stroke-width="1.51"/><path d="M1252,822L1266,638L1149,699Z" fill="rgb(173,173,174)" stroke="rgb(173,173,174)" stroke-width="1.51"/><path d="M1266,638L1278,593L1149,699Z" fill="rgb(175,178,182)" stroke="rgb(175,178,182)" stroke-width="1.51"/><path d="M977,867L1023,874L1096,696Z" fill="rgb(181,190,197)" stroke="rgb(181,190,197)" stroke-width="1.51"/><path d="M1252,442L1217,334L1047,490Z" fill="rgb(186,194,212)" stroke="rgb(186,194,212)" stroke-width="1.51"/><path d="M856,191L880,396L977,337Z" fill="rgb(190,206,237)" stroke="rgb(190,206,237)" stroke-width="1.51"/><path d="M811,924L862,889L718,886Z" fill="rgb(190,208,223)" stroke="rgb(190,208,223)" stroke-width="1.51"/><path d="M977,867L927,951L1023,874Z" fill="rgb(186,201,211)" stroke="rgb(186,201,211)" stroke-width="1.51"/><path d="M1252,442L1284,436L1217,334Z" fill="rgb(184,192,209)" stroke="rgb(184,192,209)" stroke-width="1.51"/><path d="M1278,593L1284,436L1252,442Z" fill="rgb(180,186,198)" stroke="rgb(180,186,198)" stroke-width="1.51"/><path d="M1095,261L929,191L1043,321Z" fill="rgb(185,200,229)" stroke="rgb(185,200,229)" stroke-width="1.51"/><path d="M929,191L856,191L977,337Z" fill="rgb(185,203,236)" stroke="rgb(185,203,236)" stroke-width="1.51"/><path d="M667,467L572,539L752,610Z" fill="rgb(192,205,232)" stroke="rgb(192,205,232)" stroke-width="1.51"/><path d="M718,886L862,889L850,739Z" fill="rgb(187,200,215)" stroke="rgb(187,200,215)" stroke-width="1.51"/><path d="M547,404L572,539L667,467Z" fill="rgb(194,209,242)" stroke="rgb(194,209,242)" stroke-width="1.51"/><path d="M719,292L669,296L667,467Z" fill="rgb(198,216,252)" stroke="rgb(198,216,252)" stroke-width="1.51"/><path d="M735,141L669,296L719,292Z" fill="rgb(190,211,251)" stroke="rgb(190,211,251)" stroke-width="1.51"/><path d="M572,539L576,638L752,610Z" fill="rgb(190,202,227)" stroke="rgb(190,202,227)" stroke-width="1.51"/><path d="M718,886L850,739L731,714Z" fill="rgb(185,196,211)" stroke="rgb(185,196,211)" stroke-width="1.51"/><path d="M862,889L927,951L977,867Z" fill="rgb(187,203,215)" stroke="rgb(187,203,215)" stroke-width="1.51"/><path d="M811,924L927,951L862,889Z" fill="rgb(189,208,221)" stroke="rgb(189,208,221)" stroke-width="1.51"/><path d="M1274,953L1252,822L1023,874Z" fill="rgb(181,191,195)" stroke="rgb(181,191,195)" stroke-width="1.51"/><path d="M1023,874L1252,822L1149,699Z" fill="rgb(178,184,189)" stroke="rgb(178,184,189)" stroke-width="1.51"/><path d="M1266,638L1381,699L1278,593Z" fill="rgb(175,177,181)" stroke="rgb(175,177,181)" stroke-width="1.51"/><path d="M633,838L718,886L731,714Z" fill="rgb(188,202,220)" stroke="rgb(188,202,220)" stroke-width="1.51"/><path d="M1284,436L1343,389L1217,334Z" fill="rgb(185,192,209)" stroke="rgb(185,192,209)" stroke-width="1.51"/><path d="M1217,334L1262,225L1095,261Z" fill="rgb(182,194,218)" stroke="rgb(182,194,218)" stroke-width="1.51"/><path d="M1417,401L1343,389L1284,436Z" fill="rgb(185,195,211)" stroke="rgb(185,195,211)" stroke-width="1.51"/><path d="M1434,558L1284,436L1278,593Z" fill="rgb(181,186,196)" stroke="rgb(181,186,196)" stroke-width="1.51"/><path d="M567,765L633,838L731,714Z" fill="rgb(188,200,219)" stroke="rgb(188,200,219)" stroke-width="1.51"/><path d="M669,296L547,404L667,467Z" fill="rgb(198,216,251)" stroke="rgb(198,216,251)" stroke-width="1.51"/><path d="M572,539L468,598L576,638Z" fill="rgb(187,200,227)" stroke="rgb(187,200,227)" stroke-width="1.51"/><path d="M1252,822L1308,805L1266,638Z" fill="rgb(173,174,175)" stroke="rgb(173,174,175)" stroke-width="1.51"/><path d="M1274,953L1308,805L1252,822Z" fill="rgb(177,185,187)" stroke="rgb(177,185,187)" stroke-width="1.51"/><path d="M466,747L567,765L576,638Z" fill="rgb(182,192,213)" stroke="rgb(182,192,213)" stroke-width="1.51"/><path d="M576,638L567,765L731,714Z" fill="rgb(186,195,214)" stroke="rgb(186,195,214)" stroke-width="1.51"/><path d="M856,191L735,141L719,292Z" fill="rgb(187,208,246)" stroke="rgb(187,208,246)" stroke-width="1.51"/><path d="M929,191L902,103L856,191Z" fill="rgb(181,202,238)" stroke="rgb(181,202,238)" stroke-width="1.51"/><path d="M1036,60L902,103L929,191Z" fill="rgb(177,198,233)" stroke="rgb(177,198,233)" stroke-width="1.51"/><path d="M1036,60L929,191L1095,261Z" fill="rgb(180,197,229)" stroke="rgb(180,197,229)" stroke-width="1.51"/><path d="M1343,389L1262,225L1217,334Z" fill="rgb(183,193,213)" stroke="rgb(183,193,213)" stroke-width="1.51"/><path d="M1308,805L1381,699L1266,638Z" fill="rgb(173,173,174)" stroke="rgb(173,173,174)" stroke-width="1.51"/><path d="M902,103L862,100L856,191Z" fill="rgb(179,202,239)" stroke="rgb(179,202,239)" stroke-width="1.51"/><path d="M539,232L504,392L547,404Z" fill="rgb(194,215,255)" stroke="rgb(194,215,255)" stroke-width="1.51"/><path d="M862,100L735,141L856,191Z" fill="rgb(182,204,242)" stroke="rgb(182,204,242)" stroke-width="1.51"/><path d="M547,404L432,455L572,539Z" fill="rgb(191,208,242)" stroke="rgb(191,208,242)" stroke-width="1.51"/><path d="M539,232L547,404L669,296Z" fill="rgb(194,215,255)" stroke="rgb(194,215,255)" stroke-width="1.51"/><path d="M1455,819L1411,669L1381,699Z" fill="rgb(175,180,180)" stroke="rgb(175,180,180)" stroke-width="1.51"/><path d="M1381,699L1411,669L1278,593Z" fill="rgb(176,180,184)" stroke="rgb(176,180,184)" stroke-width="1.51"/><path d="M927,951L1025,1021L1023,874Z" fill="rgb(187,205,216)" stroke="rgb(187,205,216)" stroke-width="1.51"/><path d="M986,1041L1025,1021L927,951Z" fill="rgb(190,212,223)" stroke="rgb(190,212,223)" stroke-width="1.51"/><path d="M986,1041L927,951L886,1091Z" fill="rgb(191,216,229)" stroke="rgb(191,216,229)" stroke-width="1.51"/><path d="M1411,669L1434,558L1278,593Z" fill="rgb(178,184,190)" stroke="rgb(178,184,190)" stroke-width="1.51"/><path d="M1343,389L1382,252L1262,225Z" fill="rgb(182,195,215)" stroke="rgb(182,195,215)" stroke-width="1.51"/><path d="M432,455L468,598L572,539Z" fill="rgb(187,203,235)" stroke="rgb(187,203,235)" stroke-width="1.51"/><path d="M1461,508L1417,401L1284,436Z" fill="rgb(185,195,209)" stroke="rgb(185,195,209)" stroke-width="1.51"/><path d="M672,1001L811,924L718,886Z" fill="rgb(192,214,232)" stroke="rgb(192,214,232)" stroke-width="1.51"/><path d="M886,1091L927,951L811,924Z" fill="rgb(191,214,229)" stroke="rgb(191,214,229)" stroke-width="1.51"/><path d="M1262,225L1166,106L1095,261Z" fill="rgb(178,193,219)" stroke="rgb(178,193,219)" stroke-width="1.51"/><path d="M902,103L855,-52L862,100Z" fill="rgb(174,199,239)" stroke="rgb(174,199,239)" stroke-width="1.51"/><path d="M1209,-49L1166,106L1285,-37Z" fill="rgb(165,184,216)" stroke="rgb(165,184,216)" stroke-width="1.51"/><path d="M1166,106L1036,60L1095,261Z" fill="rgb(176,193,224)" stroke="rgb(176,193,224)" stroke-width="1.51"/><path d="M1542,533L1461,508L1434,558Z" fill="rgb(184,195,205)" stroke="rgb(184,195,205)" stroke-width="1.51"/><path d="M1434,558L1461,508L1284,436Z" fill="rgb(183,191,203)" stroke="rgb(183,191,203)" stroke-width="1.51"/><path d="M1226,1019L1023,874L1025,1021Z" fill="rgb(186,204,212)" stroke="rgb(186,204,212)" stroke-width="1.51"/><path d="M1226,1019L1274,953L1023,874Z" fill="rgb(183,199,204)" stroke="rgb(183,199,204)" stroke-width="1.51"/><path d="M1308,805L1455,819L1381,699Z" fill="rgb(176,182,183)" stroke="rgb(176,182,183)" stroke-width="1.51"/><path d="M562,156L539,232L669,296Z" fill="rgb(189,212,255)" stroke="rgb(189,212,255)" stroke-width="1.51"/><path d="M633,838L672,1001L718,886Z" fill="rgb(193,213,232)" stroke="rgb(193,213,232)" stroke-width="1.51"/><path d="M567,765L510,889L633,838Z" fill="rgb(187,204,225)" stroke="rgb(187,204,225)" stroke-width="1.51"/><path d="M468,598L466,747L576,638Z" fill="rgb(183,196,219)" stroke="rgb(183,196,219)" stroke-width="1.51"/><path d="M1474,290L1382,252L1417,401Z" fill="rgb(186,201,222)" stroke="rgb(186,201,222)" stroke-width="1.51"/><path d="M1417,401L1382,252L1343,389Z" fill="rgb(187,200,219)" stroke="rgb(187,200,219)" stroke-width="1.51"/><path d="M332,305L432,455L504,392Z" fill="rgb(190,212,252)" stroke="rgb(190,212,252)" stroke-width="1.51"/><path d="M504,392L432,455L547,404Z" fill="rgb(192,211,248)" stroke="rgb(192,211,248)" stroke-width="1.51"/><path d="M468,598L402,745L466,747Z" fill="rgb(180,192,215)" stroke="rgb(180,192,215)" stroke-width="1.51"/><path d="M553,948L672,1001L633,838Z" fill="rgb(193,216,237)" stroke="rgb(193,216,237)" stroke-width="1.51"/><path d="M1036,60L989,17L902,103Z" fill="rgb(173,195,232)" stroke="rgb(173,195,232)" stroke-width="1.51"/><path d="M862,100L761,-73L735,141Z" fill="rgb(176,202,245)" stroke="rgb(176,202,245)" stroke-width="1.51"/><path d="M735,141L562,156L669,296Z" fill="rgb(188,212,254)" stroke="rgb(188,212,254)" stroke-width="1.51"/><path d="M1069,9L989,17L1036,60Z" fill="rgb(170,192,228)" stroke="rgb(170,192,228)" stroke-width="1.51"/><path d="M1048,1120L1226,1019L1025,1021Z" fill="rgb(189,213,221)" stroke="rgb(189,213,221)" stroke-width="1.51"/><path d="M672,1001L886,1091L811,924Z" fill="rgb(194,220,236)" stroke="rgb(194,220,236)" stroke-width="1.51"/><path d="M986,1041L1048,1120L1025,1021Z" fill="rgb(191,217,227)" stroke="rgb(191,217,227)" stroke-width="1.51"/><path d="M513,151L562,156L511,30Z" fill="rgb(179,207,255)" stroke="rgb(179,207,255)" stroke-width="1.51"/><path d="M539,232L426,240L504,392Z" fill="rgb(189,212,255)" stroke="rgb(189,212,255)" stroke-width="1.51"/><path d="M1209,-49L1069,9L1166,106Z" fill="rgb(167,187,221)" stroke="rgb(167,187,221)" stroke-width="1.51"/><path d="M1166,106L1069,9L1036,60Z" fill="rgb(171,191,224)" stroke="rgb(171,191,224)" stroke-width="1.51"/><path d="M466,747L510,889L567,765Z" fill="rgb(185,200,222)" stroke="rgb(185,200,222)" stroke-width="1.51"/><path d="M527,927L553,948L633,838Z" fill="rgb(190,213,234)" stroke="rgb(190,213,234)" stroke-width="1.51"/><path d="M510,889L527,927L633,838Z" fill="rgb(189,210,232)" stroke="rgb(189,210,232)" stroke-width="1.51"/><path d="M1529,862L1455,819L1524,932Z" fill="rgb(183,200,202)" stroke="rgb(183,200,202)" stroke-width="1.51"/><path d="M1274,953L1455,819L1308,805Z" fill="rgb(179,189,191)" stroke="rgb(179,189,191)" stroke-width="1.51"/><path d="M1580,601L1542,533L1434,558Z" fill="rgb(183,195,205)" stroke="rgb(183,195,205)" stroke-width="1.51"/><path d="M886,1091L1048,1120L986,1041Z" fill="rgb(192,220,233)" stroke="rgb(192,220,233)" stroke-width="1.51"/><path d="M510,889L399,949L527,927Z" fill="rgb(188,213,236)" stroke="rgb(188,213,236)" stroke-width="1.51"/><path d="M466,747L389,830L510,889Z" fill="rgb(183,201,224)" stroke="rgb(183,201,224)" stroke-width="1.51"/><path d="M301,654L402,745L468,598Z" fill="rgb(179,193,219)" stroke="rgb(179,193,219)" stroke-width="1.51"/><path d="M1370,48L1166,106L1262,225Z" fill="rgb(172,187,213)" stroke="rgb(172,187,213)" stroke-width="1.51"/><path d="M1618,396L1474,290L1417,401Z" fill="rgb(191,207,227)" stroke="rgb(191,207,227)" stroke-width="1.51"/><path d="M1618,396L1417,401L1461,508Z" fill="rgb(188,202,218)" stroke="rgb(188,202,218)" stroke-width="1.51"/><path d="M1561,669L1434,558L1411,669Z" fill="rgb(179,187,193)" stroke="rgb(179,187,193)" stroke-width="1.51"/><path d="M562,156L513,151L539,232Z" fill="rgb(184,210,255)" stroke="rgb(184,210,255)" stroke-width="1.51"/><path d="M603,-30L562,156L735,141Z" fill="rgb(181,209,255)" stroke="rgb(181,209,255)" stroke-width="1.51"/><path d="M432,455L343,513L468,598Z" fill="rgb(185,203,236)" stroke="rgb(185,203,236)" stroke-width="1.51"/><path d="M279,428L343,513L432,455Z" fill="rgb(184,205,242)" stroke="rgb(184,205,242)" stroke-width="1.51"/><path d="M989,17L855,-52L902,103Z" fill="rgb(172,196,236)" stroke="rgb(172,196,236)" stroke-width="1.51"/><path d="M1025,-131L855,-52L989,17Z" fill="rgb(170,194,233)" stroke="rgb(170,194,233)" stroke-width="1.51"/><path d="M513,151L426,240L539,232Z" fill="rgb(184,210,255)" stroke="rgb(184,210,255)" stroke-width="1.51"/><path d="M672,1001L673,1109L886,1091Z" fill="rgb(197,227,247)" stroke="rgb(197,227,247)" stroke-width="1.51"/><path d="M886,1091L1017,1196L1048,1120Z" fill="rgb(193,220,232)" stroke="rgb(193,220,232)" stroke-width="1.51"/><path d="M553,948L606,1056L672,1001Z" fill="rgb(196,224,246)" stroke="rgb(196,224,246)" stroke-width="1.51"/><path d="M430,1076L606,1056L553,948Z" fill="rgb(193,225,249)" stroke="rgb(193,225,249)" stroke-width="1.51"/><path d="M430,1076L553,948L527,927Z" fill="rgb(191,220,244)" stroke="rgb(191,220,244)" stroke-width="1.51"/><path d="M1455,819L1561,669L1411,669Z" fill="rgb(176,182,183)" stroke="rgb(176,182,183)" stroke-width="1.51"/><path d="M606,1056L673,1109L672,1001Z" fill="rgb(198,230,252)" stroke="rgb(198,230,252)" stroke-width="1.51"/><path d="M402,745L389,830L466,747Z" fill="rgb(181,196,219)" stroke="rgb(181,196,219)" stroke-width="1.51"/><path d="M224,673L389,830L402,745Z" fill="rgb(177,192,216)" stroke="rgb(177,192,216)" stroke-width="1.51"/><path d="M1561,669L1580,601L1434,558Z" fill="rgb(182,192,199)" stroke="rgb(182,192,199)" stroke-width="1.51"/><path d="M1542,533L1618,396L1461,508Z" fill="rgb(187,202,215)" stroke="rgb(187,202,215)" stroke-width="1.51"/><path d="M1048,1120L1190,1154L1226,1019Z" fill="rgb(189,214,221)" stroke="rgb(189,214,221)" stroke-width="1.51"/><path d="M844,1238L1017,1196L886,1091Z" fill="rgb(194,222,236)" stroke="rgb(194,222,236)" stroke-width="1.51"/><path d="M1524,932L1455,819L1274,953Z" fill="rgb(182,198,201)" stroke="rgb(182,198,201)" stroke-width="1.51"/><path d="M1163,1192L1190,1154L1048,1120Z" fill="rgb(189,215,222)" stroke="rgb(189,215,222)" stroke-width="1.51"/><path d="M855,-52L761,-73L862,100Z" fill="rgb(172,199,242)" stroke="rgb(172,199,242)" stroke-width="1.51"/><path d="M1370,48L1262,225L1382,252Z" fill="rgb(176,192,216)" stroke="rgb(176,192,216)" stroke-width="1.51"/><path d="M1069,9L1025,-131L989,17Z" fill="rgb(169,191,228)" stroke="rgb(169,191,228)" stroke-width="1.51"/><path d="M855,-52L836,-155L761,-73Z" fill="rgb(172,199,243)" stroke="rgb(172,199,243)" stroke-width="1.51"/><path d="M1472,115L1370,48L1382,252Z" fill="rgb(175,194,220)" stroke="rgb(175,194,220)" stroke-width="1.51"/><path d="M1455,819L1529,862L1561,669Z" fill="rgb(179,191,193)" stroke="rgb(179,191,193)" stroke-width="1.51"/><path d="M1747,654L1711,468L1580,601Z" fill="rgb(186,204,213)" stroke="rgb(186,204,213)" stroke-width="1.51"/><path d="M1524,932L1274,953L1496,1026Z" fill="rgb(185,206,209)" stroke="rgb(185,206,209)" stroke-width="1.51"/><path d="M343,513L301,654L468,598Z" fill="rgb(181,198,228)" stroke="rgb(181,198,228)" stroke-width="1.51"/><path d="M513,151L370,232L426,240Z" fill="rgb(182,209,255)" stroke="rgb(182,209,255)" stroke-width="1.51"/><path d="M426,240L332,305L504,392Z" fill="rgb(188,212,255)" stroke="rgb(188,212,255)" stroke-width="1.51"/><path d="M343,513L261,607L301,654Z" fill="rgb(179,196,227)" stroke="rgb(179,196,227)" stroke-width="1.51"/><path d="M301,135L370,232L513,151Z" fill="rgb(178,207,255)" stroke="rgb(178,207,255)" stroke-width="1.51"/><path d="M370,232L332,305L426,240Z" fill="rgb(183,209,255)" stroke="rgb(183,209,255)" stroke-width="1.51"/><path d="M1370,48L1285,-37L1166,106Z" fill="rgb(166,184,213)" stroke="rgb(166,184,213)" stroke-width="1.51"/><path d="M1017,1196L1163,1192L1048,1120Z" fill="rgb(191,217,226)" stroke="rgb(191,217,226)" stroke-width="1.51"/><path d="M1352,1143L1274,953L1226,1019Z" fill="rgb(184,205,208)" stroke="rgb(184,205,208)" stroke-width="1.51"/><path d="M761,-73L603,-30L735,141Z" fill="rgb(175,204,251)" stroke="rgb(175,204,251)" stroke-width="1.51"/><path d="M1474,290L1472,115L1382,252Z" fill="rgb(181,199,223)" stroke="rgb(181,199,223)" stroke-width="1.51"/><path d="M1370,48L1402,25L1285,-37Z" fill="rgb(166,187,217)" stroke="rgb(166,187,217)" stroke-width="1.51"/><path d="M1563,225L1472,115L1474,290Z" fill="rgb(181,202,227)" stroke="rgb(181,202,227)" stroke-width="1.51"/><path d="M389,830L399,949L510,889Z" fill="rgb(185,208,232)" stroke="rgb(185,208,232)" stroke-width="1.51"/><path d="M608,1241L673,1214L673,1109Z" fill="rgb(199,233,254)" stroke="rgb(199,233,254)" stroke-width="1.51"/><path d="M188,917L399,949L389,830Z" fill="rgb(181,207,233)" stroke="rgb(181,207,233)" stroke-width="1.51"/><path d="M603,-30L511,30L562,156Z" fill="rgb(175,206,255)" stroke="rgb(175,206,255)" stroke-width="1.51"/><path d="M273,377L279,428L432,455Z" fill="rgb(186,208,248)" stroke="rgb(186,208,248)" stroke-width="1.51"/><path d="M1711,468L1618,396L1542,533Z" fill="rgb(189,208,223)" stroke="rgb(189,208,223)" stroke-width="1.51"/><path d="M1004,-169L1025,-131L1245,-114Z" fill="rgb(167,189,224)" stroke="rgb(167,189,224)" stroke-width="1.51"/><path d="M1209,-49L1025,-131L1069,9Z" fill="rgb(167,189,224)" stroke="rgb(167,189,224)" stroke-width="1.51"/><path d="M1723,680L1580,601L1561,669Z" fill="rgb(182,195,201)" stroke="rgb(182,195,201)" stroke-width="1.51"/><path d="M1580,601L1711,468L1542,533Z" fill="rgb(186,203,214)" stroke="rgb(186,203,214)" stroke-width="1.51"/><path d="M1352,1143L1226,1019L1190,1154Z" fill="rgb(186,210,214)" stroke="rgb(186,210,214)" stroke-width="1.51"/><path d="M1472,115L1402,25L1370,48Z" fill="rgb(170,192,221)" stroke="rgb(170,192,221)" stroke-width="1.51"/><path d="M301,654L224,673L402,745Z" fill="rgb(175,190,216)" stroke="rgb(175,190,216)" stroke-width="1.51"/><path d="M279,428L261,607L343,513Z" fill="rgb(181,201,236)" stroke="rgb(181,201,236)" stroke-width="1.51"/><path d="M1455,-144L1340,-91L1402,25Z" fill="rgb(166,189,220)" stroke="rgb(166,189,220)" stroke-width="1.51"/><path d="M1618,396L1563,225L1474,290Z" fill="rgb(188,208,230)" stroke="rgb(188,208,230)" stroke-width="1.51"/><path d="M673,1109L844,1238L886,1091Z" fill="rgb(196,227,244)" stroke="rgb(196,227,244)" stroke-width="1.51"/><path d="M1017,1196L1052,1272L1163,1192Z" fill="rgb(190,217,226)" stroke="rgb(190,217,226)" stroke-width="1.51"/><path d="M673,1214L844,1238L673,1109Z" fill="rgb(197,229,249)" stroke="rgb(197,229,249)" stroke-width="1.51"/><path d="M129,643L224,673L261,607Z" fill="rgb(174,191,221)" stroke="rgb(174,191,221)" stroke-width="1.51"/><path d="M332,305L273,377L432,455Z" fill="rgb(188,211,253)" stroke="rgb(188,211,253)" stroke-width="1.51"/><path d="M270,233L273,377L332,305Z" fill="rgb(183,209,255)" stroke="rgb(183,209,255)" stroke-width="1.51"/><path d="M761,-73L661,-180L603,-30Z" fill="rgb(175,204,252)" stroke="rgb(175,204,252)" stroke-width="1.51"/><path d="M1004,-169L836,-155L855,-52Z" fill="rgb(170,196,237)" stroke="rgb(170,196,237)" stroke-width="1.51"/><path d="M1343,1243L1352,1143L1190,1154Z" fill="rgb(186,210,213)" stroke="rgb(186,210,213)" stroke-width="1.51"/><path d="M608,1241L673,1109L606,1056Z" fill="rgb(199,233,255)" stroke="rgb(199,233,255)" stroke-width="1.51"/><path d="M1025,-131L1004,-169L855,-52Z" fill="rgb(170,194,233)" stroke="rgb(170,194,233)" stroke-width="1.51"/><path d="M1245,-114L1025,-131L1209,-49Z" fill="rgb(166,187,220)" stroke="rgb(166,187,220)" stroke-width="1.51"/><path d="M1352,1143L1496,1026L1274,953Z" fill="rgb(187,210,214)" stroke="rgb(187,210,214)" stroke-width="1.51"/><path d="M1285,-37L1245,-114L1209,-49Z" fill="rgb(165,183,214)" stroke="rgb(165,183,214)" stroke-width="1.51"/><path d="M1340,-91L1245,-114L1285,-37Z" fill="rgb(164,183,213)" stroke="rgb(164,183,213)" stroke-width="1.51"/><path d="M1163,1192L1343,1243L1190,1154Z" fill="rgb(187,210,215)" stroke="rgb(187,210,215)" stroke-width="1.51"/><path d="M844,1238L1052,1272L1017,1196Z" fill="rgb(192,220,233)" stroke="rgb(192,220,233)" stroke-width="1.51"/><path d="M608,1241L1052,1272L844,1238Z" fill="rgb(195,225,242)" stroke="rgb(195,225,242)" stroke-width="1.51"/><path d="M261,607L224,673L301,654Z" fill="rgb(175,192,221)" stroke="rgb(175,192,221)" stroke-width="1.51"/><path d="M129,643L261,607L47,452Z" fill="rgb(174,195,230)" stroke="rgb(174,195,230)" stroke-width="1.51"/><path d="M386,1062L430,1076L399,949Z" fill="rgb(189,223,249)" stroke="rgb(189,223,249)" stroke-width="1.51"/><path d="M399,949L430,1076L527,927Z" fill="rgb(189,219,244)" stroke="rgb(189,219,244)" stroke-width="1.51"/><path d="M1402,25L1340,-91L1285,-37Z" fill="rgb(165,186,216)" stroke="rgb(165,186,216)" stroke-width="1.51"/><path d="M1558,-55L1402,25L1472,115Z" fill="rgb(169,195,225)" stroke="rgb(169,195,225)" stroke-width="1.51"/><path d="M370,232L270,233L332,305Z" fill="rgb(180,208,255)" stroke="rgb(180,208,255)" stroke-width="1.51"/><path d="M91,695L162,795L224,673Z" fill="rgb(169,185,212)" stroke="rgb(169,185,212)" stroke-width="1.51"/><path d="M301,135L270,233L370,232Z" fill="rgb(176,207,255)" stroke="rgb(176,207,255)" stroke-width="1.51"/><path d="M267,1099L386,1062L399,949Z" fill="rgb(187,222,250)" stroke="rgb(187,222,250)" stroke-width="1.51"/><path d="M495,1233L608,1241L606,1056Z" fill="rgb(197,231,255)" stroke="rgb(197,231,255)" stroke-width="1.51"/><path d="M1693,235L1615,132L1563,225Z" fill="rgb(183,209,235)" stroke="rgb(183,209,235)" stroke-width="1.51"/><path d="M1687,808L1561,669L1529,862Z" fill="rgb(181,195,197)" stroke="rgb(181,195,197)" stroke-width="1.51"/><path d="M1687,808L1529,862L1524,932Z" fill="rgb(184,204,207)" stroke="rgb(184,204,207)" stroke-width="1.51"/><path d="M1352,1143L1472,1114L1496,1026Z" fill="rgb(190,219,223)" stroke="rgb(190,219,223)" stroke-width="1.51"/><path d="M1741,958L1687,808L1524,932Z" fill="rgb(187,212,215)" stroke="rgb(187,212,215)" stroke-width="1.51"/><path d="M1438,1216L1472,1114L1352,1143Z" fill="rgb(189,218,222)" stroke="rgb(189,218,222)" stroke-width="1.51"/><path d="M340,-31L301,135L511,30Z" fill="rgb(168,202,255)" stroke="rgb(168,202,255)" stroke-width="1.51"/><path d="M511,30L301,135L513,151Z" fill="rgb(175,205,255)" stroke="rgb(175,205,255)" stroke-width="1.51"/><path d="M495,1233L606,1056L430,1076Z" fill="rgb(194,230,255)" stroke="rgb(194,230,255)" stroke-width="1.51"/><path d="M673,1214L608,1241L844,1238Z" fill="rgb(198,230,251)" stroke="rgb(198,230,251)" stroke-width="1.51"/><path d="M1741,958L1524,932L1675,1087Z" fill="rgb(191,222,226)" stroke="rgb(191,222,226)" stroke-width="1.51"/><path d="M1687,808L1723,680L1561,669Z" fill="rgb(180,193,195)" stroke="rgb(180,193,195)" stroke-width="1.51"/><path d="M1563,225L1615,132L1472,115Z" fill="rgb(179,203,230)" stroke="rgb(179,203,230)" stroke-width="1.51"/><path d="M1693,235L1563,225L1618,396Z" fill="rgb(188,212,235)" stroke="rgb(188,212,235)" stroke-width="1.51"/><path d="M603,-30L504,-119L511,30Z" fill="rgb(171,204,255)" stroke="rgb(171,204,255)" stroke-width="1.51"/><path d="M836,-155L661,-180L761,-73Z" fill="rgb(173,202,247)" stroke="rgb(173,202,247)" stroke-width="1.51"/><path d="M1004,-169L661,-180L836,-155Z" fill="rgb(172,199,242)" stroke="rgb(172,199,242)" stroke-width="1.51"/><path d="M1570,1230L1515,1098L1472,1114Z" fill="rgb(191,223,228)" stroke="rgb(191,223,228)" stroke-width="1.51"/><path d="M1472,1114L1515,1098L1496,1026Z" fill="rgb(190,222,226)" stroke="rgb(190,222,226)" stroke-width="1.51"/><path d="M1052,1272L1343,1243L1163,1192Z" fill="rgb(188,213,218)" stroke="rgb(188,213,218)" stroke-width="1.51"/><path d="M1711,468L1727,359L1618,396Z" fill="rgb(193,216,234)" stroke="rgb(193,216,234)" stroke-width="1.51"/><path d="M1826,326L1727,359L1891,404Z" fill="rgb(197,227,248)" stroke="rgb(197,227,248)" stroke-width="1.51"/><path d="M1723,680L1747,654L1580,601Z" fill="rgb(184,200,205)" stroke="rgb(184,200,205)" stroke-width="1.51"/><path d="M1814,719L1747,654L1723,680Z" fill="rgb(184,202,206)" stroke="rgb(184,202,206)" stroke-width="1.51"/><path d="M535,-180L504,-119L603,-30Z" fill="rgb(171,204,255)" stroke="rgb(171,204,255)" stroke-width="1.51"/><path d="M1727,359L1693,235L1618,396Z" fill="rgb(192,218,239)" stroke="rgb(192,218,239)" stroke-width="1.51"/><path d="M395,1171L495,1233L430,1076Z" fill="rgb(192,229,255)" stroke="rgb(192,229,255)" stroke-width="1.51"/><path d="M1343,1243L1438,1216L1352,1143Z" fill="rgb(188,215,218)" stroke="rgb(188,215,218)" stroke-width="1.51"/><path d="M224,673L162,795L389,830Z" fill="rgb(174,192,217)" stroke="rgb(174,192,217)" stroke-width="1.51"/><path d="M386,1062L395,1171L430,1076Z" fill="rgb(190,228,255)" stroke="rgb(190,228,255)" stroke-width="1.51"/><path d="M261,607L279,428L47,452Z" fill="rgb(178,200,238)" stroke="rgb(178,200,238)" stroke-width="1.51"/><path d="M113,359L273,377L270,233Z" fill="rgb(181,208,255)" stroke="rgb(181,208,255)" stroke-width="1.51"/><path d="M113,359L279,428L273,377Z" fill="rgb(182,208,251)" stroke="rgb(182,208,251)" stroke-width="1.51"/><path d="M267,1099L395,1171L386,1062Z" fill="rgb(188,227,255)" stroke="rgb(188,227,255)" stroke-width="1.51"/><path d="M504,-119L405,-80L511,30Z" fill="rgb(169,203,255)" stroke="rgb(169,203,255)" stroke-width="1.51"/><path d="M504,-119L535,-180L405,-80Z" fill="rgb(169,203,255)" stroke="rgb(169,203,255)" stroke-width="1.51"/><path d="M661,-180L535,-180L603,-30Z" fill="rgb(173,205,255)" stroke="rgb(173,205,255)" stroke-width="1.51"/><path d="M133,204L113,359L270,233Z" fill="rgb(175,206,255)" stroke="rgb(175,206,255)" stroke-width="1.51"/><path d="M405,-80L340,-31L511,30Z" fill="rgb(167,202,255)" stroke="rgb(167,202,255)" stroke-width="1.51"/><path d="M204,72L340,-31L195,-35Z" fill="rgb(159,198,254)" stroke="rgb(159,198,254)" stroke-width="1.51"/><path d="M162,795L188,917L389,830Z" fill="rgb(177,200,227)" stroke="rgb(177,200,227)" stroke-width="1.51"/><path d="M120,828L188,917L162,795Z" fill="rgb(174,199,227)" stroke="rgb(174,199,227)" stroke-width="1.51"/><path d="M1689,38L1558,-55L1615,132Z" fill="rgb(173,204,235)" stroke="rgb(173,204,235)" stroke-width="1.51"/><path d="M1615,132L1558,-55L1472,115Z" fill="rgb(173,200,229)" stroke="rgb(173,200,229)" stroke-width="1.51"/><path d="M1340,-91L1455,-144L1245,-114Z" fill="rgb(165,186,216)" stroke="rgb(165,186,216)" stroke-width="1.51"/><path d="M1245,-114L1455,-144L1004,-169Z" fill="rgb(164,184,215)" stroke="rgb(164,184,215)" stroke-width="1.51"/><path d="M1558,-55L1455,-144L1402,25Z" fill="rgb(167,194,224)" stroke="rgb(167,194,224)" stroke-width="1.51"/><path d="M204,72L270,233L301,135Z" fill="rgb(170,204,254)" stroke="rgb(170,204,254)" stroke-width="1.51"/><path d="M1770,156L1711,139L1693,235Z" fill="rgb(184,215,242)" stroke="rgb(184,215,242)" stroke-width="1.51"/><path d="M1693,235L1711,139L1615,132Z" fill="rgb(182,211,239)" stroke="rgb(182,211,239)" stroke-width="1.51"/><path d="M129,643L91,695L224,673Z" fill="rgb(170,188,218)" stroke="rgb(170,188,218)" stroke-width="1.51"/><path d="M-10,676L91,695L129,643Z" fill="rgb(168,187,218)" stroke="rgb(168,187,218)" stroke-width="1.51"/><path d="M91,695L120,828L162,795Z" fill="rgb(170,190,218)" stroke="rgb(170,190,218)" stroke-width="1.51"/><path d="M156,1097L267,1099L188,917Z" fill="rgb(182,220,250)" stroke="rgb(182,220,250)" stroke-width="1.51"/><path d="M188,917L267,1099L399,949Z" fill="rgb(183,216,244)" stroke="rgb(183,216,244)" stroke-width="1.51"/><path d="M395,1171L215,1265L495,1233Z" fill="rgb(189,228,255)" stroke="rgb(189,228,255)" stroke-width="1.51"/><path d="M1727,359L1826,326L1693,235Z" fill="rgb(192,221,244)" stroke="rgb(192,221,244)" stroke-width="1.51"/><path d="M1747,654L1830,542L1711,468Z" fill="rgb(189,210,221)" stroke="rgb(189,210,221)" stroke-width="1.51"/><path d="M1913,596L1830,542L1747,654Z" fill="rgb(189,212,221)" stroke="rgb(189,212,221)" stroke-width="1.51"/><path d="M1687,808L1814,719L1723,680Z" fill="rgb(182,200,203)" stroke="rgb(182,200,203)" stroke-width="1.51"/><path d="M1802,871L1814,719L1687,808Z" fill="rgb(186,208,211)" stroke="rgb(186,208,211)" stroke-width="1.51"/><path d="M1524,932L1496,1026L1675,1087Z" fill="rgb(190,219,223)" stroke="rgb(190,219,223)" stroke-width="1.51"/><path d="M1714,-109L1544,-105L1558,-55Z" fill="rgb(170,202,234)" stroke="rgb(170,202,234)" stroke-width="1.51"/><path d="M1558,-55L1544,-105L1455,-144Z" fill="rgb(168,196,228)" stroke="rgb(168,196,228)" stroke-width="1.51"/><path d="M340,-31L204,72L301,135Z" fill="rgb(165,201,254)" stroke="rgb(165,201,254)" stroke-width="1.51"/><path d="M156,61L204,72L195,-35Z" fill="rgb(159,198,254)" stroke="rgb(159,198,254)" stroke-width="1.51"/><path d="M204,72L133,204L270,233Z" fill="rgb(170,203,255)" stroke="rgb(170,203,255)" stroke-width="1.51"/><path d="M1675,1087L1496,1026L1515,1098Z" fill="rgb(191,225,230)" stroke="rgb(191,225,230)" stroke-width="1.51"/><path d="M1830,542L1847,532L1711,468Z" fill="rgb(191,215,228)" stroke="rgb(191,215,228)" stroke-width="1.51"/><path d="M1913,596L1847,532L1830,542Z" fill="rgb(191,216,227)" stroke="rgb(191,216,227)" stroke-width="1.51"/><path d="M1711,139L1689,38L1615,132Z" fill="rgb(178,209,238)" stroke="rgb(178,209,238)" stroke-width="1.51"/><path d="M1770,156L1689,38L1711,139Z" fill="rgb(179,212,242)" stroke="rgb(179,212,242)" stroke-width="1.51"/><path d="M1570,1230L1675,1087L1515,1098Z" fill="rgb(192,227,232)" stroke="rgb(192,227,232)" stroke-width="1.51"/><path d="M1891,404L1727,359L1711,468Z" fill="rgb(194,221,240)" stroke="rgb(194,221,240)" stroke-width="1.51"/><path d="M120,828L129,932L188,917Z" fill="rgb(175,203,232)" stroke="rgb(175,203,232)" stroke-width="1.51"/><path d="M-77,921L129,932L120,828Z" fill="rgb(171,202,233)" stroke="rgb(171,202,233)" stroke-width="1.51"/><path d="M1830,214L1770,156L1693,235Z" fill="rgb(186,218,245)" stroke="rgb(186,218,245)" stroke-width="1.51"/><path d="M113,359L47,452L279,428Z" fill="rgb(179,205,248)" stroke="rgb(179,205,248)" stroke-width="1.51"/><path d="M91,695L-41,789L120,828Z" fill="rgb(167,189,218)" stroke="rgb(167,189,218)" stroke-width="1.51"/><path d="M0,382L47,452L113,359Z" fill="rgb(176,204,250)" stroke="rgb(176,204,250)" stroke-width="1.51"/><path d="M1802,972L1802,871L1741,958Z" fill="rgb(192,223,228)" stroke="rgb(192,223,228)" stroke-width="1.51"/><path d="M1741,958L1802,871L1687,808Z" fill="rgb(188,215,219)" stroke="rgb(188,215,219)" stroke-width="1.51"/><path d="M1901,444L1891,404L1847,532Z" fill="rgb(195,224,240)" stroke="rgb(195,224,240)" stroke-width="1.51"/><path d="M1438,1216L1570,1230L1472,1114Z" fill="rgb(190,222,226)" stroke="rgb(190,222,226)" stroke-width="1.51"/><path d="M1343,1243L1570,1230L1438,1216Z" fill="rgb(190,219,224)" stroke="rgb(190,219,224)" stroke-width="1.51"/><path d="M1636,1239L1570,1230L1767,1275Z" fill="rgb(194,232,237)" stroke="rgb(194,232,237)" stroke-width="1.51"/><path d="M133,204L0,382L113,359Z" fill="rgb(175,206,255)" stroke="rgb(175,206,255)" stroke-width="1.51"/><path d="M204,72L156,61L133,204Z" fill="rgb(165,200,254)" stroke="rgb(165,200,254)" stroke-width="1.51"/><path d="M237,-84L340,-31L405,-80Z" fill="rgb(163,200,255)" stroke="rgb(163,200,255)" stroke-width="1.51"/><path d="M47,452L15,555L129,643Z" fill="rgb(171,194,232)" stroke="rgb(171,194,232)" stroke-width="1.51"/><path d="M-45,472L15,555L47,452Z" fill="rgb(171,197,239)" stroke="rgb(171,197,239)" stroke-width="1.51"/><path d="M1766,-112L1714,-109L1689,38Z" fill="rgb(172,209,241)" stroke="rgb(172,209,241)" stroke-width="1.51"/><path d="M1826,326L1830,214L1693,235Z" fill="rgb(190,221,246)" stroke="rgb(190,221,246)" stroke-width="1.51"/><path d="M1966,234L1830,214L1826,326Z" fill="rgb(192,226,252)" stroke="rgb(192,226,252)" stroke-width="1.51"/><path d="M1675,1087L1802,972L1741,958Z" fill="rgb(193,229,234)" stroke="rgb(193,229,234)" stroke-width="1.51"/><path d="M1901,444L1847,532L1913,596Z" fill="rgb(193,220,233)" stroke="rgb(193,220,233)" stroke-width="1.51"/><path d="M1810,1138L1802,972L1675,1087Z" fill="rgb(196,237,243)" stroke="rgb(196,237,243)" stroke-width="1.51"/><path d="M1847,532L1891,404L1711,468Z" fill="rgb(193,219,235)" stroke="rgb(193,219,235)" stroke-width="1.51"/><path d="M1747,654L1814,719L1913,596Z" fill="rgb(186,207,213)" stroke="rgb(186,207,213)" stroke-width="1.51"/><path d="M535,-180L237,-84L405,-80Z" fill="rgb(165,201,255)" stroke="rgb(165,201,255)" stroke-width="1.51"/><path d="M1913,596L1814,719L2003,762Z" fill="rgb(187,211,215)" stroke="rgb(187,211,215)" stroke-width="1.51"/><path d="M237,-84L195,-35L340,-31Z" fill="rgb(160,199,254)" stroke="rgb(160,199,254)" stroke-width="1.51"/><path d="M2003,762L1814,719L1983,857Z" fill="rgb(188,215,219)" stroke="rgb(188,215,219)" stroke-width="1.51"/><path d="M129,932L156,1097L188,917Z" fill="rgb(178,213,243)" stroke="rgb(178,213,243)" stroke-width="1.51"/><path d="M267,1099L215,1265L395,1171Z" fill="rgb(186,226,255)" stroke="rgb(186,226,255)" stroke-width="1.51"/><path d="M152,1159L156,1097L12,1066Z" fill="rgb(179,223,255)" stroke="rgb(179,223,255)" stroke-width="1.51"/><path d="M-83,273L133,204L-98,146Z" fill="rgb(164,201,255)" stroke="rgb(164,201,255)" stroke-width="1.51"/><path d="M-83,273L0,382L133,204Z" fill="rgb(170,204,255)" stroke="rgb(170,204,255)" stroke-width="1.51"/><path d="M15,555L-10,676L129,643Z" fill="rgb(169,189,223)" stroke="rgb(169,189,223)" stroke-width="1.51"/><path d="M-135,649L-10,676L15,555Z" fill="rgb(167,188,223)" stroke="rgb(167,188,223)" stroke-width="1.51"/><path d="M1570,1230L1636,1239L1675,1087Z" fill="rgb(193,230,235)" stroke="rgb(193,230,235)" stroke-width="1.51"/><path d="M1767,1275L1570,1230L1343,1243Z" fill="rgb(192,226,231)" stroke="rgb(192,226,231)" stroke-width="1.51"/><path d="M0,382L-45,472L47,452Z" fill="rgb(173,201,246)" stroke="rgb(173,201,246)" stroke-width="1.51"/><path d="M-115,443L-45,472L0,382Z" fill="rgb(173,201,246)" stroke="rgb(173,201,246)" stroke-width="1.51"/><path d="M156,1097L152,1159L267,1099Z" fill="rgb(183,224,255)" stroke="rgb(183,224,255)" stroke-width="1.51"/><path d="M12,1066L156,1097L129,932Z" fill="rgb(178,217,249)" stroke="rgb(178,217,249)" stroke-width="1.51"/><path d="M1886,76L1689,38L1770,156Z" fill="rgb(179,215,245)" stroke="rgb(179,215,245)" stroke-width="1.51"/><path d="M1689,38L1714,-109L1558,-55Z" fill="rgb(170,204,237)" stroke="rgb(170,204,237)" stroke-width="1.51"/><path d="M1544,-105L1714,-109L1455,-144Z" fill="rgb(169,199,231)" stroke="rgb(169,199,231)" stroke-width="1.51"/><path d="M-10,676L-41,789L91,695Z" fill="rgb(164,182,212)" stroke="rgb(164,182,212)" stroke-width="1.51"/><path d="M-141,697L-41,789L-10,676Z" fill="rgb(164,182,212)" stroke="rgb(164,182,212)" stroke-width="1.51"/><path d="M152,1159L215,1265L267,1099Z" fill="rgb(183,225,255)" stroke="rgb(183,225,255)" stroke-width="1.51"/><path d="M495,1233L215,1265L608,1241Z" fill="rgb(192,229,255)" stroke="rgb(192,229,255)" stroke-width="1.51"/><path d="M608,1241L215,1265L1052,1272Z" fill="rgb(199,233,255)" stroke="rgb(199,233,255)" stroke-width="1.51"/><path d="M1802,972L1910,1001L1802,871Z" fill="rgb(193,228,233)" stroke="rgb(193,228,233)" stroke-width="1.51"/><path d="M1636,1239L1810,1138L1675,1087Z" fill="rgb(195,235,240)" stroke="rgb(195,235,240)" stroke-width="1.51"/><path d="M1830,214L1886,76L1770,156Z" fill="rgb(184,220,249)" stroke="rgb(184,220,249)" stroke-width="1.51"/><path d="M1966,234L1886,76L1830,214Z" fill="rgb(186,225,253)" stroke="rgb(186,225,253)" stroke-width="1.51"/><path d="M1966,234L1826,326L1891,404Z" fill="rgb(196,230,254)" stroke="rgb(196,230,254)" stroke-width="1.51"/><path d="M1966,234L1891,404L2053,267Z" fill="rgb(195,231,255)" stroke="rgb(195,231,255)" stroke-width="1.51"/><path d="M1879,14L1766,-112L1689,38Z" fill="rgb(173,212,245)" stroke="rgb(173,212,245)" stroke-width="1.51"/><path d="M1714,-109L1766,-112L1455,-144Z" fill="rgb(171,204,236)" stroke="rgb(171,204,236)" stroke-width="1.51"/><path d="M1810,1138L1910,1001L1802,972Z" fill="rgb(196,238,244)" stroke="rgb(196,238,244)" stroke-width="1.51"/><path d="M2064,457L1891,404L1901,444Z" fill="rgb(197,228,246)" stroke="rgb(197,228,246)" stroke-width="1.51"/><path d="M2064,457L1901,444L1913,596Z" fill="rgb(194,224,238)" stroke="rgb(194,224,238)" stroke-width="1.51"/><path d="M-45,472L-135,649L15,555Z" fill="rgb(169,193,231)" stroke="rgb(169,193,231)" stroke-width="1.51"/><path d="M-26,52L133,204L156,61Z" fill="rgb(161,199,254)" stroke="rgb(161,199,254)" stroke-width="1.51"/><path d="M33,-13L156,61L52,-55Z" fill="rgb(153,195,254)" stroke="rgb(153,195,254)" stroke-width="1.51"/><path d="M-83,273L-115,443L0,382Z" fill="rgb(175,205,254)" stroke="rgb(175,205,254)" stroke-width="1.51"/><path d="M152,1159L-39,1164L215,1265Z" fill="rgb(179,223,255)" stroke="rgb(179,223,255)" stroke-width="1.51"/><path d="M-77,921L12,1066L129,932Z" fill="rgb(173,210,242)" stroke="rgb(173,210,242)" stroke-width="1.51"/><path d="M-77,921L120,828L-41,789Z" fill="rgb(168,195,227)" stroke="rgb(168,195,227)" stroke-width="1.51"/><path d="M1886,76L1879,14L1689,38Z" fill="rgb(176,216,248)" stroke="rgb(176,216,248)" stroke-width="1.51"/><path d="M1982,16L1879,14L1886,76Z" fill="rgb(177,221,254)" stroke="rgb(177,221,254)" stroke-width="1.51"/><path d="M1983,857L1814,719L1802,871Z" fill="rgb(188,216,220)" stroke="rgb(188,216,220)" stroke-width="1.51"/><path d="M1910,1001L1983,857L1802,871Z" fill="rgb(193,228,233)" stroke="rgb(193,228,233)" stroke-width="1.51"/><path d="M52,-55L156,61L195,-35Z" fill="rgb(155,196,254)" stroke="rgb(155,196,254)" stroke-width="1.51"/><path d="M76,-124L52,-55L195,-35Z" fill="rgb(154,196,254)" stroke="rgb(154,196,254)" stroke-width="1.51"/><path d="M76,-124L195,-35L237,-84Z" fill="rgb(156,197,254)" stroke="rgb(156,197,254)" stroke-width="1.51"/><path d="M-115,443L-135,649L-45,472Z" fill="rgb(170,195,235)" stroke="rgb(170,195,235)" stroke-width="1.51"/><path d="M1052,1272L1767,1275L1343,1243Z" fill="rgb(188,216,219)" stroke="rgb(188,216,219)" stroke-width="1.51"/><path d="M1636,1239L1767,1275L1810,1138Z" fill="rgb(196,237,242)" stroke="rgb(196,237,242)" stroke-width="1.51"/><path d="M1810,1138L1929,1067L1910,1001Z" fill="rgb(198,244,251)" stroke="rgb(198,244,251)" stroke-width="1.51"/><path d="M-131,840L-77,921L-41,789Z" fill="rgb(168,196,227)" stroke="rgb(168,196,227)" stroke-width="1.51"/><path d="M-127,-81L-26,52L33,-13Z" fill="rgb(149,194,254)" stroke="rgb(149,194,254)" stroke-width="1.51"/><path d="M33,-13L-26,52L156,61Z" fill="rgb(154,196,254)" stroke="rgb(154,196,254)" stroke-width="1.51"/><path d="M-135,649L-141,697L-10,676Z" fill="rgb(165,185,217)" stroke="rgb(165,185,217)" stroke-width="1.51"/><path d="M-169,327L-141,697L-135,649Z" fill="rgb(169,193,231)" stroke="rgb(169,193,231)" stroke-width="1.51"/><path d="M52,-55L-83,-136L33,-13Z" fill="rgb(149,194,254)" stroke="rgb(149,194,254)" stroke-width="1.51"/><path d="M535,-180L76,-124L237,-84Z" fill="rgb(161,199,254)" stroke="rgb(161,199,254)" stroke-width="1.51"/><path d="M1967,1224L1929,1067L1810,1138Z" fill="rgb(199,247,254)" stroke="rgb(199,247,254)" stroke-width="1.51"/><path d="M2094,991L2087,902L1983,857Z" fill="rgb(193,230,235)" stroke="rgb(193,230,235)" stroke-width="1.51"/><path d="M1982,16L1890,-82L1879,14Z" fill="rgb(175,221,255)" stroke="rgb(175,221,255)" stroke-width="1.51"/><path d="M2112,659L2064,457L1913,596Z" fill="rgb(192,219,230)" stroke="rgb(192,219,230)" stroke-width="1.51"/><path d="M-141,697L-131,840L-41,789Z" fill="rgb(166,188,218)" stroke="rgb(166,188,218)" stroke-width="1.51"/><path d="M-112,1058L-39,1164L12,1066Z" fill="rgb(175,221,255)" stroke="rgb(175,221,255)" stroke-width="1.51"/><path d="M-127,-81L-98,146L-26,52Z" fill="rgb(152,195,254)" stroke="rgb(152,195,254)" stroke-width="1.51"/><path d="M-26,52L-98,146L133,204Z" fill="rgb(159,198,254)" stroke="rgb(159,198,254)" stroke-width="1.51"/><path d="M-83,273L-169,327L-115,443Z" fill="rgb(174,205,255)" stroke="rgb(174,205,255)" stroke-width="1.51"/><path d="M-115,443L-169,327L-135,649Z" fill="rgb(172,198,241)" stroke="rgb(172,198,241)" stroke-width="1.51"/><path d="M2003,762L2112,659L1913,596Z" fill="rgb(188,212,218)" stroke="rgb(188,212,218)" stroke-width="1.51"/><path d="M1983,857L2060,755L2003,762Z" fill="rgb(189,217,221)" stroke="rgb(189,217,221)" stroke-width="1.51"/><path d="M2087,902L2060,755L1983,857Z" fill="rgb(190,222,226)" stroke="rgb(190,222,226)" stroke-width="1.51"/><path d="M1879,14L1890,-82L1766,-112Z" fill="rgb(174,216,250)" stroke="rgb(174,216,250)" stroke-width="1.51"/><path d="M1982,16L1886,76L2020,48Z" fill="rgb(178,222,255)" stroke="rgb(178,222,255)" stroke-width="1.51"/><path d="M2087,373L2053,267L1891,404Z" fill="rgb(198,232,255)" stroke="rgb(198,232,255)" stroke-width="1.51"/><path d="M-176,261L-169,327L-83,273Z" fill="rgb(170,203,255)" stroke="rgb(170,203,255)" stroke-width="1.51"/><path d="M-141,697L-199,955L-131,840Z" fill="rgb(167,194,225)" stroke="rgb(167,194,225)" stroke-width="1.51"/><path d="M2064,457L2087,373L1891,404Z" fill="rgb(197,229,249)" stroke="rgb(197,229,249)" stroke-width="1.51"/><path d="M2112,659L2087,373L2064,457Z" fill="rgb(194,224,239)" stroke="rgb(194,224,239)" stroke-width="1.51"/><path d="M2020,48L1966,234L2053,267Z" fill="rgb(187,227,255)" stroke="rgb(187,227,255)" stroke-width="1.51"/><path d="M2020,48L1886,76L1966,234Z" fill="rgb(183,225,255)" stroke="rgb(183,225,255)" stroke-width="1.51"/><path d="M-169,327L-199,955L-141,697Z" fill="rgb(166,186,219)" stroke="rgb(166,186,219)" stroke-width="1.51"/><path d="M-98,146L-176,261L-83,273Z" fill="rgb(165,201,255)" stroke="rgb(165,201,255)" stroke-width="1.51"/><path d="M-208,-65L-176,261L-98,146Z" fill="rgb(158,198,254)" stroke="rgb(158,198,254)" stroke-width="1.51"/><path d="M-112,1058L12,1066L-77,921Z" fill="rgb(174,214,247)" stroke="rgb(174,214,247)" stroke-width="1.51"/><path d="M12,1066L-39,1164L152,1159Z" fill="rgb(177,222,255)" stroke="rgb(177,222,255)" stroke-width="1.51"/><path d="M2060,755L2112,659L2003,762Z" fill="rgb(186,209,213)" stroke="rgb(186,209,213)" stroke-width="1.51"/><path d="M2087,902L2112,659L2060,755Z" fill="rgb(188,215,218)" stroke="rgb(188,215,218)" stroke-width="1.51"/><path d="M-199,955L-112,1058L-77,921Z" fill="rgb(172,210,243)" stroke="rgb(172,210,243)" stroke-width="1.51"/><path d="M1982,16L2013,-5L1890,-82Z" fill="rgb(175,221,255)" stroke="rgb(175,221,255)" stroke-width="1.51"/><path d="M2077,-150L2020,48L2053,267Z" fill="rgb(179,223,255)" stroke="rgb(179,223,255)" stroke-width="1.51"/><path d="M2094,991L1910,1001L1929,1067Z" fill="rgb(197,241,248)" stroke="rgb(197,241,248)" stroke-width="1.51"/><path d="M2094,991L1983,857L1910,1001Z" fill="rgb(195,234,239)" stroke="rgb(195,234,239)" stroke-width="1.51"/><path d="M2020,48L2013,-5L1982,16Z" fill="rgb(177,221,255)" stroke="rgb(177,221,255)" stroke-width="1.51"/><path d="M2077,-150L2013,-5L2020,48Z" fill="rgb(175,221,255)" stroke="rgb(175,221,255)" stroke-width="1.51"/><path d="M-112,1058L-159,1193L-39,1164Z" fill="rgb(175,221,255)" stroke="rgb(175,221,255)" stroke-width="1.51"/><path d="M-131,840L-199,955L-77,921Z" fill="rgb(170,202,234)" stroke="rgb(170,202,234)" stroke-width="1.51"/><path d="M-176,261L-199,955L-169,327Z" fill="rgb(171,196,236)" stroke="rgb(171,196,236)" stroke-width="1.51"/><path d="M1767,1275L1967,1224L1810,1138Z" fill="rgb(198,243,250)" stroke="rgb(198,243,250)" stroke-width="1.51"/><path d="M2114,1052L2094,991L1929,1067Z" fill="rgb(198,243,250)" stroke="rgb(198,243,250)" stroke-width="1.51"/><path d="M2087,902L2114,1052L2112,659Z" fill="rgb(192,225,230)" stroke="rgb(192,225,230)" stroke-width="1.51"/><path d="M76,-124L-83,-136L52,-55Z" fill="rgb(150,194,254)" stroke="rgb(150,194,254)" stroke-width="1.51"/><path d="M535,-180L-83,-136L76,-124Z" fill="rgb(157,197,254)" stroke="rgb(157,197,254)" stroke-width="1.51"/><path d="M-83,-136L-127,-81L33,-13Z" fill="rgb(149,194,254)" stroke="rgb(149,194,254)" stroke-width="1.51"/><path d="M1967,1224L2043,1191L1929,1067Z" fill="rgb(199,248,255)" stroke="rgb(199,248,255)" stroke-width="1.51"/><path d="M2043,1191L2114,1052L1929,1067Z" fill="rgb(199,248,255)" stroke="rgb(199,248,255)" stroke-width="1.51"/><path d="M2094,991L2114,1052L2087,902Z" fill="rgb(196,237,243)" stroke="rgb(196,237,243)" stroke-width="1.51"/><path d="M-199,955L-159,1193L-112,1058Z" fill="rgb(175,220,253)" stroke="rgb(175,220,253)" stroke-width="1.51"/><path d="M-39,1164L-159,1193L215,1265Z" fill="rgb(175,221,255)" stroke="rgb(175,221,255)" stroke-width="1.51"/><path d="M-83,-136L-208,-65L-127,-81Z" fill="rgb(149,194,254)" stroke="rgb(149,194,254)" stroke-width="1.51"/><path d="M-127,-81L-208,-65L-98,146Z" fill="rgb(149,194,254)" stroke="rgb(149,194,254)" stroke-width="1.51"/><path d="M-176,261L-208,-65L-199,955Z" fill="rgb(174,204,252)" stroke="rgb(174,204,252)" stroke-width="1.51"/><path d="M2013,-5L2077,-150L1890,-82Z" fill="rgb(175,221,255)" stroke="rgb(175,221,255)" stroke-width="1.51"/><path d="M1890,-82L2077,-150L1766,-112Z" fill="rgb(175,220,254)" stroke="rgb(175,220,254)" stroke-width="1.51"/><path d="M1766,-112L2077,-150L1455,-144Z" fill="rgb(173,211,244)" stroke="rgb(173,211,244)" stroke-width="1.51"/><path d="M1455,-144L2077,-150L1004,-169Z" fill="rgb(168,196,227)" stroke="rgb(168,196,227)" stroke-width="1.51"/><path d="M1004,-169L2077,-150L661,-180Z" fill="rgb(165,183,214)" stroke="rgb(165,183,214)" stroke-width="1.51"/><path d="M2087,373L2077,-150L2053,267Z" fill="rgb(186,226,255)" stroke="rgb(186,226,255)" stroke-width="1.51"/><path d="M2112,659L2077,-150L2087,373Z" fill="rgb(195,231,255)" stroke="rgb(195,231,255)" stroke-width="1.51"/></svg>