<svg xmlns="http://www.w3.org/2000/svg" width="1920" height="1080"><path d="M899,548L1013,709L1016,522Z" fill="rgb(101,108,122)" stroke="rgb(101,108,122)" stroke-width="1.51"/><path d="M1013,709L1087,563L1016,522Z" fill="rgb(93,98,110)" stroke="rgb(93,98,110)" stroke-width="1.51"/><path d="M1013,709L1047,718L1087,563Z" fill="rgb(78,82,90)" stroke="rgb(78,82,90)" stroke-width="1.51"/><path d="M810,656L889,760L1013,709Z" fill="rgb(85,90,100)" stroke="rgb(85,90,100)" stroke-width="1.51"/><path d="M1013,709L957,874L1047,718Z" fill="rgb(81,87,94)" stroke="rgb(81,87,94)" stroke-width="1.51"/><path d="M899,548L810,656L1013,709Z" fill="rgb(101,107,120)" stroke="rgb(101,107,120)" stroke-width="1.51"/><path d="M1016,522L1008,358L899,548Z" fill="rgb(128,138,157)" stroke="rgb(128,138,157)" stroke-width="1.51"/><path d="M1087,563L1080,432L1016,522Z" fill="rgb(111,118,134)" stroke="rgb(111,118,134)" stroke-width="1.51"/><path d="M1147,835L1148,747L1047,718Z" fill="rgb(68,73,77)" stroke="rgb(68,73,77)" stroke-width="1.51"/><path d="M1047,718L1148,747L1087,563Z" fill="rgb(70,73,79)" stroke="rgb(70,73,79)" stroke-width="1.51"/><path d="M1087,563L1253,497L1080,432Z" fill="rgb(102,109,123)" stroke="rgb(102,109,123)" stroke-width="1.51"/><path d="M899,548L793,492L810,656Z" fill="rgb(125,135,154)" stroke="rgb(125,135,154)" stroke-width="1.51"/><path d="M813,331L793,492L899,548Z" fill="rgb(150,162,188)" stroke="rgb(150,162,188)" stroke-width="1.51"/><path d="M810,656L734,681L889,760Z" fill="rgb(99,105,118)" stroke="rgb(99,105,118)" stroke-width="1.51"/><path d="M710,627L734,681L810,656Z" fill="rgb(116,124,141)" stroke="rgb(116,124,141)" stroke-width="1.51"/><path d="M1080,432L1008,358L1016,522Z" fill="rgb(129,139,158)" stroke="rgb(129,139,158)" stroke-width="1.51"/><path d="M889,760L957,874L1013,709Z" fill="rgb(90,97,106)" stroke="rgb(90,97,106)" stroke-width="1.51"/><path d="M894,902L957,874L889,760Z" fill="rgb(109,121,132)" stroke="rgb(109,121,132)" stroke-width="1.51"/><path d="M793,492L710,627L810,656Z" fill="rgb(128,137,157)" stroke="rgb(128,137,157)" stroke-width="1.51"/><path d="M1111,887L1147,835L1047,718Z" fill="rgb(80,87,92)" stroke="rgb(80,87,92)" stroke-width="1.51"/><path d="M793,492L703,534L710,627Z" fill="rgb(141,153,176)" stroke="rgb(141,153,176)" stroke-width="1.51"/><path d="M604,499L703,534L682,310Z" fill="rgb(175,191,221)" stroke="rgb(175,191,221)" stroke-width="1.51"/><path d="M1148,747L1266,602L1087,563Z" fill="rgb(70,72,79)" stroke="rgb(70,72,79)" stroke-width="1.51"/><path d="M1080,432L1118,358L1008,358Z" fill="rgb(137,148,169)" stroke="rgb(137,148,169)" stroke-width="1.51"/><path d="M1336,720L1266,602L1148,747Z" fill="rgb(50,51,52)" stroke="rgb(50,51,52)" stroke-width="1.51"/><path d="M1253,497L1118,358L1080,432Z" fill="rgb(116,125,142)" stroke="rgb(116,125,142)" stroke-width="1.51"/><path d="M957,874L1111,887L1047,718Z" fill="rgb(90,99,105)" stroke="rgb(90,99,105)" stroke-width="1.51"/><path d="M741,864L894,902L889,760Z" fill="rgb(117,130,143)" stroke="rgb(117,130,143)" stroke-width="1.51"/><path d="M1266,602L1253,497L1087,563Z" fill="rgb(83,88,96)" stroke="rgb(83,88,96)" stroke-width="1.51"/><path d="M1091,945L1111,887L957,874Z" fill="rgb(105,118,125)" stroke="rgb(105,118,125)" stroke-width="1.51"/><path d="M1266,602L1284,553L1253,497Z" fill="rgb(76,80,87)" stroke="rgb(76,80,87)" stroke-width="1.51"/><path d="M1008,358L813,331L899,548Z" fill="rgb(151,164,189)" stroke="rgb(151,164,189)" stroke-width="1.51"/><path d="M1010,249L813,331L1008,358Z" fill="rgb(151,166,198)" stroke="rgb(151,166,198)" stroke-width="1.51"/><path d="M703,534L641,598L710,627Z" fill="rgb(140,151,173)" stroke="rgb(140,151,173)" stroke-width="1.51"/><path d="M710,627L641,598L734,681Z" fill="rgb(128,137,156)" stroke="rgb(128,137,156)" stroke-width="1.51"/><path d="M734,681L741,864L889,760Z" fill="rgb(108,117,130)" stroke="rgb(108,117,130)" stroke-width="1.51"/><path d="M604,499L641,598L703,534Z" fill="rgb(154,167,193)" stroke="rgb(154,167,193)" stroke-width="1.51"/><path d="M543,805L741,864L734,681Z" fill="rgb(125,137,154)" stroke="rgb(125,137,154)" stroke-width="1.51"/><path d="M1212,988L1287,818L1147,835Z" fill="rgb(80,90,92)" stroke="rgb(80,90,92)" stroke-width="1.51"/><path d="M1147,835L1287,818L1148,747Z" fill="rgb(66,71,74)" stroke="rgb(66,71,74)" stroke-width="1.51"/><path d="M965,969L1091,945L957,874Z" fill="rgb(116,132,141)" stroke="rgb(116,132,141)" stroke-width="1.51"/><path d="M894,902L965,969L957,874Z" fill="rgb(122,137,148)" stroke="rgb(122,137,148)" stroke-width="1.51"/><path d="M875,963L965,969L894,902Z" fill="rgb(132,150,162)" stroke="rgb(132,150,162)" stroke-width="1.51"/><path d="M741,864L875,963L894,902Z" fill="rgb(134,151,164)" stroke="rgb(134,151,164)" stroke-width="1.51"/><path d="M1118,358L1010,249L1008,358Z" fill="rgb(139,152,179)" stroke="rgb(139,152,179)" stroke-width="1.51"/><path d="M1212,988L1147,835L1111,887Z" fill="rgb(92,104,109)" stroke="rgb(92,104,109)" stroke-width="1.51"/><path d="M1266,602L1451,607L1284,553Z" fill="rgb(74,77,83)" stroke="rgb(74,77,83)" stroke-width="1.51"/><path d="M1253,497L1251,360L1118,358Z" fill="rgb(114,122,139)" stroke="rgb(114,122,139)" stroke-width="1.51"/><path d="M1118,358L1040,221L1010,249Z" fill="rgb(131,145,176)" stroke="rgb(131,145,176)" stroke-width="1.51"/><path d="M1300,402L1251,360L1253,497Z" fill="rgb(104,111,124)" stroke="rgb(104,111,124)" stroke-width="1.51"/><path d="M1287,818L1336,720L1148,747Z" fill="rgb(51,53,54)" stroke="rgb(51,53,54)" stroke-width="1.51"/><path d="M1376,457L1300,402L1253,497Z" fill="rgb(99,105,118)" stroke="rgb(99,105,118)" stroke-width="1.51"/><path d="M1376,457L1253,497L1284,553Z" fill="rgb(87,93,103)" stroke="rgb(87,93,103)" stroke-width="1.51"/><path d="M682,310L703,534L793,492Z" fill="rgb(167,182,211)" stroke="rgb(167,182,211)" stroke-width="1.51"/><path d="M700,188L682,310L813,331Z" fill="rgb(173,193,235)" stroke="rgb(173,193,235)" stroke-width="1.51"/><path d="M1257,249L1040,221L1118,358Z" fill="rgb(121,133,161)" stroke="rgb(121,133,161)" stroke-width="1.51"/><path d="M813,331L682,310L793,492Z" fill="rgb(178,194,226)" stroke="rgb(178,194,226)" stroke-width="1.51"/><path d="M884,189L813,331L1010,249Z" fill="rgb(148,165,203)" stroke="rgb(148,165,203)" stroke-width="1.51"/><path d="M1451,607L1376,457L1284,553Z" fill="rgb(88,94,103)" stroke="rgb(88,94,103)" stroke-width="1.51"/><path d="M1300,402L1257,249L1251,360Z" fill="rgb(113,122,141)" stroke="rgb(113,122,141)" stroke-width="1.51"/><path d="M741,864L733,975L875,963Z" fill="rgb(146,166,181)" stroke="rgb(146,166,181)" stroke-width="1.51"/><path d="M875,963L879,1106L965,969Z" fill="rgb(148,171,185)" stroke="rgb(148,171,185)" stroke-width="1.51"/><path d="M629,987L733,975L741,864Z" fill="rgb(158,180,199)" stroke="rgb(158,180,199)" stroke-width="1.51"/><path d="M542,747L734,681L641,598Z" fill="rgb(125,135,154)" stroke="rgb(125,135,154)" stroke-width="1.51"/><path d="M941,153L884,189L1010,249Z" fill="rgb(133,152,193)" stroke="rgb(133,152,193)" stroke-width="1.51"/><path d="M1091,945L1212,988L1111,887Z" fill="rgb(102,117,123)" stroke="rgb(102,117,123)" stroke-width="1.51"/><path d="M1433,759L1451,607L1336,720Z" fill="rgb(59,64,65)" stroke="rgb(59,64,65)" stroke-width="1.51"/><path d="M1097,1103L1212,988L1091,945Z" fill="rgb(119,138,144)" stroke="rgb(119,138,144)" stroke-width="1.51"/><path d="M1097,1103L1091,945L965,969Z" fill="rgb(128,148,157)" stroke="rgb(128,148,157)" stroke-width="1.51"/><path d="M461,618L542,747L641,598Z" fill="rgb(122,133,158)" stroke="rgb(122,133,158)" stroke-width="1.51"/><path d="M1366,213L1257,249L1300,402Z" fill="rgb(109,119,143)" stroke="rgb(109,119,143)" stroke-width="1.51"/><path d="M1251,360L1257,249L1118,358Z" fill="rgb(119,129,151)" stroke="rgb(119,129,151)" stroke-width="1.51"/><path d="M1040,221L941,153L1010,249Z" fill="rgb(128,145,184)" stroke="rgb(128,145,184)" stroke-width="1.51"/><path d="M700,188L623,279L682,310Z" fill="rgb(179,200,246)" stroke="rgb(179,200,246)" stroke-width="1.51"/><path d="M1081,66L941,153L1040,221Z" fill="rgb(115,134,178)" stroke="rgb(115,134,178)" stroke-width="1.51"/><path d="M604,499L521,487L641,598Z" fill="rgb(155,169,199)" stroke="rgb(155,169,199)" stroke-width="1.51"/><path d="M535,311L521,487L604,499Z" fill="rgb(174,192,229)" stroke="rgb(174,192,229)" stroke-width="1.51"/><path d="M542,747L543,805L734,681Z" fill="rgb(118,128,147)" stroke="rgb(118,128,147)" stroke-width="1.51"/><path d="M364,766L543,805L542,747Z" fill="rgb(114,128,154)" stroke="rgb(114,128,154)" stroke-width="1.51"/><path d="M1336,720L1451,607L1266,602Z" fill="rgb(64,67,71)" stroke="rgb(64,67,71)" stroke-width="1.51"/><path d="M1433,759L1336,720L1287,818Z" fill="rgb(58,62,62)" stroke="rgb(58,62,62)" stroke-width="1.51"/><path d="M1461,869L1433,759L1287,818Z" fill="rgb(72,81,82)" stroke="rgb(72,81,82)" stroke-width="1.51"/><path d="M1212,988L1316,958L1287,818Z" fill="rgb(83,94,95)" stroke="rgb(83,94,95)" stroke-width="1.51"/><path d="M682,310L535,311L604,499Z" fill="rgb(193,212,250)" stroke="rgb(193,212,250)" stroke-width="1.51"/><path d="M700,188L813,331L884,189Z" fill="rgb(158,178,221)" stroke="rgb(158,178,221)" stroke-width="1.51"/><path d="M733,975L879,1106L875,963Z" fill="rgb(159,183,199)" stroke="rgb(159,183,199)" stroke-width="1.51"/><path d="M1212,988L1276,1108L1316,958Z" fill="rgb(104,121,124)" stroke="rgb(104,121,124)" stroke-width="1.51"/><path d="M690,1152L879,1106L733,975Z" fill="rgb(182,212,230)" stroke="rgb(182,212,230)" stroke-width="1.51"/><path d="M994,1146L1097,1103L965,969Z" fill="rgb(147,173,183)" stroke="rgb(147,173,183)" stroke-width="1.51"/><path d="M893,100L700,188L884,189Z" fill="rgb(142,164,214)" stroke="rgb(142,164,214)" stroke-width="1.51"/><path d="M543,805L629,987L741,864Z" fill="rgb(153,172,191)" stroke="rgb(153,172,191)" stroke-width="1.51"/><path d="M521,487L461,618L641,598Z" fill="rgb(141,155,185)" stroke="rgb(141,155,185)" stroke-width="1.51"/><path d="M1257,249L1225,159L1040,221Z" fill="rgb(106,121,154)" stroke="rgb(106,121,154)" stroke-width="1.51"/><path d="M1366,213L1225,159L1257,249Z" fill="rgb(94,106,136)" stroke="rgb(94,106,136)" stroke-width="1.51"/><path d="M941,153L893,100L884,189Z" fill="rgb(130,151,199)" stroke="rgb(130,151,199)" stroke-width="1.51"/><path d="M971,40L893,100L941,153Z" fill="rgb(118,141,192)" stroke="rgb(118,141,192)" stroke-width="1.51"/><path d="M879,1106L994,1146L965,969Z" fill="rgb(157,184,197)" stroke="rgb(157,184,197)" stroke-width="1.51"/><path d="M623,279L535,311L682,310Z" fill="rgb(187,208,253)" stroke="rgb(187,208,253)" stroke-width="1.51"/><path d="M521,487L328,507L461,618Z" fill="rgb(139,156,193)" stroke="rgb(139,156,193)" stroke-width="1.51"/><path d="M504,184L535,311L623,279Z" fill="rgb(175,198,250)" stroke="rgb(175,198,250)" stroke-width="1.51"/><path d="M461,618L435,663L542,747Z" fill="rgb(112,124,151)" stroke="rgb(112,124,151)" stroke-width="1.51"/><path d="M543,805L437,947L629,987Z" fill="rgb(150,174,198)" stroke="rgb(150,174,198)" stroke-width="1.51"/><path d="M351,613L435,663L461,618Z" fill="rgb(116,131,163)" stroke="rgb(116,131,163)" stroke-width="1.51"/><path d="M1451,607L1502,463L1376,457Z" fill="rgb(103,113,123)" stroke="rgb(103,113,123)" stroke-width="1.51"/><path d="M1496,351L1366,213L1300,402Z" fill="rgb(124,136,157)" stroke="rgb(124,136,157)" stroke-width="1.51"/><path d="M1537,494L1502,463L1451,607Z" fill="rgb(107,118,128)" stroke="rgb(107,118,128)" stroke-width="1.51"/><path d="M1469,929L1461,869L1316,958Z" fill="rgb(97,113,115)" stroke="rgb(97,113,115)" stroke-width="1.51"/><path d="M1316,958L1461,869L1287,818Z" fill="rgb(81,93,94)" stroke="rgb(81,93,94)" stroke-width="1.51"/><path d="M1433,759L1533,652L1451,607Z" fill="rgb(72,79,81)" stroke="rgb(72,79,81)" stroke-width="1.51"/><path d="M1258,1121L1276,1108L1212,988Z" fill="rgb(118,139,143)" stroke="rgb(118,139,143)" stroke-width="1.51"/><path d="M994,1146L1097,1159L1097,1103Z" fill="rgb(143,168,178)" stroke="rgb(143,168,178)" stroke-width="1.51"/><path d="M1225,159L1081,66L1040,221Z" fill="rgb(104,122,162)" stroke="rgb(104,122,162)" stroke-width="1.51"/><path d="M1533,719L1533,652L1433,759Z" fill="rgb(67,74,75)" stroke="rgb(67,74,75)" stroke-width="1.51"/><path d="M1225,159L1166,-9L1081,66Z" fill="rgb(87,107,152)" stroke="rgb(87,107,152)" stroke-width="1.51"/><path d="M1496,351L1300,402L1376,457Z" fill="rgb(120,130,146)" stroke="rgb(120,130,146)" stroke-width="1.51"/><path d="M1461,869L1533,719L1433,759Z" fill="rgb(75,85,86)" stroke="rgb(75,85,86)" stroke-width="1.51"/><path d="M1502,463L1496,351L1376,457Z" fill="rgb(124,136,151)" stroke="rgb(124,136,151)" stroke-width="1.51"/><path d="M1533,652L1537,494L1451,607Z" fill="rgb(95,105,112)" stroke="rgb(95,105,112)" stroke-width="1.51"/><path d="M1676,641L1537,494L1533,652Z" fill="rgb(101,113,120)" stroke="rgb(101,113,120)" stroke-width="1.51"/><path d="M893,100L691,67L700,188Z" fill="rgb(143,168,224)" stroke="rgb(143,168,224)" stroke-width="1.51"/><path d="M1081,66L971,40L941,153Z" fill="rgb(108,130,181)" stroke="rgb(108,130,181)" stroke-width="1.51"/><path d="M1258,1121L1212,988L1097,1103Z" fill="rgb(125,147,153)" stroke="rgb(125,147,153)" stroke-width="1.51"/><path d="M1097,1159L1258,1121L1097,1103Z" fill="rgb(132,156,162)" stroke="rgb(132,156,162)" stroke-width="1.51"/><path d="M1615,317L1496,351L1502,463Z" fill="rgb(144,162,180)" stroke="rgb(144,162,180)" stroke-width="1.51"/><path d="M1461,869L1597,855L1533,719Z" fill="rgb(88,102,103)" stroke="rgb(88,102,103)" stroke-width="1.51"/><path d="M1477,1118L1469,929L1316,958Z" fill="rgb(116,137,140)" stroke="rgb(116,137,140)" stroke-width="1.51"/><path d="M535,311L446,344L521,487Z" fill="rgb(181,202,246)" stroke="rgb(181,202,246)" stroke-width="1.51"/><path d="M399,255L446,344L535,311Z" fill="rgb(174,197,250)" stroke="rgb(174,197,250)" stroke-width="1.51"/><path d="M629,987L690,1152L733,975Z" fill="rgb(183,213,233)" stroke="rgb(183,213,233)" stroke-width="1.51"/><path d="M879,1106L929,1247L994,1146Z" fill="rgb(160,188,201)" stroke="rgb(160,188,201)" stroke-width="1.51"/><path d="M994,1146L929,1247L1097,1159Z" fill="rgb(150,177,188)" stroke="rgb(150,177,188)" stroke-width="1.51"/><path d="M612,1134L690,1152L629,987Z" fill="rgb(199,233,255)" stroke="rgb(199,233,255)" stroke-width="1.51"/><path d="M1366,213L1335,119L1225,159Z" fill="rgb(90,105,139)" stroke="rgb(90,105,139)" stroke-width="1.51"/><path d="M1081,66L1124,-47L971,40Z" fill="rgb(89,114,168)" stroke="rgb(89,114,168)" stroke-width="1.51"/><path d="M1437,61L1335,119L1366,213Z" fill="rgb(93,112,150)" stroke="rgb(93,112,150)" stroke-width="1.51"/><path d="M446,344L397,411L521,487Z" fill="rgb(169,190,233)" stroke="rgb(169,190,233)" stroke-width="1.51"/><path d="M700,188L504,184L623,279Z" fill="rgb(172,197,250)" stroke="rgb(172,197,250)" stroke-width="1.51"/><path d="M782,-27L691,67L893,100Z" fill="rgb(127,156,217)" stroke="rgb(127,156,217)" stroke-width="1.51"/><path d="M690,1152L719,1179L879,1106Z" fill="rgb(183,214,232)" stroke="rgb(183,214,232)" stroke-width="1.51"/><path d="M1496,351L1473,241L1366,213Z" fill="rgb(123,139,166)" stroke="rgb(123,139,166)" stroke-width="1.51"/><path d="M1601,288L1473,241L1496,351Z" fill="rgb(136,155,180)" stroke="rgb(136,155,180)" stroke-width="1.51"/><path d="M328,507L351,613L461,618Z" fill="rgb(125,141,179)" stroke="rgb(125,141,179)" stroke-width="1.51"/><path d="M435,663L364,766L542,747Z" fill="rgb(101,113,139)" stroke="rgb(101,113,139)" stroke-width="1.51"/><path d="M351,613L364,766L435,663Z" fill="rgb(103,116,148)" stroke="rgb(103,116,148)" stroke-width="1.51"/><path d="M410,901L437,947L543,805Z" fill="rgb(138,159,188)" stroke="rgb(138,159,188)" stroke-width="1.51"/><path d="M690,1152L556,1181L719,1179Z" fill="rgb(197,230,252)" stroke="rgb(197,230,252)" stroke-width="1.51"/><path d="M364,766L410,901L543,805Z" fill="rgb(122,140,168)" stroke="rgb(122,140,168)" stroke-width="1.51"/><path d="M499,1117L612,1134L629,987Z" fill="rgb(194,228,254)" stroke="rgb(194,228,254)" stroke-width="1.51"/><path d="M811,1238L929,1247L879,1106Z" fill="rgb(168,197,212)" stroke="rgb(168,197,212)" stroke-width="1.51"/><path d="M1251,1272L1271,1258L1258,1121Z" fill="rgb(118,140,144)" stroke="rgb(118,140,144)" stroke-width="1.51"/><path d="M691,67L632,79L700,188Z" fill="rgb(153,181,240)" stroke="rgb(153,181,240)" stroke-width="1.51"/><path d="M446,344L399,255L397,411Z" fill="rgb(175,198,250)" stroke="rgb(175,198,250)" stroke-width="1.51"/><path d="M632,79L504,184L700,188Z" fill="rgb(162,189,247)" stroke="rgb(162,189,247)" stroke-width="1.51"/><path d="M556,1181L811,1238L719,1179Z" fill="rgb(192,224,245)" stroke="rgb(192,224,245)" stroke-width="1.51"/><path d="M719,1179L811,1238L879,1106Z" fill="rgb(177,208,225)" stroke="rgb(177,208,225)" stroke-width="1.51"/><path d="M1321,-4L1166,-9L1225,159Z" fill="rgb(73,93,138)" stroke="rgb(73,93,138)" stroke-width="1.51"/><path d="M971,40L782,-27L893,100Z" fill="rgb(114,141,199)" stroke="rgb(114,141,199)" stroke-width="1.51"/><path d="M236,676L321,845L364,766Z" fill="rgb(97,114,147)" stroke="rgb(97,114,147)" stroke-width="1.51"/><path d="M397,411L328,507L521,487Z" fill="rgb(153,172,215)" stroke="rgb(153,172,215)" stroke-width="1.51"/><path d="M277,497L328,507L397,411Z" fill="rgb(145,166,212)" stroke="rgb(145,166,212)" stroke-width="1.51"/><path d="M1469,929L1597,855L1461,869Z" fill="rgb(101,118,120)" stroke="rgb(101,118,120)" stroke-width="1.51"/><path d="M1533,719L1676,641L1533,652Z" fill="rgb(85,95,99)" stroke="rgb(85,95,99)" stroke-width="1.51"/><path d="M1602,970L1597,855L1469,929Z" fill="rgb(114,135,138)" stroke="rgb(114,135,138)" stroke-width="1.51"/><path d="M764,-130L782,-27L895,-163Z" fill="rgb(116,146,210)" stroke="rgb(116,146,210)" stroke-width="1.51"/><path d="M691,67L677,-35L632,79Z" fill="rgb(141,173,239)" stroke="rgb(141,173,239)" stroke-width="1.51"/><path d="M1166,-9L1124,-47L1081,66Z" fill="rgb(79,103,155)" stroke="rgb(79,103,155)" stroke-width="1.51"/><path d="M1165,-131L1124,-47L1166,-9Z" fill="rgb(75,99,150)" stroke="rgb(75,99,150)" stroke-width="1.51"/><path d="M504,184L399,255L535,311Z" fill="rgb(166,191,248)" stroke="rgb(166,191,248)" stroke-width="1.51"/><path d="M452,164L399,255L504,184Z" fill="rgb(155,183,246)" stroke="rgb(155,183,246)" stroke-width="1.51"/><path d="M500,42L504,184L632,79Z" fill="rgb(147,178,244)" stroke="rgb(147,178,244)" stroke-width="1.51"/><path d="M500,42L452,164L504,184Z" fill="rgb(146,177,244)" stroke="rgb(146,177,244)" stroke-width="1.51"/><path d="M612,1134L556,1181L690,1152Z" fill="rgb(197,231,255)" stroke="rgb(197,231,255)" stroke-width="1.51"/><path d="M437,947L499,1117L629,987Z" fill="rgb(173,205,231)" stroke="rgb(173,205,231)" stroke-width="1.51"/><path d="M291,1039L499,1117L437,947Z" fill="rgb(168,201,236)" stroke="rgb(168,201,236)" stroke-width="1.51"/><path d="M410,901L298,1001L437,947Z" fill="rgb(146,173,208)" stroke="rgb(146,173,208)" stroke-width="1.51"/><path d="M364,766L321,845L410,901Z" fill="rgb(118,139,171)" stroke="rgb(118,139,171)" stroke-width="1.51"/><path d="M236,676L364,766L351,613Z" fill="rgb(97,111,145)" stroke="rgb(97,111,145)" stroke-width="1.51"/><path d="M1727,704L1676,641L1533,719Z" fill="rgb(89,101,104)" stroke="rgb(89,101,104)" stroke-width="1.51"/><path d="M1537,494L1615,317L1502,463Z" fill="rgb(135,151,167)" stroke="rgb(135,151,167)" stroke-width="1.51"/><path d="M499,1117L556,1181L612,1134Z" fill="rgb(192,227,254)" stroke="rgb(192,227,254)" stroke-width="1.51"/><path d="M1437,61L1321,-4L1335,119Z" fill="rgb(80,101,145)" stroke="rgb(80,101,145)" stroke-width="1.51"/><path d="M1335,119L1321,-4L1225,159Z" fill="rgb(77,95,134)" stroke="rgb(77,95,134)" stroke-width="1.51"/><path d="M1751,533L1615,317L1537,494Z" fill="rgb(140,159,174)" stroke="rgb(140,159,174)" stroke-width="1.51"/><path d="M1615,317L1601,288L1496,351Z" fill="rgb(146,167,189)" stroke="rgb(146,167,189)" stroke-width="1.51"/><path d="M1276,1108L1477,1118L1316,958Z" fill="rgb(121,144,148)" stroke="rgb(121,144,148)" stroke-width="1.51"/><path d="M1258,1121L1271,1258L1276,1108Z" fill="rgb(117,139,142)" stroke="rgb(117,139,142)" stroke-width="1.51"/><path d="M1251,1272L1258,1121L1097,1159Z" fill="rgb(125,148,153)" stroke="rgb(125,148,153)" stroke-width="1.51"/><path d="M328,507L277,497L351,613Z" fill="rgb(129,147,190)" stroke="rgb(129,147,190)" stroke-width="1.51"/><path d="M181,326L277,497L397,411Z" fill="rgb(154,178,231)" stroke="rgb(154,178,231)" stroke-width="1.51"/><path d="M1437,61L1366,213L1473,241Z" fill="rgb(106,124,160)" stroke="rgb(106,124,160)" stroke-width="1.51"/><path d="M1271,1258L1477,1118L1276,1108Z" fill="rgb(123,147,150)" stroke="rgb(123,147,150)" stroke-width="1.51"/><path d="M1487,1273L1519,1148L1477,1118Z" fill="rgb(143,173,177)" stroke="rgb(143,173,177)" stroke-width="1.51"/><path d="M929,1247L1251,1272L1097,1159Z" fill="rgb(139,164,173)" stroke="rgb(139,164,173)" stroke-width="1.51"/><path d="M19,1260L1251,1272L929,1247Z" fill="rgb(187,219,237)" stroke="rgb(187,219,237)" stroke-width="1.51"/><path d="M782,-27L677,-35L691,67Z" fill="rgb(128,160,228)" stroke="rgb(128,160,228)" stroke-width="1.51"/><path d="M764,-130L677,-35L782,-27Z" fill="rgb(125,157,223)" stroke="rgb(125,157,223)" stroke-width="1.51"/><path d="M1597,855L1727,704L1533,719Z" fill="rgb(87,100,102)" stroke="rgb(87,100,102)" stroke-width="1.51"/><path d="M1477,1118L1602,970L1469,929Z" fill="rgb(129,154,158)" stroke="rgb(129,154,158)" stroke-width="1.51"/><path d="M1582,159L1437,61L1473,241Z" fill="rgb(111,134,171)" stroke="rgb(111,134,171)" stroke-width="1.51"/><path d="M186,576L236,676L351,613Z" fill="rgb(105,122,164)" stroke="rgb(105,122,164)" stroke-width="1.51"/><path d="M558,-21L500,42L632,79Z" fill="rgb(136,171,242)" stroke="rgb(136,171,242)" stroke-width="1.51"/><path d="M452,164L301,122L399,255Z" fill="rgb(145,176,244)" stroke="rgb(145,176,244)" stroke-width="1.51"/><path d="M85,540L186,576L277,497Z" fill="rgb(116,138,189)" stroke="rgb(116,138,189)" stroke-width="1.51"/><path d="M499,1117L515,1200L556,1181Z" fill="rgb(189,224,253)" stroke="rgb(189,224,253)" stroke-width="1.51"/><path d="M556,1181L515,1200L811,1238Z" fill="rgb(198,232,255)" stroke="rgb(198,232,255)" stroke-width="1.51"/><path d="M396,1196L515,1200L499,1117Z" fill="rgb(184,220,252)" stroke="rgb(184,220,252)" stroke-width="1.51"/><path d="M1676,641L1751,533L1537,494Z" fill="rgb(119,135,145)" stroke="rgb(119,135,145)" stroke-width="1.51"/><path d="M1740,789L1727,704L1597,855Z" fill="rgb(101,117,120)" stroke="rgb(101,117,120)" stroke-width="1.51"/><path d="M1124,-47L1078,-137L971,40Z" fill="rgb(86,112,167)" stroke="rgb(86,112,167)" stroke-width="1.51"/><path d="M1165,-131L1078,-137L1124,-47Z" fill="rgb(78,103,155)" stroke="rgb(78,103,155)" stroke-width="1.51"/><path d="M1601,288L1582,159L1473,241Z" fill="rgb(131,152,183)" stroke="rgb(131,152,183)" stroke-width="1.51"/><path d="M1735,196L1582,159L1601,288Z" fill="rgb(139,165,199)" stroke="rgb(139,165,199)" stroke-width="1.51"/><path d="M1742,324L1601,288L1615,317Z" fill="rgb(156,179,204)" stroke="rgb(156,179,204)" stroke-width="1.51"/><path d="M677,-35L558,-21L632,79Z" fill="rgb(138,171,242)" stroke="rgb(138,171,242)" stroke-width="1.51"/><path d="M599,-160L558,-21L677,-35Z" fill="rgb(135,170,242)" stroke="rgb(135,170,242)" stroke-width="1.51"/><path d="M1602,970L1645,981L1597,855Z" fill="rgb(125,150,153)" stroke="rgb(125,150,153)" stroke-width="1.51"/><path d="M1477,1118L1519,1148L1602,970Z" fill="rgb(147,179,184)" stroke="rgb(147,179,184)" stroke-width="1.51"/><path d="M1487,1273L1477,1118L1271,1258Z" fill="rgb(132,159,162)" stroke="rgb(132,159,162)" stroke-width="1.51"/><path d="M1667,1093L1645,981L1602,970Z" fill="rgb(146,178,182)" stroke="rgb(146,178,182)" stroke-width="1.51"/><path d="M1469,-53L1321,-4L1437,61Z" fill="rgb(76,102,151)" stroke="rgb(76,102,151)" stroke-width="1.51"/><path d="M1372,-162L1165,-131L1321,-4Z" fill="rgb(60,83,130)" stroke="rgb(60,83,130)" stroke-width="1.51"/><path d="M1321,-4L1165,-131L1166,-9Z" fill="rgb(68,90,140)" stroke="rgb(68,90,140)" stroke-width="1.51"/><path d="M895,-163L782,-27L971,40Z" fill="rgb(108,136,198)" stroke="rgb(108,136,198)" stroke-width="1.51"/><path d="M321,845L298,1001L410,901Z" fill="rgb(134,160,196)" stroke="rgb(134,160,196)" stroke-width="1.51"/><path d="M183,905L298,1001L321,845Z" fill="rgb(128,155,194)" stroke="rgb(128,155,194)" stroke-width="1.51"/><path d="M1809,560L1751,533L1676,641Z" fill="rgb(125,145,154)" stroke="rgb(125,145,154)" stroke-width="1.51"/><path d="M910,-191L895,-163L1078,-137Z" fill="rgb(98,125,184)" stroke="rgb(98,125,184)" stroke-width="1.51"/><path d="M1078,-137L895,-163L971,40Z" fill="rgb(95,123,180)" stroke="rgb(95,123,180)" stroke-width="1.51"/><path d="M1809,560L1779,533L1751,533Z" fill="rgb(137,160,170)" stroke="rgb(137,160,170)" stroke-width="1.51"/><path d="M1778,873L1740,789L1597,855Z" fill="rgb(115,136,139)" stroke="rgb(115,136,139)" stroke-width="1.51"/><path d="M277,497L186,576L351,613Z" fill="rgb(119,138,182)" stroke="rgb(119,138,182)" stroke-width="1.51"/><path d="M203,1014L291,1039L298,1001Z" fill="rgb(150,186,227)" stroke="rgb(150,186,227)" stroke-width="1.51"/><path d="M181,326L397,411L399,255Z" fill="rgb(165,191,248)" stroke="rgb(165,191,248)" stroke-width="1.51"/><path d="M298,1001L291,1039L437,947Z" fill="rgb(153,185,222)" stroke="rgb(153,185,222)" stroke-width="1.51"/><path d="M183,905L321,845L236,676Z" fill="rgb(102,122,160)" stroke="rgb(102,122,160)" stroke-width="1.51"/><path d="M1751,533L1742,324L1615,317Z" fill="rgb(162,186,205)" stroke="rgb(162,186,205)" stroke-width="1.51"/><path d="M1809,560L1676,641L1727,704Z" fill="rgb(112,129,135)" stroke="rgb(112,129,135)" stroke-width="1.51"/><path d="M895,-163L910,-191L764,-130Z" fill="rgb(111,140,203)" stroke="rgb(111,140,203)" stroke-width="1.51"/><path d="M1165,-131L910,-191L1078,-137Z" fill="rgb(87,113,168)" stroke="rgb(87,113,168)" stroke-width="1.51"/><path d="M1766,335L1742,324L1751,533Z" fill="rgb(168,194,211)" stroke="rgb(168,194,211)" stroke-width="1.51"/><path d="M515,1200L19,1260L811,1238Z" fill="rgb(182,219,252)" stroke="rgb(182,219,252)" stroke-width="1.51"/><path d="M291,1039L396,1196L499,1117Z" fill="rgb(177,215,250)" stroke="rgb(177,215,250)" stroke-width="1.51"/><path d="M1568,-53L1437,61L1582,159Z" fill="rgb(99,127,174)" stroke="rgb(99,127,174)" stroke-width="1.51"/><path d="M1568,-53L1469,-53L1437,61Z" fill="rgb(85,115,165)" stroke="rgb(85,115,165)" stroke-width="1.51"/><path d="M1251,1272L1487,1273L1271,1258Z" fill="rgb(122,146,150)" stroke="rgb(122,146,150)" stroke-width="1.51"/><path d="M1519,1148L1667,1093L1602,970Z" fill="rgb(153,188,193)" stroke="rgb(153,188,193)" stroke-width="1.51"/><path d="M1645,981L1778,873L1597,855Z" fill="rgb(125,150,153)" stroke="rgb(125,150,153)" stroke-width="1.51"/><path d="M1487,1273L1588,1181L1519,1148Z" fill="rgb(148,179,184)" stroke="rgb(148,179,184)" stroke-width="1.51"/><path d="M500,42L301,122L452,164Z" fill="rgb(135,169,242)" stroke="rgb(135,169,242)" stroke-width="1.51"/><path d="M405,-44L301,122L500,42Z" fill="rgb(120,160,239)" stroke="rgb(120,160,239)" stroke-width="1.51"/><path d="M1779,533L1766,335L1751,533Z" fill="rgb(153,177,192)" stroke="rgb(153,177,192)" stroke-width="1.51"/><path d="M1862,732L1809,560L1727,704Z" fill="rgb(113,131,136)" stroke="rgb(113,131,136)" stroke-width="1.51"/><path d="M301,122L265,172L399,255Z" fill="rgb(139,172,243)" stroke="rgb(139,172,243)" stroke-width="1.51"/><path d="M1742,324L1735,196L1601,288Z" fill="rgb(155,181,210)" stroke="rgb(155,181,210)" stroke-width="1.51"/><path d="M1882,459L1766,335L1779,533Z" fill="rgb(165,191,208)" stroke="rgb(165,191,208)" stroke-width="1.51"/><path d="M1588,1181L1667,1093L1519,1148Z" fill="rgb(155,189,194)" stroke="rgb(155,189,194)" stroke-width="1.51"/><path d="M1740,789L1862,732L1727,704Z" fill="rgb(103,120,123)" stroke="rgb(103,120,123)" stroke-width="1.51"/><path d="M1836,983L1778,873L1645,981Z" fill="rgb(145,176,180)" stroke="rgb(145,176,180)" stroke-width="1.51"/><path d="M291,1039L277,1201L396,1196Z" fill="rgb(170,209,249)" stroke="rgb(170,209,249)" stroke-width="1.51"/><path d="M81,748L183,905L236,676Z" fill="rgb(88,108,149)" stroke="rgb(88,108,149)" stroke-width="1.51"/><path d="M265,172L181,326L399,255Z" fill="rgb(147,178,244)" stroke="rgb(147,178,244)" stroke-width="1.51"/><path d="M186,576L81,748L236,676Z" fill="rgb(87,105,148)" stroke="rgb(87,105,148)" stroke-width="1.51"/><path d="M558,-21L405,-44L500,42Z" fill="rgb(122,161,239)" stroke="rgb(122,161,239)" stroke-width="1.51"/><path d="M764,-130L599,-160L677,-35Z" fill="rgb(133,166,235)" stroke="rgb(133,166,235)" stroke-width="1.51"/><path d="M910,-191L599,-160L764,-130Z" fill="rgb(123,154,220)" stroke="rgb(123,154,220)" stroke-width="1.51"/><path d="M1847,289L1735,196L1742,324Z" fill="rgb(165,195,225)" stroke="rgb(165,195,225)" stroke-width="1.51"/><path d="M183,905L203,1014L298,1001Z" fill="rgb(137,170,212)" stroke="rgb(137,170,212)" stroke-width="1.51"/><path d="M481,-123L405,-44L558,-21Z" fill="rgb(121,161,239)" stroke="rgb(121,161,239)" stroke-width="1.51"/><path d="M121,246L181,326L265,172Z" fill="rgb(137,171,242)" stroke="rgb(137,171,242)" stroke-width="1.51"/><path d="M1469,-53L1372,-162L1321,-4Z" fill="rgb(73,98,147)" stroke="rgb(73,98,147)" stroke-width="1.51"/><path d="M1165,-131L1372,-162L910,-191Z" fill="rgb(75,100,151)" stroke="rgb(75,100,151)" stroke-width="1.51"/><path d="M1463,-134L1372,-162L1469,-53Z" fill="rgb(79,106,155)" stroke="rgb(79,106,155)" stroke-width="1.51"/><path d="M599,-160L481,-123L558,-21Z" fill="rgb(128,165,240)" stroke="rgb(128,165,240)" stroke-width="1.51"/><path d="M1729,129L1568,-53L1582,159Z" fill="rgb(115,146,192)" stroke="rgb(115,146,192)" stroke-width="1.51"/><path d="M181,326L85,540L277,497Z" fill="rgb(134,159,215)" stroke="rgb(134,159,215)" stroke-width="1.51"/><path d="M183,905L57,954L203,1014Z" fill="rgb(125,159,206)" stroke="rgb(125,159,206)" stroke-width="1.51"/><path d="M1568,-53L1463,-134L1469,-53Z" fill="rgb(86,116,167)" stroke="rgb(86,116,167)" stroke-width="1.51"/><path d="M1778,873L1862,732L1740,789Z" fill="rgb(117,139,142)" stroke="rgb(117,139,142)" stroke-width="1.51"/><path d="M1809,560L1882,459L1779,533Z" fill="rgb(149,173,186)" stroke="rgb(149,173,186)" stroke-width="1.51"/><path d="M1855,129L1729,129L1735,196Z" fill="rgb(146,180,221)" stroke="rgb(146,180,221)" stroke-width="1.51"/><path d="M1906,863L1862,732L1778,873Z" fill="rgb(129,156,159)" stroke="rgb(129,156,159)" stroke-width="1.51"/><path d="M1735,196L1729,129L1582,159Z" fill="rgb(136,165,204)" stroke="rgb(136,165,204)" stroke-width="1.51"/><path d="M1847,289L1742,324L1766,335Z" fill="rgb(174,203,228)" stroke="rgb(174,203,228)" stroke-width="1.51"/><path d="M1667,1093L1836,983L1645,981Z" fill="rgb(157,192,197)" stroke="rgb(157,192,197)" stroke-width="1.51"/><path d="M1588,1181L1641,1226L1667,1093Z" fill="rgb(160,197,202)" stroke="rgb(160,197,202)" stroke-width="1.51"/><path d="M1487,1273L1641,1226L1588,1181Z" fill="rgb(153,186,191)" stroke="rgb(153,186,191)" stroke-width="1.51"/><path d="M85,540L81,748L186,576Z" fill="rgb(92,113,161)" stroke="rgb(92,113,161)" stroke-width="1.51"/><path d="M81,748L103,864L183,905Z" fill="rgb(97,122,167)" stroke="rgb(97,122,167)" stroke-width="1.51"/><path d="M181,326L41,496L85,540Z" fill="rgb(127,154,213)" stroke="rgb(127,154,213)" stroke-width="1.51"/><path d="M121,246L117,312L181,326Z" fill="rgb(141,173,243)" stroke="rgb(141,173,243)" stroke-width="1.51"/><path d="M121,246L265,172L89,136Z" fill="rgb(122,161,240)" stroke="rgb(122,161,240)" stroke-width="1.51"/><path d="M180,1150L291,1039L203,1014Z" fill="rgb(158,198,243)" stroke="rgb(158,198,243)" stroke-width="1.51"/><path d="M180,1150L277,1201L291,1039Z" fill="rgb(163,204,248)" stroke="rgb(163,204,248)" stroke-width="1.51"/><path d="M396,1196L19,1260L515,1200Z" fill="rgb(169,208,249)" stroke="rgb(169,208,249)" stroke-width="1.51"/><path d="M811,1238L19,1260L929,1247Z" fill="rgb(194,229,254)" stroke="rgb(194,229,254)" stroke-width="1.51"/><path d="M1971,606L1882,459L1809,560Z" fill="rgb(152,178,190)" stroke="rgb(152,178,190)" stroke-width="1.51"/><path d="M24,438L41,496L181,326Z" fill="rgb(133,161,224)" stroke="rgb(133,161,224)" stroke-width="1.51"/><path d="M227,48L265,172L301,122Z" fill="rgb(119,159,239)" stroke="rgb(119,159,239)" stroke-width="1.51"/><path d="M227,48L301,122L405,-44Z" fill="rgb(110,154,237)" stroke="rgb(110,154,237)" stroke-width="1.51"/><path d="M1882,459L1847,289L1766,335Z" fill="rgb(187,217,238)" stroke="rgb(187,217,238)" stroke-width="1.51"/><path d="M1880,1047L1836,983L1667,1093Z" fill="rgb(172,213,218)" stroke="rgb(172,213,218)" stroke-width="1.51"/><path d="M298,-88L227,48L405,-44Z" fill="rgb(101,149,236)" stroke="rgb(101,149,236)" stroke-width="1.51"/><path d="M85,540L-14,671L81,748Z" fill="rgb(78,101,150)" stroke="rgb(78,101,150)" stroke-width="1.51"/><path d="M24,438L181,326L117,312Z" fill="rgb(149,179,245)" stroke="rgb(149,179,245)" stroke-width="1.51"/><path d="M61,1053L180,1150L203,1014Z" fill="rgb(151,194,243)" stroke="rgb(151,194,243)" stroke-width="1.51"/><path d="M1862,732L1971,606L1809,560Z" fill="rgb(130,153,160)" stroke="rgb(130,153,160)" stroke-width="1.51"/><path d="M1836,983L1888,918L1778,873Z" fill="rgb(151,183,188)" stroke="rgb(151,183,188)" stroke-width="1.51"/><path d="M1888,918L1906,863L1778,873Z" fill="rgb(145,175,180)" stroke="rgb(145,175,180)" stroke-width="1.51"/><path d="M1568,-53L1527,-179L1463,-134Z" fill="rgb(89,119,170)" stroke="rgb(89,119,170)" stroke-width="1.51"/><path d="M1463,-134L1527,-179L1372,-162Z" fill="rgb(81,109,158)" stroke="rgb(81,109,158)" stroke-width="1.51"/><path d="M1372,-162L1527,-179L910,-191Z" fill="rgb(61,83,131)" stroke="rgb(61,83,131)" stroke-width="1.51"/><path d="M1637,-171L1527,-179L1568,-53Z" fill="rgb(96,129,180)" stroke="rgb(96,129,180)" stroke-width="1.51"/><path d="M1743,-25L1568,-53L1729,129Z" fill="rgb(111,148,199)" stroke="rgb(111,148,199)" stroke-width="1.51"/><path d="M-56,845L103,864L81,748Z" fill="rgb(85,112,160)" stroke="rgb(85,112,160)" stroke-width="1.51"/><path d="M-21,297L24,438L117,312Z" fill="rgb(140,173,243)" stroke="rgb(140,173,243)" stroke-width="1.51"/><path d="M2022,631L1938,767L2107,779Z" fill="rgb(117,139,142)" stroke="rgb(117,139,142)" stroke-width="1.51"/><path d="M1906,863L1938,767L1862,732Z" fill="rgb(128,154,158)" stroke="rgb(128,154,158)" stroke-width="1.51"/><path d="M481,-123L298,-88L405,-44Z" fill="rgb(111,154,237)" stroke="rgb(111,154,237)" stroke-width="1.51"/><path d="M227,48L89,136L265,172Z" fill="rgb(112,155,238)" stroke="rgb(112,155,238)" stroke-width="1.51"/><path d="M275,-190L298,-88L481,-123Z" fill="rgb(106,152,237)" stroke="rgb(106,152,237)" stroke-width="1.51"/><path d="M-14,671L85,540L-46,595Z" fill="rgb(85,110,165)" stroke="rgb(85,110,165)" stroke-width="1.51"/><path d="M-56,845L57,954L103,864Z" fill="rgb(99,131,181)" stroke="rgb(99,131,181)" stroke-width="1.51"/><path d="M103,864L57,954L183,905Z" fill="rgb(111,142,189)" stroke="rgb(111,142,189)" stroke-width="1.51"/><path d="M1847,289L1855,129L1735,196Z" fill="rgb(160,193,230)" stroke="rgb(160,193,230)" stroke-width="1.51"/><path d="M1882,459L1905,274L1847,289Z" fill="rgb(191,223,247)" stroke="rgb(191,223,247)" stroke-width="1.51"/><path d="M1988,316L1905,274L1882,459Z" fill="rgb(198,231,255)" stroke="rgb(198,231,255)" stroke-width="1.51"/><path d="M-46,595L85,540L41,496Z" fill="rgb(100,126,183)" stroke="rgb(100,126,183)" stroke-width="1.51"/><path d="M1938,767L1971,606L1862,732Z" fill="rgb(120,142,146)" stroke="rgb(120,142,146)" stroke-width="1.51"/><path d="M1855,129L1743,-25L1729,129Z" fill="rgb(134,171,219)" stroke="rgb(134,171,219)" stroke-width="1.51"/><path d="M1836,983L1880,1047L1888,918Z" fill="rgb(169,207,213)" stroke="rgb(169,207,213)" stroke-width="1.51"/><path d="M2041,933L2036,876L1906,863Z" fill="rgb(154,188,193)" stroke="rgb(154,188,193)" stroke-width="1.51"/><path d="M1760,1245L1880,1047L1667,1093Z" fill="rgb(179,221,227)" stroke="rgb(179,221,227)" stroke-width="1.51"/><path d="M1905,274L1855,129L1847,289Z" fill="rgb(171,207,241)" stroke="rgb(171,207,241)" stroke-width="1.51"/><path d="M1641,1226L1760,1245L1667,1093Z" fill="rgb(168,207,212)" stroke="rgb(168,207,212)" stroke-width="1.51"/><path d="M1487,1273L1760,1245L1641,1226Z" fill="rgb(160,196,201)" stroke="rgb(160,196,201)" stroke-width="1.51"/><path d="M-9,247L-21,297L117,312Z" fill="rgb(127,164,240)" stroke="rgb(127,164,240)" stroke-width="1.51"/><path d="M171,-46L89,136L227,48Z" fill="rgb(93,144,235)" stroke="rgb(93,144,235)" stroke-width="1.51"/><path d="M57,954L61,1053L203,1014Z" fill="rgb(133,171,221)" stroke="rgb(133,171,221)" stroke-width="1.51"/><path d="M-73,1043L61,1053L57,954Z" fill="rgb(126,168,222)" stroke="rgb(126,168,222)" stroke-width="1.51"/><path d="M-93,511L-46,595L41,496Z" fill="rgb(99,127,186)" stroke="rgb(99,127,186)" stroke-width="1.51"/><path d="M-14,671L-56,845L81,748Z" fill="rgb(67,92,139)" stroke="rgb(67,92,139)" stroke-width="1.51"/><path d="M-93,511L41,496L24,438Z" fill="rgb(111,140,203)" stroke="rgb(111,140,203)" stroke-width="1.51"/><path d="M61,1053L134,1196L180,1150Z" fill="rgb(151,195,245)" stroke="rgb(151,195,245)" stroke-width="1.51"/><path d="M180,1150L134,1196L277,1201Z" fill="rgb(158,200,247)" stroke="rgb(158,200,247)" stroke-width="1.51"/><path d="M277,1201L19,1260L396,1196Z" fill="rgb(162,203,247)" stroke="rgb(162,203,247)" stroke-width="1.51"/><path d="M1813,-121L1637,-171L1743,-25Z" fill="rgb(115,154,208)" stroke="rgb(115,154,208)" stroke-width="1.51"/><path d="M1743,-25L1637,-171L1568,-53Z" fill="rgb(105,140,193)" stroke="rgb(105,140,193)" stroke-width="1.51"/><path d="M298,-88L171,-46L227,48Z" fill="rgb(91,143,234)" stroke="rgb(91,143,234)" stroke-width="1.51"/><path d="M-9,247L121,246L89,136Z" fill="rgb(116,158,239)" stroke="rgb(116,158,239)" stroke-width="1.51"/><path d="M-9,247L117,312L121,246Z" fill="rgb(129,165,241)" stroke="rgb(129,165,241)" stroke-width="1.51"/><path d="M1938,767L2022,631L1971,606Z" fill="rgb(127,150,156)" stroke="rgb(127,150,156)" stroke-width="1.51"/><path d="M2028,447L1988,316L1882,459Z" fill="rgb(188,220,239)" stroke="rgb(188,220,239)" stroke-width="1.51"/><path d="M2036,876L1938,767L1906,863Z" fill="rgb(142,171,175)" stroke="rgb(142,171,175)" stroke-width="1.51"/><path d="M-91,226L-9,247L-64,130Z" fill="rgb(107,152,237)" stroke="rgb(107,152,237)" stroke-width="1.51"/><path d="M2041,933L1906,863L1888,918Z" fill="rgb(158,193,198)" stroke="rgb(158,193,198)" stroke-width="1.51"/><path d="M1760,1245L1907,1107L1880,1047Z" fill="rgb(189,235,241)" stroke="rgb(189,235,241)" stroke-width="1.51"/><path d="M2028,447L1882,459L1971,606Z" fill="rgb(165,194,208)" stroke="rgb(165,194,208)" stroke-width="1.51"/><path d="M1905,274L1962,149L1855,129Z" fill="rgb(169,207,247)" stroke="rgb(169,207,247)" stroke-width="1.51"/><path d="M-136,711L-56,845L-14,671Z" fill="rgb(65,88,136)" stroke="rgb(65,88,136)" stroke-width="1.51"/><path d="M61,1053L19,1260L134,1196Z" fill="rgb(146,191,244)" stroke="rgb(146,191,244)" stroke-width="1.51"/><path d="M2022,631L2028,447L1971,606Z" fill="rgb(151,178,189)" stroke="rgb(151,178,189)" stroke-width="1.51"/><path d="M298,-88L139,-163L171,-46Z" fill="rgb(86,141,234)" stroke="rgb(86,141,234)" stroke-width="1.51"/><path d="M599,-160L275,-190L481,-123Z" fill="rgb(118,158,239)" stroke="rgb(118,158,239)" stroke-width="1.51"/><path d="M910,-191L275,-190L599,-160Z" fill="rgb(133,168,241)" stroke="rgb(133,168,241)" stroke-width="1.51"/><path d="M-56,845L-52,921L57,954Z" fill="rgb(100,134,186)" stroke="rgb(100,134,186)" stroke-width="1.51"/><path d="M-46,595L-136,711L-14,671Z" fill="rgb(73,96,147)" stroke="rgb(73,96,147)" stroke-width="1.51"/><path d="M-56,845L-112,909L-52,921Z" fill="rgb(97,130,182)" stroke="rgb(97,130,182)" stroke-width="1.51"/><path d="M-149,307L-93,511L24,438Z" fill="rgb(125,156,223)" stroke="rgb(125,156,223)" stroke-width="1.51"/><path d="M-149,307L24,438L-21,297Z" fill="rgb(136,170,242)" stroke="rgb(136,170,242)" stroke-width="1.51"/><path d="M2028,447L2009,304L1988,316Z" fill="rgb(199,233,255)" stroke="rgb(199,233,255)" stroke-width="1.51"/><path d="M1988,316L2009,304L1905,274Z" fill="rgb(189,225,253)" stroke="rgb(189,225,253)" stroke-width="1.51"/><path d="M1855,129L1832,-61L1743,-25Z" fill="rgb(127,169,223)" stroke="rgb(127,169,223)" stroke-width="1.51"/><path d="M2039,235L1962,149L1905,274Z" fill="rgb(176,214,250)" stroke="rgb(176,214,250)" stroke-width="1.51"/><path d="M1896,-72L1832,-61L1855,129Z" fill="rgb(131,176,232)" stroke="rgb(131,176,232)" stroke-width="1.51"/><path d="M2022,631L2107,779L2028,447Z" fill="rgb(138,163,171)" stroke="rgb(138,163,171)" stroke-width="1.51"/><path d="M2041,933L1888,918L1880,1047Z" fill="rgb(172,211,217)" stroke="rgb(172,211,217)" stroke-width="1.51"/><path d="M2036,876L2107,779L1938,767Z" fill="rgb(135,163,167)" stroke="rgb(135,163,167)" stroke-width="1.51"/><path d="M1907,1107L2041,933L1880,1047Z" fill="rgb(187,231,238)" stroke="rgb(187,231,238)" stroke-width="1.51"/><path d="M1896,-72L1813,-121L1832,-61Z" fill="rgb(129,174,229)" stroke="rgb(129,174,229)" stroke-width="1.51"/><path d="M1832,-61L1813,-121L1743,-25Z" fill="rgb(123,165,220)" stroke="rgb(123,165,220)" stroke-width="1.51"/><path d="M-191,606L-136,711L-46,595Z" fill="rgb(77,102,154)" stroke="rgb(77,102,154)" stroke-width="1.51"/><path d="M-9,247L-91,226L-21,297Z" fill="rgb(118,159,239)" stroke="rgb(118,159,239)" stroke-width="1.51"/><path d="M171,-46L58,-34L89,136Z" fill="rgb(77,137,232)" stroke="rgb(77,137,232)" stroke-width="1.51"/><path d="M139,-163L58,-34L171,-46Z" fill="rgb(74,136,232)" stroke="rgb(74,136,232)" stroke-width="1.51"/><path d="M-193,796L-112,909L-56,845Z" fill="rgb(88,118,169)" stroke="rgb(88,118,169)" stroke-width="1.51"/><path d="M-52,921L-73,1043L57,954Z" fill="rgb(114,153,208)" stroke="rgb(114,153,208)" stroke-width="1.51"/><path d="M2032,83L1896,-72L1855,129Z" fill="rgb(147,192,245)" stroke="rgb(147,192,245)" stroke-width="1.51"/><path d="M2009,304L2039,235L1905,274Z" fill="rgb(185,221,252)" stroke="rgb(185,221,252)" stroke-width="1.51"/><path d="M2028,447L2039,235L2009,304Z" fill="rgb(194,229,254)" stroke="rgb(194,229,254)" stroke-width="1.51"/><path d="M2114,38L2039,235L2028,447Z" fill="rgb(180,217,251)" stroke="rgb(180,217,251)" stroke-width="1.51"/><path d="M-112,909L-73,1043L-52,921Z" fill="rgb(111,149,203)" stroke="rgb(111,149,203)" stroke-width="1.51"/><path d="M-64,130L-9,247L89,136Z" fill="rgb(101,149,236)" stroke="rgb(101,149,236)" stroke-width="1.51"/><path d="M-93,511L-191,606L-46,595Z" fill="rgb(91,118,174)" stroke="rgb(91,118,174)" stroke-width="1.51"/><path d="M275,-190L139,-163L298,-88Z" fill="rgb(91,144,234)" stroke="rgb(91,144,234)" stroke-width="1.51"/><path d="M2041,933L2107,779L2036,876Z" fill="rgb(148,180,184)" stroke="rgb(148,180,184)" stroke-width="1.51"/><path d="M-22,-31L89,136L58,-34Z" fill="rgb(68,134,231)" stroke="rgb(68,134,231)" stroke-width="1.51"/><path d="M-22,-31L-64,130L89,136Z" fill="rgb(77,137,232)" stroke="rgb(77,137,232)" stroke-width="1.51"/><path d="M2032,83L1855,129L1962,149Z" fill="rgb(160,201,247)" stroke="rgb(160,201,247)" stroke-width="1.51"/><path d="M-73,1043L19,1260L61,1053Z" fill="rgb(139,186,243)" stroke="rgb(139,186,243)" stroke-width="1.51"/><path d="M134,1196L19,1260L277,1201Z" fill="rgb(153,196,246)" stroke="rgb(153,196,246)" stroke-width="1.51"/><path d="M-146,142L-149,307L-91,226Z" fill="rgb(112,155,238)" stroke="rgb(112,155,238)" stroke-width="1.51"/><path d="M-91,226L-149,307L-21,297Z" fill="rgb(122,161,239)" stroke="rgb(122,161,239)" stroke-width="1.51"/><path d="M-149,307L-191,606L-93,511Z" fill="rgb(112,142,205)" stroke="rgb(112,142,205)" stroke-width="1.51"/><path d="M-136,711L-193,796L-56,845Z" fill="rgb(73,100,148)" stroke="rgb(73,100,148)" stroke-width="1.51"/><path d="M-112,909L-154,1139L-73,1043Z" fill="rgb(127,171,226)" stroke="rgb(127,171,226)" stroke-width="1.51"/><path d="M-73,1043L-154,1139L19,1260Z" fill="rgb(139,186,243)" stroke="rgb(139,186,243)" stroke-width="1.51"/><path d="M-191,606L-193,796L-136,711Z" fill="rgb(63,86,134)" stroke="rgb(63,86,134)" stroke-width="1.51"/><path d="M2039,235L2032,83L1962,149Z" fill="rgb(166,206,248)" stroke="rgb(166,206,248)" stroke-width="1.51"/><path d="M2114,38L2032,83L2039,235Z" fill="rgb(160,201,247)" stroke="rgb(160,201,247)" stroke-width="1.51"/><path d="M-64,130L-146,142L-91,226Z" fill="rgb(99,148,235)" stroke="rgb(99,148,235)" stroke-width="1.51"/><path d="M-50,-139L-22,-31L58,-34Z" fill="rgb(52,128,229)" stroke="rgb(52,128,229)" stroke-width="1.51"/><path d="M1907,1107L2058,1139L2041,933Z" fill="rgb(194,241,248)" stroke="rgb(194,241,248)" stroke-width="1.51"/><path d="M2041,933L2058,1139L2107,779Z" fill="rgb(168,207,212)" stroke="rgb(168,207,212)" stroke-width="1.51"/><path d="M1760,1245L2004,1223L1907,1107Z" fill="rgb(195,242,249)" stroke="rgb(195,242,249)" stroke-width="1.51"/><path d="M2097,1268L2004,1223L1760,1245Z" fill="rgb(199,248,255)" stroke="rgb(199,248,255)" stroke-width="1.51"/><path d="M2091,-140L1895,-152L1896,-72Z" fill="rgb(139,186,243)" stroke="rgb(139,186,243)" stroke-width="1.51"/><path d="M1896,-72L1895,-152L1813,-121Z" fill="rgb(132,177,233)" stroke="rgb(132,177,233)" stroke-width="1.51"/><path d="M1813,-121L1895,-152L1637,-171Z" fill="rgb(121,162,217)" stroke="rgb(121,162,217)" stroke-width="1.51"/><path d="M2004,1223L2058,1139L1907,1107Z" fill="rgb(199,248,255)" stroke="rgb(199,248,255)" stroke-width="1.51"/><path d="M-165,17L-146,142L-64,130Z" fill="rgb(82,139,233)" stroke="rgb(82,139,233)" stroke-width="1.51"/><path d="M-149,307L-165,17L-191,606Z" fill="rgb(129,165,241)" stroke="rgb(129,165,241)" stroke-width="1.51"/><path d="M-193,796L-154,1139L-112,909Z" fill="rgb(109,146,199)" stroke="rgb(109,146,199)" stroke-width="1.51"/><path d="M-22,-31L-165,17L-64,130Z" fill="rgb(66,132,231)" stroke="rgb(66,132,231)" stroke-width="1.51"/><path d="M139,-163L-50,-139L58,-34Z" fill="rgb(62,131,230)" stroke="rgb(62,131,230)" stroke-width="1.51"/><path d="M-161,-138L-50,-139L139,-163Z" fill="rgb(52,128,229)" stroke="rgb(52,128,229)" stroke-width="1.51"/><path d="M2032,83L2091,-140L1896,-72Z" fill="rgb(139,186,243)" stroke="rgb(139,186,243)" stroke-width="1.51"/><path d="M2107,779L2114,38L2028,447Z" fill="rgb(185,216,234)" stroke="rgb(185,216,234)" stroke-width="1.51"/><path d="M-161,-138L-165,17L-22,-31Z" fill="rgb(52,128,229)" stroke="rgb(52,128,229)" stroke-width="1.51"/><path d="M-146,142L-165,17L-149,307Z" fill="rgb(97,146,235)" stroke="rgb(97,146,235)" stroke-width="1.51"/><path d="M2004,1223L2097,1268L2058,1139Z" fill="rgb(199,248,255)" stroke="rgb(199,248,255)" stroke-width="1.51"/><path d="M2058,1139L2097,1268L2107,779Z" fill="rgb(194,242,249)" stroke="rgb(194,242,249)" stroke-width="1.51"/><path d="M1487,1273L2097,1268L1760,1245Z" fill="rgb(180,223,229)" stroke="rgb(180,223,229)" stroke-width="1.51"/><path d="M-154,1139L-203,1234L19,1260Z" fill="rgb(139,186,243)" stroke="rgb(139,186,243)" stroke-width="1.51"/><path d="M-193,796L-203,1234L-154,1139Z" fill="rgb(134,179,235)" stroke="rgb(134,179,235)" stroke-width="1.51"/><path d="M-191,606L-203,1234L-193,796Z" fill="rgb(94,126,177)" stroke="rgb(94,126,177)" stroke-width="1.51"/><path d="M2114,38L2091,-140L2032,83Z" fill="rgb(139,186,243)" stroke="rgb(139,186,243)" stroke-width="1.51"/><path d="M1895,-152L2091,-140L1637,-171Z" fill="rgb(133,178,234)" stroke="rgb(133,178,234)" stroke-width="1.51"/><path d="M1637,-171L2091,-140L1527,-179Z" fill="rgb(117,157,212)" stroke="rgb(117,157,212)" stroke-width="1.51"/><path d="M-50,-139L-161,-138L-22,-31Z" fill="rgb(52,128,229)" stroke="rgb(52,128,229)" stroke-width="1.51"/><path d="M-165,17L-161,-138L-191,606Z" fill="rgb(98,147,235)" stroke="rgb(98,147,235)" stroke-width="1.51"/><path d="M275,-190L-161,-138L139,-163Z" fill="rgb(68,133,231)" stroke="rgb(68,133,231)" stroke-width="1.51"/></svg>