<svg xmlns="http://www.w3.org/2000/svg" width="1920" height="1080"><path d="M898,632L1300,814L1017,384Z" fill="rgb(154,154,154)" stroke="rgb(154,154,154)" stroke-width="1.51"/><path d="M1300,814L1607,326L1017,384Z" fill="rgb(136,136,136)" stroke="rgb(136,136,136)" stroke-width="1.51"/><path d="M2059,683L1966,321L1607,326Z" fill="rgb(98,98,98)" stroke="rgb(98,98,98)" stroke-width="1.51"/><path d="M1108,1296L1446,1182L1300,814Z" fill="rgb(82,82,82)" stroke="rgb(82,82,82)" stroke-width="1.51"/><path d="M898,632L1108,1296L1300,814Z" fill="rgb(108,108,108)" stroke="rgb(108,108,108)" stroke-width="1.51"/><path d="M1017,384L450,439L898,632Z" fill="rgb(149,149,149)" stroke="rgb(149,149,149)" stroke-width="1.51"/><path d="M898,632L456,1151L1108,1296Z" fill="rgb(102,102,102)" stroke="rgb(102,102,102)" stroke-width="1.51"/><path d="M928,-116L450,439L1017,384Z" fill="rgb(108,108,108)" stroke="rgb(108,108,108)" stroke-width="1.51"/><path d="M1548,-130L928,-116L1017,384Z" fill="rgb(104,104,104)" stroke="rgb(104,104,104)" stroke-width="1.51"/><path d="M1607,326L1548,-130L1017,384Z" fill="rgb(81,81,81)" stroke="rgb(81,81,81)" stroke-width="1.51"/><path d="M450,439L332,807L898,632Z" fill="rgb(118,118,118)" stroke="rgb(118,118,118)" stroke-width="1.51"/><path d="M2059,683L1607,326L1300,814Z" fill="rgb(110,110,110)" stroke="rgb(110,110,110)" stroke-width="1.51"/><path d="M1607,326L1966,321L1548,-130Z" fill="rgb(70,70,70)" stroke="rgb(70,70,70)" stroke-width="1.51"/><path d="M332,807L456,1151L898,632Z" fill="rgb(82,82,82)" stroke="rgb(82,82,82)" stroke-width="1.51"/><path d="M1446,1182L2059,683L1300,814Z" fill="rgb(71,71,71)" stroke="rgb(71,71,71)" stroke-width="1.51"/><path d="M332,807L-93,1318L456,1151Z" fill="rgb(65,65,65)" stroke="rgb(65,65,65)" stroke-width="1.51"/><path d="M450,439L45,741L332,807Z" fill="rgb(103,103,103)" stroke="rgb(103,103,103)" stroke-width="1.51"/><path d="M-47,275L45,741L450,439Z" fill="rgb(115,115,115)" stroke="rgb(115,115,115)" stroke-width="1.51"/><path d="M1108,1296L1319,1918L1446,1182Z" fill="rgb(82,82,82)" stroke="rgb(82,82,82)" stroke-width="1.51"/><path d="M1446,1182L2088,1367L2059,683Z" fill="rgb(57,57,57)" stroke="rgb(57,57,57)" stroke-width="1.51"/><path d="M589,1632L837,1693L1108,1296Z" fill="rgb(103,103,103)" stroke="rgb(103,103,103)" stroke-width="1.51"/><path d="M589,1632L1108,1296L456,1151Z" fill="rgb(89,89,89)" stroke="rgb(89,89,89)" stroke-width="1.51"/><path d="M64,1713L589,1632L456,1151Z" fill="rgb(65,65,65)" stroke="rgb(65,65,65)" stroke-width="1.51"/><path d="M1952,1939L2088,1367L1446,1182Z" fill="rgb(58,58,58)" stroke="rgb(58,58,58)" stroke-width="1.51"/><path d="M928,-116L381,-326L450,439Z" fill="rgb(85,85,85)" stroke="rgb(85,85,85)" stroke-width="1.51"/><path d="M949,-603L381,-326L928,-116Z" fill="rgb(103,103,103)" stroke="rgb(103,103,103)" stroke-width="1.51"/><path d="M1548,-130L949,-603L928,-116Z" fill="rgb(107,107,107)" stroke="rgb(107,107,107)" stroke-width="1.51"/><path d="M381,-326L-47,275L450,439Z" fill="rgb(74,74,74)" stroke="rgb(74,74,74)" stroke-width="1.51"/><path d="M1548,-130L1596,-643L949,-603Z" fill="rgb(84,84,84)" stroke="rgb(84,84,84)" stroke-width="1.51"/><path d="M1966,321L2012,-338L1548,-130Z" fill="rgb(67,67,67)" stroke="rgb(67,67,67)" stroke-width="1.51"/><path d="M2349,-51L2012,-338L1966,321Z" fill="rgb(65,65,65)" stroke="rgb(65,65,65)" stroke-width="1.51"/><path d="M2012,-338L1596,-643L1548,-130Z" fill="rgb(69,69,69)" stroke="rgb(69,69,69)" stroke-width="1.51"/><path d="M2059,683L2438,279L1966,321Z" fill="rgb(94,94,94)" stroke="rgb(94,94,94)" stroke-width="1.51"/><path d="M2494,660L2438,279L2059,683Z" fill="rgb(115,115,115)" stroke="rgb(115,115,115)" stroke-width="1.51"/><path d="M837,1693L1319,1918L1108,1296Z" fill="rgb(102,102,102)" stroke="rgb(102,102,102)" stroke-width="1.51"/><path d="M64,1713L1319,1918L837,1693Z" fill="rgb(92,92,92)" stroke="rgb(92,92,92)" stroke-width="1.51"/><path d="M2383,1309L2494,660L2059,683Z" fill="rgb(64,64,64)" stroke="rgb(64,64,64)" stroke-width="1.51"/><path d="M2438,279L2349,-51L1966,321Z" fill="rgb(65,65,65)" stroke="rgb(65,65,65)" stroke-width="1.51"/><path d="M2088,1367L2383,1309L2059,683Z" fill="rgb(56,56,56)" stroke="rgb(56,56,56)" stroke-width="1.51"/><path d="M2478,1904L2383,1309L2088,1367Z" fill="rgb(56,56,56)" stroke="rgb(56,56,56)" stroke-width="1.51"/><path d="M45,741L-93,1318L332,807Z" fill="rgb(70,70,70)" stroke="rgb(70,70,70)" stroke-width="1.51"/><path d="M-500,770L-93,1318L45,741Z" fill="rgb(71,71,71)" stroke="rgb(71,71,71)" stroke-width="1.51"/><path d="M949,-603L616,-778L381,-326Z" fill="rgb(92,92,92)" stroke="rgb(92,92,92)" stroke-width="1.51"/><path d="M381,-326L-18,-311L-47,275Z" fill="rgb(74,74,74)" stroke="rgb(74,74,74)" stroke-width="1.51"/><path d="M1596,-643L616,-778L949,-603Z" fill="rgb(116,116,116)" stroke="rgb(116,116,116)" stroke-width="1.51"/><path d="M-48,-790L-18,-311L381,-326Z" fill="rgb(74,74,74)" stroke="rgb(74,74,74)" stroke-width="1.51"/><path d="M-93,1318L64,1713L456,1151Z" fill="rgb(65,65,65)" stroke="rgb(65,65,65)" stroke-width="1.51"/><path d="M589,1632L64,1713L837,1693Z" fill="rgb(66,66,66)" stroke="rgb(66,66,66)" stroke-width="1.51"/><path d="M1596,-643L2524,-831L616,-778Z" fill="rgb(73,73,73)" stroke="rgb(73,73,73)" stroke-width="1.51"/><path d="M2012,-338L2081,-648L1596,-643Z" fill="rgb(65,65,65)" stroke="rgb(65,65,65)" stroke-width="1.51"/><path d="M2349,-51L2081,-648L2012,-338Z" fill="rgb(65,65,65)" stroke="rgb(65,65,65)" stroke-width="1.51"/><path d="M1319,1918L1952,1939L1446,1182Z" fill="rgb(64,64,64)" stroke="rgb(64,64,64)" stroke-width="1.51"/><path d="M-93,1318L-432,1678L64,1713Z" fill="rgb(65,65,65)" stroke="rgb(65,65,65)" stroke-width="1.51"/><path d="M-47,275L-500,770L45,741Z" fill="rgb(115,115,115)" stroke="rgb(115,115,115)" stroke-width="1.51"/><path d="M-502,327L-500,770L-47,275Z" fill="rgb(109,109,109)" stroke="rgb(109,109,109)" stroke-width="1.51"/><path d="M-602,-190L-502,327L-47,275Z" fill="rgb(74,74,74)" stroke="rgb(74,74,74)" stroke-width="1.51"/><path d="M-18,-311L-602,-190L-47,275Z" fill="rgb(74,74,74)" stroke="rgb(74,74,74)" stroke-width="1.51"/><path d="M616,-778L-48,-790L381,-326Z" fill="rgb(74,74,74)" stroke="rgb(74,74,74)" stroke-width="1.51"/><path d="M1952,1939L2478,1904L2088,1367Z" fill="rgb(56,56,56)" stroke="rgb(56,56,56)" stroke-width="1.51"/><path d="M2383,1309L2478,1904L2494,660Z" fill="rgb(56,56,56)" stroke="rgb(56,56,56)" stroke-width="1.51"/><path d="M-624,1334L-432,1678L-93,1318Z" fill="rgb(65,65,65)" stroke="rgb(65,65,65)" stroke-width="1.51"/><path d="M64,1713L-432,1678L1319,1918Z" fill="rgb(65,65,65)" stroke="rgb(65,65,65)" stroke-width="1.51"/><path d="M-500,770L-624,1334L-93,1318Z" fill="rgb(65,65,65)" stroke="rgb(65,65,65)" stroke-width="1.51"/><path d="M-502,327L-624,1334L-500,770Z" fill="rgb(76,76,76)" stroke="rgb(76,76,76)" stroke-width="1.51"/><path d="M-502,327L-602,-190L-624,1334Z" fill="rgb(116,116,116)" stroke="rgb(116,116,116)" stroke-width="1.51"/><path d="M-505,-849L-602,-190L-18,-311Z" fill="rgb(74,74,74)" stroke="rgb(74,74,74)" stroke-width="1.51"/><path d="M2349,-51L2524,-831L2081,-648Z" fill="rgb(65,65,65)" stroke="rgb(65,65,65)" stroke-width="1.51"/><path d="M2081,-648L2524,-831L1596,-643Z" fill="rgb(65,65,65)" stroke="rgb(65,65,65)" stroke-width="1.51"/><path d="M616,-778L-505,-849L-48,-790Z" fill="rgb(74,74,74)" stroke="rgb(74,74,74)" stroke-width="1.51"/><path d="M2438,279L2524,-831L2349,-51Z" fill="rgb(65,65,65)" stroke="rgb(65,65,65)" stroke-width="1.51"/><path d="M2494,660L2524,-831L2438,279Z" fill="rgb(65,65,65)" stroke="rgb(65,65,65)" stroke-width="1.51"/><path d="M2478,1904L2524,-831L2494,660Z" fill="rgb(108,108,108)" stroke="rgb(108,108,108)" stroke-width="1.51"/><path d="M-48,-790L-505,-849L-18,-311Z" fill="rgb(74,74,74)" stroke="rgb(74,74,74)" stroke-width="1.51"/><path d="M2524,-831L-505,-849L616,-778Z" fill="rgb(116,116,116)" stroke="rgb(116,116,116)" stroke-width="1.51"/></svg>